STARTFONT 2.1
COMMENT $XFree86$
COMMENT ISO10646-1 extension by Markus Kuhn <mkuhn@acm.org>, 2001-03-20
COMMENT  (c) Copyright Bigelow & Holmes 1986, 1985. Lucida is a registered
COMMENT  trademark of Bigelow & Holmes. See LEGAL NOTICE file for terms 
COMMENT  of the license. 
FONT -B&H-Lucida-Medium-I-Normal-Sans-26-190-100-100-P-147-ISO10646-1
SIZE 19 100 100
FONTBOUNDINGBOX 50 40 -17 -11
STARTPROPERTIES 22
COMMENT Begin LogicalFontDescription
FONTNAME_REGISTRY ""
FOUNDRY "B&H"
FAMILY_NAME "Lucida"
WEIGHT_NAME "Medium"
SLANT "I"
SETWIDTH_NAME "Normal"
ADD_STYLE_NAME "Sans"
PIXEL_SIZE 26
POINT_SIZE 190
RESOLUTION_X 100
RESOLUTION_Y 100
SPACING "P"
AVERAGE_WIDTH 147
CHARSET_REGISTRY "ISO10646"
CHARSET_ENCODING "1"
COMMENT END LogicalFontDescription
COPYRIGHT "Copyright Bigelow & Holmes 1986, 1985."
FONT_ASCENT 24
FONT_DESCENT 6
DEFAULT_CHAR 0
FACE_NAME "Lucida Sans Italic"
X_HEIGHT 14
CAP_HEIGHT 19
ENDPROPERTIES
CHARS 723
STARTCHAR char0
ENCODING 0
SWIDTH 735 0
DWIDTH 19 0
BBX 17 19 2 0
BITMAP
AAAA80
000000
800080
000000
800080
000000
800080
000000
800080
000000
800080
000000
800080
000000
800080
000000
800080
000000
AAAA80
ENDCHAR
STARTCHAR space
ENCODING 32
SWIDTH 316 0
DWIDTH 8 0
BBX 1 1 0 0
BITMAP
00
ENDCHAR
STARTCHAR exclam
ENCODING 33
SWIDTH 193 0
DWIDTH 8 0
BBX 6 19 3 0
BITMAP
1C
1C
1C
18
18
18
38
30
30
30
30
30
60
60
00
00
00
E0
E0
ENDCHAR
STARTCHAR quotedbl
ENCODING 34
SWIDTH 361 0
DWIDTH 9 0
BBX 7 6 5 13
BITMAP
EE
CE
C6
C6
C6
C6
ENDCHAR
STARTCHAR numbersign
ENCODING 35
SWIDTH 633 0
DWIDTH 16 0
BBX 16 19 2 0
BITMAP
0067
00C6
00CE
018C
011C
7FFF
7FFF
0630
0630
0C60
0C60
FFFE
FFFE
11C0
3180
3180
6300
6300
C600
ENDCHAR
STARTCHAR dollar
ENCODING 36
SWIDTH 633 0
DWIDTH 16 0
BBX 13 22 4 -2
BITMAP
0080
01F0
07F8
1FC8
1D00
3900
3900
3B00
1F00
0E00
0700
0380
07C0
04E0
04E0
04E0
04E0
8DC0
FF80
FF00
0800
0800
ENDCHAR
STARTCHAR percent
ENCODING 37
SWIDTH 741 0
DWIDTH 19 0
BBX 20 19 2 0
BITMAP
078070
1FC0C0
18C1C0
304380
30C300
30C600
31CC00
3F9800
1E3000
006780
00CFC0
0198C0
0330C0
0630C0
0C30C0
1830C0
383180
703F00
E01E00
ENDCHAR
STARTCHAR ampersand
ENCODING 38
SWIDTH 701 0
DWIDTH 18 0
BBX 17 19 2 0
BITMAP
007800
01FC00
038C00
030C00
030C00
031C00
037800
03F000
0FC000
3D8380
71C300
E0C300
E0E700
E06600
E07C00
E03C00
707800
7FDC00
1F1E00
ENDCHAR
STARTCHAR quotesingle
ENCODING 39
SWIDTH 217 0
DWIDTH 6 0
BBX 3 6 5 13
BITMAP
E0
E0
E0
E0
E0
60
ENDCHAR
STARTCHAR parenleft
ENCODING 40
SWIDTH 325 0
DWIDTH 8 0
BBX 9 23 3 -4
BITMAP
0180
0100
0600
0E00
0C00
1800
3800
3000
7000
6000
6000
E000
E000
C000
C000
C000
C000
C000
6000
6000
7000
3000
1000
ENDCHAR
STARTCHAR parenright
ENCODING 41
SWIDTH 325 0
DWIDTH 8 0
BBX 9 23 1 -4
BITMAP
0400
0C00
0600
0300
0300
0300
0300
0300
0380
0300
0300
0300
0300
0700
0600
0E00
0C00
1C00
1800
3000
6000
C000
8000
ENDCHAR
STARTCHAR asterisk
ENCODING 42
SWIDTH 470 0
DWIDTH 12 0
BBX 10 9 4 10
BITMAP
0600
0400
4C00
FDC0
3380
1C00
3600
E600
4300
ENDCHAR
STARTCHAR plus
ENCODING 43
SWIDTH 633 0
DWIDTH 16 0
BBX 15 16 2 0
BITMAP
00C0
00C0
0180
0180
0180
0180
0180
FFFE
FFFE
0300
0300
0300
0300
0300
0600
0600
ENDCHAR
STARTCHAR comma
ENCODING 44
SWIDTH 316 0
DWIDTH 8 0
BBX 5 9 2 -5
BITMAP
78
78
78
70
30
30
30
60
C0
ENDCHAR
STARTCHAR hyphen
ENCODING 45
SWIDTH 313 0
DWIDTH 8 0
BBX 6 2 3 8
BITMAP
FC
FC
ENDCHAR
STARTCHAR period
ENCODING 46
SWIDTH 316 0
DWIDTH 8 0
BBX 4 3 2 0
BITMAP
70
F0
E0
ENDCHAR
STARTCHAR slash
ENCODING 47
SWIDTH 482 0
DWIDTH 13 0
BBX 17 23 0 -4
BITMAP
000380
000300
000600
000600
000C00
001800
001800
003000
007000
006000
00C000
01C000
018000
030000
070000
060000
0C0000
0C0000
180000
300000
300000
600000
E00000
ENDCHAR
STARTCHAR zero
ENCODING 48
SWIDTH 633 0
DWIDTH 16 0
BBX 14 19 3 0
BITMAP
03E0
07F0
0E38
1C1C
381C
301C
701C
601C
601C
E01C
E018
E038
E038
E030
E070
E0E0
71C0
7F80
1E00
ENDCHAR
STARTCHAR one
ENCODING 49
SWIDTH 633 0
DWIDTH 16 0
BBX 6 19 7 0
BITMAP
7C
FC
1C
18
18
18
38
38
30
30
30
70
70
60
60
60
E0
E0
C0
ENDCHAR
STARTCHAR two
ENCODING 50
SWIDTH 633 0
DWIDTH 16 0
BBX 14 19 3 0
BITMAP
03E0
0FF8
0C3C
101C
001C
001C
001C
0038
0070
00E0
01C0
0380
0E00
1C00
3800
7000
7000
FFE0
FFE0
ENDCHAR
STARTCHAR three
ENCODING 51
SWIDTH 633 0
DWIDTH 16 0
BBX 13 19 3 0
BITMAP
0FE0
0FF0
0838
0038
0018
0038
0070
00E0
0F80
1FC0
01E0
0070
0070
0070
0070
00E0
C1C0
FF80
7E00
ENDCHAR
STARTCHAR four
ENCODING 52
SWIDTH 633 0
DWIDTH 16 0
BBX 14 19 2 0
BITMAP
001C
003C
0078
00F8
01D8
03B8
0738
0E30
1C30
3830
7030
6060
FFFC
FFFC
0060
00E0
00E0
00C0
00C0
ENDCHAR
STARTCHAR five
ENCODING 53
SWIDTH 633 0
DWIDTH 16 0
BBX 14 19 3 0
BITMAP
0FFC
0FFC
0800
1800
1800
1800
1800
1F00
3FC0
01E0
0070
0070
0070
0070
0060
00E0
C1C0
FF80
FE00
ENDCHAR
STARTCHAR six
ENCODING 54
SWIDTH 633 0
DWIDTH 16 0
BBX 14 19 3 0
BITMAP
01F8
07FC
0E0C
1C00
3800
3000
7000
77C0
7FF0
F870
F038
E038
E038
E030
E070
E060
70E0
3FC0
1F00
ENDCHAR
STARTCHAR seven
ENCODING 55
SWIDTH 633 0
DWIDTH 16 0
BBX 14 19 4 0
BITMAP
3FFC
3FFC
003C
0038
0070
00E0
01C0
0380
0700
0700
0E00
1C00
1C00
3800
7800
7000
7000
E000
E000
ENDCHAR
STARTCHAR eight
ENCODING 56
SWIDTH 633 0
DWIDTH 16 0
BBX 14 19 3 0
BITMAP
03F0
07F8
0E1C
180C
180C
181C
1C38
1EF0
0FC0
1FE0
39F0
7070
E038
E038
E038
E070
F0F0
7FE0
1F80
ENDCHAR
STARTCHAR nine
ENCODING 57
SWIDTH 633 0
DWIDTH 16 0
BBX 14 19 3 0
BITMAP
03E0
0FF8
1E38
181C
381C
301C
701C
701C
703C
387C
3FF8
0FB8
0038
0030
0070
00E0
C1C0
FF80
7E00
ENDCHAR
STARTCHAR colon
ENCODING 58
SWIDTH 316 0
DWIDTH 8 0
BBX 5 14 3 0
BITMAP
38
38
00
00
00
00
00
00
00
00
00
00
E0
E0
ENDCHAR
STARTCHAR semicolon
ENCODING 59
SWIDTH 316 0
DWIDTH 8 0
BBX 6 19 2 -5
BITMAP
1C
1C
00
00
00
00
00
00
00
00
00
70
70
60
20
60
60
C0
80
ENDCHAR
STARTCHAR less
ENCODING 60
SWIDTH 633 0
DWIDTH 16 0
BBX 17 16 2 0
BITMAP
000080
000380
000F00
003C00
00F000
07C000
1F0000
FC0000
780000
3E0000
0F0000
03C000
00F000
007800
001C00
000400
ENDCHAR
STARTCHAR equal
ENCODING 61
SWIDTH 633 0
DWIDTH 16 0
BBX 16 7 2 4
BITMAP
7FFF
7FFF
0000
0000
0000
FFFE
FFFE
ENDCHAR
STARTCHAR greater
ENCODING 62
SWIDTH 633 0
DWIDTH 16 0
BBX 17 16 0 0
BITMAP
100000
1C0000
0F0000
078000
01E000
007800
003E00
000F00
001F80
007C00
01F000
078000
1E0000
780000
E00000
800000
ENDCHAR
STARTCHAR question
ENCODING 63
SWIDTH 464 0
DWIDTH 12 0
BBX 10 19 3 0
BITMAP
3F00
7FC0
41C0
00C0
00C0
01C0
0180
0380
0600
0C00
1800
3000
7000
7000
0000
0000
0000
E000
E000
ENDCHAR
STARTCHAR at
ENCODING 64
SWIDTH 858 0
DWIDTH 22 0
BBX 20 19 3 0
BITMAP
00FE00
03FF80
0703C0
1C00E0
187E60
31FE20
638430
420C30
C60C30
C61C30
841820
8C2860
CE58C0
C7DF80
470F00
600000
381000
1FF000
07E000
ENDCHAR
STARTCHAR A
ENCODING 65
SWIDTH 687 0
DWIDTH 18 0
BBX 17 19 1 0
BITMAP
003800
003C00
007C00
007C00
00EC00
00CC00
01CE00
038E00
030E00
070600
060600
0E0700
0FFF00
1FFF00
180700
380300
700380
600380
E00380
ENDCHAR
STARTCHAR B
ENCODING 66
SWIDTH 593 0
DWIDTH 15 0
BBX 14 19 2 0
BITMAP
0FF0
1FF8
1C3C
1C1C
181C
1838
3838
38F0
3FC0
3FC0
30F0
7070
7038
7038
7038
6070
E0F0
FFE0
FF80
ENDCHAR
STARTCHAR C
ENCODING 67
SWIDTH 679 0
DWIDTH 18 0
BBX 17 19 3 0
BITMAP
00FF00
03FF80
0F8180
1E0000
3C0000
380000
700000
700000
700000
E00000
E00000
E00000
E00000
E00000
E00000
700400
781C00
3FFC00
0FE000
ENDCHAR
STARTCHAR D
ENCODING 68
SWIDTH 743 0
DWIDTH 19 0
BBX 18 19 2 0
BITMAP
0FFC00
1FFF00
1C0F80
1C03C0
1C01C0
1801C0
3801C0
3801C0
3801C0
3801C0
300180
700380
700380
700700
700E00
601E00
E03C00
FFF000
FFC000
ENDCHAR
STARTCHAR E
ENCODING 69
SWIDTH 547 0
DWIDTH 14 0
BBX 14 19 3 0
BITMAP
0FFC
1FFC
1C00
1C00
1800
1800
3800
3800
3FE0
3FE0
3000
7000
7000
7000
6000
6000
E000
FFE0
FFE0
ENDCHAR
STARTCHAR F
ENCODING 70
SWIDTH 536 0
DWIDTH 14 0
BBX 14 19 3 0
BITMAP
0FFC
1FFC
1C00
1C00
1800
1800
3800
3800
3FE0
3FE0
3000
7000
7000
7000
7000
6000
E000
E000
E000
ENDCHAR
STARTCHAR G
ENCODING 71
SWIDTH 702 0
DWIDTH 18 0
BBX 17 19 3 0
BITMAP
00FF00
03FF80
0F8180
1E0000
3C0000
380000
700000
700000
600000
E00000
E00000
E00600
E00E00
E00E00
E00E00
700C00
781C00
3FFC00
0FE000
ENDCHAR
STARTCHAR H
ENCODING 72
SWIDTH 735 0
DWIDTH 19 0
BBX 18 19 2 0
BITMAP
0C01C0
1C01C0
1C01C0
1C0180
180380
180380
380380
380380
3FFF00
3FFF00
300700
700700
700700
700600
700E00
600E00
E00E00
E00E00
E00C00
ENDCHAR
STARTCHAR I
ENCODING 73
SWIDTH 289 0
DWIDTH 8 0
BBX 6 19 3 0
BITMAP
1C
1C
1C
18
18
38
38
38
38
30
70
70
70
70
60
60
E0
E0
E0
ENDCHAR
STARTCHAR J
ENCODING 74
SWIDTH 408 0
DWIDTH 11 0
BBX 13 23 0 -4
BITMAP
0038
0038
0030
0030
0070
0070
0070
0060
0060
00E0
00E0
00E0
00C0
00C0
01C0
01C0
01C0
0180
0380
0380
8700
FE00
FC00
ENDCHAR
STARTCHAR K
ENCODING 75
SWIDTH 635 0
DWIDTH 17 0
BBX 16 19 3 0
BITMAP
0C07
1C0E
1C1C
1C38
1870
18E0
39C0
3B80
3F00
3600
3300
7300
7180
71C0
70C0
6060
E070
E030
E018
ENDCHAR
STARTCHAR L
ENCODING 76
SWIDTH 545 0
DWIDTH 14 0
BBX 12 19 2 0
BITMAP
0C00
0C00
1C00
1C00
1C00
1800
1800
3800
3800
3800
3000
3000
7000
7000
7000
6000
6000
FFF0
FFF0
ENDCHAR
STARTCHAR M
ENCODING 77
SWIDTH 828 0
DWIDTH 22 0
BBX 20 19 3 0
BITMAP
0E00F0
1E00F0
1F01F0
1F01E0
1F0360
1B03E0
3B06E0
3306E0
338CC0
339CC0
3398C0
73B9C0
71B1C0
61E180
61E180
61C180
E1C380
E00380
C00300
ENDCHAR
STARTCHAR N
ENCODING 78
SWIDTH 741 0
DWIDTH 19 0
BBX 18 19 3 0
BITMAP
0C00C0
1E01C0
1E01C0
1F0180
1F0180
1B8180
3B8380
39C380
31C300
30C300
30E300
70E700
707700
607600
603E00
603E00
E01E00
E01E00
C01C00
ENDCHAR
STARTCHAR O
ENCODING 79
SWIDTH 777 0
DWIDTH 20 0
BBX 18 19 3 0
BITMAP
00FC00
03FF00
078780
0E03C0
1C01C0
3801C0
7001C0
7001C0
6001C0
E001C0
E001C0
E00180
E00380
E00700
E00700
701E00
783C00
3FF000
0FC000
ENDCHAR
STARTCHAR P
ENCODING 80
SWIDTH 575 0
DWIDTH 15 0
BBX 14 19 3 0
BITMAP
0FF0
1FF8
1C1C
1C1C
181C
181C
3818
3838
38F0
3FE0
3F00
7000
7000
7000
6000
6000
E000
E000
E000
ENDCHAR
STARTCHAR Q
ENCODING 81
SWIDTH 777 0
DWIDTH 20 0
BBX 18 24 3 -5
BITMAP
00FC00
03FF00
078780
0E03C0
1C01C0
3801C0
7001C0
7001C0
6001C0
E001C0
E001C0
E001C0
E00380
E00700
E00700
701E00
783C00
3FF800
0FE000
003800
001E00
000FC0
000780
000100
ENDCHAR
STARTCHAR R
ENCODING 82
SWIDTH 632 0
DWIDTH 16 0
BBX 14 19 3 0
BITMAP
0FF0
1FFC
1C1C
1C1C
181C
181C
3818
3838
3860
3FC0
3F80
71C0
71C0
70E0
70E0
6070
E070
E038
E038
ENDCHAR
STARTCHAR S
ENCODING 83
SWIDTH 553 0
DWIDTH 14 0
BBX 15 19 2 0
BITMAP
01F8
07FE
0E04
1C00
1C00
1C00
1C00
0F00
0780
03C0
01E0
00F0
0070
0030
0030
0070
C0E0
FFC0
7F00
ENDCHAR
STARTCHAR T
ENCODING 84
SWIDTH 623 0
DWIDTH 16 0
BBX 16 19 4 0
BITMAP
FFFF
FFFF
0380
0380
0380
0300
0300
0700
0700
0700
0700
0600
0E00
0E00
0E00
0E00
0C00
0C00
1C00
ENDCHAR
STARTCHAR U
ENCODING 85
SWIDTH 693 0
DWIDTH 18 0
BBX 16 19 3 0
BITMAP
3803
3807
3807
3806
3006
7006
700E
700E
700C
600C
E00C
E01C
E018
E018
E038
E030
7070
7FE0
1F80
ENDCHAR
STARTCHAR V
ENCODING 86
SWIDTH 687 0
DWIDTH 18 0
BBX 17 19 4 0
BITMAP
E00380
E00300
E00700
600E00
700C00
701C00
701800
703800
303000
387000
38E000
38C000
39C000
198000
1F8000
1F0000
1F0000
1E0000
1E0000
ENDCHAR
STARTCHAR W
ENCODING 87
SWIDTH 886 0
DWIDTH 23 0
BBX 22 19 4 0
BITMAP
E0301C
E07018
E07038
E0F030
E0F030
E1F860
E1B860
E1B8C0
E338C0
E339C0
663980
663B80
6E3B00
6C3F00
7C3E00
783E00
783C00
703C00
703800
ENDCHAR
STARTCHAR X
ENCODING 88
SWIDTH 620 0
DWIDTH 16 0
BBX 19 19 0 0
BITMAP
0E00E0
0701C0
070380
038700
038E00
01DC00
01D800
00F800
00F000
00F000
01F000
03F000
033800
063800
0E1C00
1C1C00
380E00
700E00
E00700
ENDCHAR
STARTCHAR Y
ENCODING 89
SWIDTH 608 0
DWIDTH 16 0
BBX 15 19 4 0
BITMAP
E00E
601C
7038
7030
3860
38E0
1DC0
1D80
0F00
0F00
0E00
0E00
0E00
0C00
0C00
1C00
1C00
1C00
1800
ENDCHAR
STARTCHAR Z
ENCODING 90
SWIDTH 578 0
DWIDTH 15 0
BBX 17 19 1 0
BITMAP
0FFF80
0FFF80
000700
000E00
001C00
003C00
007800
007000
00E000
01C000
038000
070000
0F0000
1E0000
3C0000
380000
700000
FFFC00
FFFC00
ENDCHAR
STARTCHAR bracketleft
ENCODING 91
SWIDTH 325 0
DWIDTH 8 0
BBX 10 23 1 -4
BITMAP
07C0
0FC0
0E00
0C00
0C00
0C00
1C00
1C00
1800
1800
1800
3800
3000
3000
3000
3000
7000
6000
6000
6000
6000
FC00
F800
ENDCHAR
STARTCHAR backslash
ENCODING 92
SWIDTH 482 0
DWIDTH 13 0
BBX 7 23 4 -4
BITMAP
C0
C0
40
60
60
60
60
30
30
30
30
10
18
18
18
18
0C
0C
0C
0C
04
06
06
ENDCHAR
STARTCHAR bracketright
ENCODING 93
SWIDTH 325 0
DWIDTH 8 0
BBX 10 23 0 -4
BITMAP
07C0
0FC0
0180
0180
0180
0180
0380
0300
0300
0300
0300
0700
0600
0600
0600
0E00
0E00
0C00
0C00
0C00
1C00
F800
F800
ENDCHAR
STARTCHAR asciicircum
ENCODING 94
SWIDTH 633 0
DWIDTH 16 0
BBX 15 16 1 3
BITMAP
0020
0060
0060
00E0
01F0
01B0
0330
0718
0618
0E18
0C18
180C
380C
300C
6006
E006
ENDCHAR
STARTCHAR underscore
ENCODING 95
SWIDTH 500 0
DWIDTH 13 0
BBX 11 2 1 -2
BITMAP
FFE0
FFE0
ENDCHAR
STARTCHAR grave
ENCODING 96
SWIDTH 572 0
DWIDTH 15 0
BBX 5 4 8 15
BITMAP
E0
70
30
18
ENDCHAR
STARTCHAR a
ENCODING 97
SWIDTH 608 0
DWIDTH 16 0
BBX 14 14 2 0
BITMAP
01FC
07FC
0E1C
1C18
3818
7038
7078
6078
E0F0
E1F0
E3F0
E770
FE70
7860
ENDCHAR
STARTCHAR b
ENCODING 98
SWIDTH 608 0
DWIDTH 16 0
BBX 14 19 2 0
BITMAP
0E00
0C00
0C00
1C00
1C00
1878
19FC
3B9C
3F1C
361C
3C1C
3818
7838
7038
6070
60E0
61C0
FF80
FE00
ENDCHAR
STARTCHAR c
ENCODING 99
SWIDTH 503 0
DWIDTH 13 0
BBX 12 14 2 0
BITMAP
03F0
0FF0
1C10
3800
7000
6000
E000
E000
E000
E000
E040
E1C0
7FC0
3E00
ENDCHAR
STARTCHAR d
ENCODING 100
SWIDTH 608 0
DWIDTH 16 0
BBX 15 19 2 0
BITMAP
000E
000E
000C
000C
001C
01FC
07FC
0E18
1C18
3838
7038
7078
60F0
E0F0
E1F0
E3F0
E770
FE60
7860
ENDCHAR
STARTCHAR e
ENCODING 101
SWIDTH 529 0
DWIDTH 14 0
BBX 11 14 2 0
BITMAP
03C0
0FE0
1C60
3060
7060
60C0
E780
FF00
F000
E000
E020
E0E0
7FC0
3F00
ENDCHAR
STARTCHAR f
ENCODING 102
SWIDTH 383 0
DWIDTH 10 0
BBX 13 25 2 -5
BITMAP
00F8
03F8
0788
0600
0E00
0C00
7FC0
7FC0
1C00
1C00
1800
1800
1800
3800
3800
3000
3000
3000
7000
7000
6000
6000
6000
E000
E000
ENDCHAR
STARTCHAR g
ENCODING 103
SWIDTH 608 0
DWIDTH 16 0
BBX 15 19 1 -5
BITMAP
00FE
03FE
070C
0E0C
1C0C
381C
381C
3038
7078
70D8
71B8
73B8
3F30
3C30
0070
0060
C0E0
FFC0
7F00
ENDCHAR
STARTCHAR h
ENCODING 104
SWIDTH 620 0
DWIDTH 16 0
BBX 13 19 3 0
BITMAP
0C00
0C00
1C00
1C00
1800
1870
19F8
3BB8
3F38
3E38
3C38
3C30
7830
7070
6070
6070
6060
E060
E0E0
ENDCHAR
STARTCHAR i
ENCODING 105
SWIDTH 289 0
DWIDTH 8 0
BBX 6 19 3 0
BITMAP
1C
1C
00
00
00
18
38
38
30
30
30
70
70
60
60
60
E0
E0
E0
ENDCHAR
STARTCHAR j
ENCODING 106
SWIDTH 325 0
DWIDTH 8 0
BBX 13 24 -2 -5
BITMAP
0038
0038
0000
0000
0000
0070
0070
0060
0060
00E0
00E0
00E0
00C0
00C0
01C0
01C0
01C0
0180
0180
0380
0300
8600
FE00
F800
ENDCHAR
STARTCHAR k
ENCODING 107
SWIDTH 572 0
DWIDTH 15 0
BBX 14 19 2 0
BITMAP
0E00
0C00
0C00
1C00
1C00
183C
1870
18E0
39C0
3B80
3700
3E00
7700
7380
6380
61C0
60E0
E060
E070
ENDCHAR
STARTCHAR l
ENCODING 108
SWIDTH 289 0
DWIDTH 8 0
BBX 7 19 2 0
BITMAP
0E
0E
0C
0C
1C
1C
18
18
38
38
38
30
30
70
70
60
60
E0
E0
ENDCHAR
STARTCHAR m
ENCODING 109
SWIDTH 934 0
DWIDTH 24 0
BBX 22 14 2 0
BITMAP
187838
19F8FC
1B99DC
3F1B9C
361F1C
3C3E1C
3C3C18
383818
703838
603038
607030
607030
606030
C06070
ENDCHAR
STARTCHAR n
ENCODING 110
SWIDTH 620 0
DWIDTH 16 0
BBX 13 14 3 0
BITMAP
1870
39F8
3BB8
3738
3E38
3C38
7830
7830
7070
6070
6070
E060
E060
E0E0
ENDCHAR
STARTCHAR o
ENCODING 111
SWIDTH 566 0
DWIDTH 15 0
BBX 13 14 2 0
BITMAP
03C0
0FF0
1C30
3838
7038
6038
E038
E030
E070
E070
E0E0
E1C0
7F80
3E00
ENDCHAR
STARTCHAR p
ENCODING 112
SWIDTH 608 0
DWIDTH 16 0
BBX 15 19 1 -5
BITMAP
0C3C
1CFE
1DCE
1F8E
1F0E
1E0E
3C0C
3C1C
381C
3038
3070
70E0
7FC0
7F00
6000
6000
E000
E000
E000
ENDCHAR
STARTCHAR q
ENCODING 113
SWIDTH 608 0
DWIDTH 16 0
BBX 14 19 2 -5
BITMAP
01FC
07FC
0E18
1C18
3818
7038
7078
6070
E0F0
E1B0
E3F0
E770
FE60
7860
0060
00E0
00E0
00C0
00C0
ENDCHAR
STARTCHAR r
ENCODING 114
SWIDTH 478 0
DWIDTH 12 0
BBX 12 14 2 0
BITMAP
1870
18F0
3BA0
3B00
3600
3C00
3C00
7800
7000
6000
6000
6000
E000
E000
ENDCHAR
STARTCHAR s
ENCODING 115
SWIDTH 489 0
DWIDTH 13 0
BBX 11 14 2 0
BITMAP
07C0
1FE0
1C60
3800
1800
1C00
0E00
0700
0380
0180
0180
C380
FF80
7E00
ENDCHAR
STARTCHAR t
ENCODING 116
SWIDTH 383 0
DWIDTH 10 0
BBX 8 17 3 0
BITMAP
18
18
18
FF
FF
38
30
30
70
70
70
60
60
E0
60
7C
38
ENDCHAR
STARTCHAR u
ENCODING 117
SWIDTH 620 0
DWIDTH 16 0
BBX 13 14 3 0
BITMAP
3038
3038
3038
3030
6030
6070
60F0
60F0
61E0
E3E0
E760
EEE0
FCE0
70C0
ENDCHAR
STARTCHAR v
ENCODING 118
SWIDTH 545 0
DWIDTH 14 0
BBX 13 14 3 0
BITMAP
C038
E030
E060
E0E0
60C0
61C0
6180
6300
6700
7600
7C00
7C00
3800
3800
ENDCHAR
STARTCHAR w
ENCODING 119
SWIDTH 795 0
DWIDTH 20 0
BBX 19 14 3 0
BITMAP
C0E0E0
E0E0C0
E1E1C0
E1E180
E36380
E36300
666700
666600
6C6E00
6C6C00
7C7C00
787800
787800
707000
ENDCHAR
STARTCHAR x
ENCODING 120
SWIDTH 541 0
DWIDTH 14 0
BBX 15 14 1 0
BITMAP
1C0E
0E1C
0E38
0670
0760
03C0
0380
0380
07C0
0EC0
1CE0
3860
7070
E038
ENDCHAR
STARTCHAR y
ENCODING 121
SWIDTH 548 0
DWIDTH 14 0
BBX 14 19 3 -5
BITMAP
601C
7018
7030
7030
3060
30E0
30C0
3980
3980
3B00
1F00
1E00
1C00
1C00
1800
3800
3000
6000
E000
ENDCHAR
STARTCHAR z
ENCODING 122
SWIDTH 536 0
DWIDTH 14 0
BBX 13 14 2 0
BITMAP
1FF8
1FF8
0070
00E0
01C0
0380
0780
0F00
0E00
1C00
3800
7000
FFE0
FFE0
ENDCHAR
STARTCHAR braceleft
ENCODING 123
SWIDTH 325 0
DWIDTH 8 0
BBX 9 23 2 -4
BITMAP
0380
0780
0E00
0C00
0C00
0C00
0C00
1C00
1C00
3800
F000
E000
3000
3000
3000
3000
7000
6000
6000
C000
E000
7800
3000
ENDCHAR
STARTCHAR bar
ENCODING 124
SWIDTH 233 0
DWIDTH 6 0
BBX 7 23 1 -4
BITMAP
06
06
04
0C
0C
0C
0C
18
18
18
18
10
30
30
30
30
60
60
60
60
40
C0
C0
ENDCHAR
STARTCHAR braceright
ENCODING 125
SWIDTH 325 0
DWIDTH 8 0
BBX 9 23 1 -4
BITMAP
0600
0F00
0380
0380
0300
0300
0600
0600
0600
0600
0380
0780
0E00
0C00
1800
1800
1800
1800
1800
3800
F000
F000
C000
ENDCHAR
STARTCHAR asciitilde
ENCODING 126
SWIDTH 633 0
DWIDTH 16 0
BBX 16 6 2 5
BITMAP
1C03
3F03
6386
61C6
C0FC
C038
ENDCHAR
STARTCHAR space
ENCODING 160
SWIDTH 316 0
DWIDTH 8 0
BBX 1 1 0 0
BITMAP
00
ENDCHAR
STARTCHAR exclamdown
ENCODING 161
SWIDTH 193 0
DWIDTH 8 0
BBX 6 19 2 -5
BITMAP
1C
1C
00
00
00
18
18
30
30
30
30
30
70
60
60
60
E0
E0
E0
ENDCHAR
STARTCHAR cent
ENCODING 162
SWIDTH 633 0
DWIDTH 16 0
BBX 12 19 4 0
BITMAP
0080
0080
01F0
07F0
1F10
3900
3100
7300
6200
E200
E200
E600
E400
E440
F4C0
7FC0
3F00
0800
0800
ENDCHAR
STARTCHAR sterling
ENCODING 163
SWIDTH 633 0
DWIDTH 16 0
BBX 14 19 3 0
BITMAP
00FC
01FC
0384
0300
0700
0600
0600
0E00
3F80
3F80
0C00
0C00
0C00
1C00
1800
3800
7000
FFE0
FFC0
ENDCHAR
STARTCHAR currency
ENCODING 164
SWIDTH 633 0
DWIDTH 16 0
BBX 18 17 1 1
BITMAP
080080
1801C0
1DF380
0FFF00
071E00
060C00
0C0600
0C0600
080400
180C00
180C00
0C1800
0E3800
1FFC00
73EE00
E00600
400400
ENDCHAR
STARTCHAR yen
ENCODING 165
SWIDTH 633 0
DWIDTH 16 0
BBX 15 19 4 0
BITMAP
E00E
701C
7018
3830
3860
18E0
1CC0
0D80
0F00
0F00
7FE0
7FC0
0E00
FFC0
FFC0
0C00
1C00
1C00
1800
ENDCHAR
STARTCHAR brokenbar
ENCODING 166
SWIDTH 233 0
DWIDTH 6 0
BBX 7 23 1 -4
BITMAP
06
06
04
0C
0C
0C
0C
18
18
00
00
00
00
00
30
30
60
60
60
60
40
C0
C0
ENDCHAR
STARTCHAR section
ENCODING 167
SWIDTH 633 0
DWIDTH 16 0
BBX 14 24 2 -5
BITMAP
01FC
07FC
0E0C
1C00
1C00
1C00
0E00
0F00
0FC0
19F0
3870
3030
3030
3C30
1E70
0FE0
03E0
00E0
0070
0060
0060
C0E0
FFC0
7F00
ENDCHAR
STARTCHAR dieresis
ENCODING 168
SWIDTH 566 0
DWIDTH 15 0
BBX 8 2 7 17
BITMAP
E3
C7
ENDCHAR
STARTCHAR copyright
ENCODING 169
SWIDTH 858 0
DWIDTH 22 0
BBX 20 19 3 0
BITMAP
01F800
0FFE00
1E0780
3801C0
607CC0
61FE60
C38420
C70030
860030
840030
8C0030
CE0030
C60820
67F860
61F0C0
3801C0
1E0780
0FFE00
01F800
ENDCHAR
STARTCHAR ordfeminine
ENCODING 170
SWIDTH 392 0
DWIDTH 10 0
BBX 10 10 3 9
BITMAP
0E00
1FC0
31C0
6180
6380
C780
C580
DB80
F300
6700
ENDCHAR
STARTCHAR guillemotleft
ENCODING 171
SWIDTH 527 0
DWIDTH 14 0
BBX 12 12 3 1
BITMAP
0420
0E70
1CE0
39C0
7380
E700
E700
6300
3380
3180
18C0
1080
ENDCHAR
STARTCHAR logicalnot
ENCODING 172
SWIDTH 633 0
DWIDTH 16 0
BBX 15 7 3 4
BITMAP
FFFE
FFFE
0006
0004
000C
000C
000C
ENDCHAR
STARTCHAR hyphen
ENCODING 173
SWIDTH 313 0
DWIDTH 8 0
BBX 6 2 3 8
BITMAP
FC
FC
ENDCHAR
STARTCHAR registered
ENCODING 174
SWIDTH 633 0
DWIDTH 16 0
BBX 12 12 5 7
BITMAP
1F00
3FC0
70E0
CF60
C920
8F30
8E30
CA20
DB60
70E0
3FC0
1F00
ENDCHAR
STARTCHAR macron
ENCODING 175
SWIDTH 566 0
DWIDTH 15 0
BBX 8 2 7 17
BITMAP
FF
FF
ENDCHAR
STARTCHAR degree
ENCODING 176
SWIDTH 269 0
DWIDTH 7 0
BBX 4 5 5 14
BITMAP
70
90
90
90
70
ENDCHAR
STARTCHAR plusminus
ENCODING 177
SWIDTH 633 0
DWIDTH 16 0
BBX 17 16 1 0
BITMAP
006000
006000
006000
006000
006000
3FFF80
3FFF80
00C000
00C000
00C000
008000
018000
000000
000000
FFFE00
FFFE00
ENDCHAR
STARTCHAR twosuperior
ENCODING 178
SWIDTH 392 0
DWIDTH 10 0
BBX 9 11 -14 8
BITMAP
1F00
3F80
2180
0180
0300
0600
1C00
3000
6000
FE00
FE00
ENDCHAR
STARTCHAR threesuperior
ENCODING 179
SWIDTH 392 0
DWIDTH 10 0
BBX 8 11 -14 8
BITMAP
3E
3F
03
03
3C
3C
06
02
86
FE
F8
ENDCHAR
STARTCHAR acute
ENCODING 180
SWIDTH 566 0
DWIDTH 15 0
BBX 6 4 9 15
BITMAP
1C
30
60
C0
ENDCHAR
STARTCHAR mu
ENCODING 181
SWIDTH 627 0
DWIDTH 16 0
BBX 15 18 2 -4
BITMAP
1C0E
1C0E
1C0C
180C
180C
381C
381C
3838
3078
30D8
70F8
73B8
7F30
7E30
6000
E000
E000
E000
ENDCHAR
STARTCHAR paragraph
ENCODING 182
SWIDTH 633 0
DWIDTH 16 0
BBX 12 23 4 -4
BITMAP
3FF0
7FF0
FF20
FF20
FF20
FE60
FE60
7E40
3E40
0E40
04C0
0CC0
0C80
0C80
0880
0980
1980
1900
1900
1100
1300
3300
3200
ENDCHAR
STARTCHAR periodcentered
ENCODING 183
SWIDTH 316 0
DWIDTH 16 0
BBX 4 3 8 7
BITMAP
70
F0
E0
ENDCHAR
STARTCHAR cedilla
ENCODING 184
SWIDTH 566 0
DWIDTH 15 0
BBX 4 6 5 -5
BITMAP
20
60
30
30
30
E0
ENDCHAR
STARTCHAR onesuperior
ENCODING 185
SWIDTH 392 0
DWIDTH 10 0
BBX 4 11 -17 8
BITMAP
F0
F0
20
20
20
60
60
40
40
C0
C0
ENDCHAR
STARTCHAR ordmasculine
ENCODING 186
SWIDTH 392 0
DWIDTH 10 0
BBX 10 10 3 9
BITMAP
0780
1FC0
39C0
70C0
60C0
C1C0
C180
E700
FE00
7C00
ENDCHAR
STARTCHAR guillemotright
ENCODING 187
SWIDTH 527 0
DWIDTH 14 0
BBX 12 12 2 1
BITMAP
1080
3180
18C0
1CE0
0C60
0E70
0E70
1CE0
39C0
7380
E700
4200
ENDCHAR
STARTCHAR onequarter
ENCODING 188
SWIDTH 865 0
DWIDTH 23 0
BBX 20 19 11 0
BITMAP
780070
7800E0
1001C0
100380
100700
300E00
301C00
201800
203060
6060E0
60C1C0
018340
0386C0
070CC0
0E1FE0
1C1FE0
380080
700180
E00180
ENDCHAR
STARTCHAR onehalf
ENCODING 189
SWIDTH 865 0
DWIDTH 23 0
BBX 20 19 11 0
BITMAP
780070
7800E0
1001C0
100380
100700
300E00
301C00
201800
2033E0
6067F0
60C430
018030
038060
0700C0
0E0380
1C0600
380C00
701FC0
E01FC0
ENDCHAR
STARTCHAR threequarters
ENCODING 190
SWIDTH 865 0
DWIDTH 23 0
BBX 21 19 12 0
BITMAP
3E0038
3F0070
0300E0
0301C0
3C0380
3C0700
060E00
020C00
861830
FE3070
F860E0
00C1A0
01C360
038660
070FF0
0E0FF0
1C0040
3800C0
7000C0
ENDCHAR
STARTCHAR questiondown
ENCODING 191
SWIDTH 464 0
DWIDTH 12 0
BBX 10 19 1 -5
BITMAP
00C0
01C0
0000
0000
0000
0180
0380
0300
0700
0E00
1C00
3800
7000
E000
E000
E000
F040
7FC0
3F80
ENDCHAR
STARTCHAR Agrave
ENCODING 192
SWIDTH 687 0
DWIDTH 18 0
BBX 17 24 1 0
BITMAP
007000
003800
001800
000C00
000000
003800
003C00
007C00
007C00
00EC00
00CC00
01CE00
038E00
030E00
070600
060600
0E0700
0FFF00
1FFF00
180700
380300
700380
600380
E00380
ENDCHAR
STARTCHAR Aacute
ENCODING 193
SWIDTH 687 0
DWIDTH 18 0
BBX 17 24 1 0
BITMAP
000700
000C00
001800
003000
000000
003800
003C00
007C00
007C00
00EC00
00CC00
01CE00
038E00
030E00
070600
060600
0E0700
0FFF00
1FFF00
180700
380300
700380
600380
E00380
ENDCHAR
STARTCHAR Acircumflex
ENCODING 194
SWIDTH 687 0
DWIDTH 18 0
BBX 17 24 1 0
BITMAP
001E00
003E00
007600
00E300
000000
003800
003C00
007C00
007C00
00EC00
00CC00
01CE00
038E00
030E00
070600
060600
0E0700
0FFF00
1FFF00
180700
380300
700380
600380
E00380
ENDCHAR
STARTCHAR Atilde
ENCODING 195
SWIDTH 687 0
DWIDTH 18 0
BBX 17 22 1 0
BITMAP
007B00
00DE00
000000
003800
003C00
007C00
007C00
00EC00
00CC00
01CE00
038E00
030E00
070600
060600
0E0700
0FFF00
1FFF00
180700
380300
700380
600380
E00380
ENDCHAR
STARTCHAR Adieresis
ENCODING 196
SWIDTH 687 0
DWIDTH 18 0
BBX 17 22 1 0
BITMAP
00E300
00C700
000000
003800
003C00
007C00
007C00
00EC00
00CC00
01CE00
038E00
030E00
070600
060600
0E0700
0FFF00
1FFF00
180700
380300
700380
600380
E00380
ENDCHAR
STARTCHAR Aring
ENCODING 197
SWIDTH 687 0
DWIDTH 18 0
BBX 17 24 1 0
BITMAP
001800
002400
002400
001800
000000
003800
003C00
007C00
007C00
00EC00
00CC00
01CE00
038E00
030E00
070600
060600
0E0700
0FFF00
1FFF00
180700
380300
700380
600380
E00380
ENDCHAR
STARTCHAR AE
ENCODING 198
SWIDTH 893 0
DWIDTH 23 0
BBX 26 19 0 0
BITMAP
0003FFC0
0007FFC0
0007C000
000F8000
001F8000
003B8000
00338000
00738000
00E3FE00
01C7FE00
01870000
03070000
07FF0000
0FFE0000
1C0E0000
180E0000
380E0000
700FFE00
E00FFE00
ENDCHAR
STARTCHAR Ccedilla
ENCODING 199
SWIDTH 679 0
DWIDTH 18 0
BBX 17 24 3 -5
BITMAP
00FF00
03FF80
0F8180
1E0000
3C0000
380000
700000
700000
700000
E00000
E00000
E00000
E00000
E00000
E00000
700400
781C00
3FFC00
0FE000
060000
030000
030000
030000
0E0000
ENDCHAR
STARTCHAR Egrave
ENCODING 200
SWIDTH 547 0
DWIDTH 14 0
BBX 14 24 3 0
BITMAP
0380
01C0
00C0
0060
0000
0FFC
1FFC
1C00
1C00
1800
1800
3800
3800
3FE0
3FE0
3000
7000
7000
7000
6000
6000
E000
FFE0
FFE0
ENDCHAR
STARTCHAR Eacute
ENCODING 201
SWIDTH 547 0
DWIDTH 14 0
BBX 14 24 3 0
BITMAP
0038
0060
00C0
0180
0000
0FFC
1FFC
1C00
1C00
1800
1800
3800
3800
3FE0
3FE0
3000
7000
7000
7000
6000
6000
E000
FFE0
FFE0
ENDCHAR
STARTCHAR Ecircumflex
ENCODING 202
SWIDTH 547 0
DWIDTH 14 0
BBX 14 24 3 0
BITMAP
01E0
03E0
0760
0E30
0000
0FFC
1FFC
1C00
1C00
1800
1800
3800
3800
3FE0
3FE0
3000
7000
7000
7000
6000
6000
E000
FFE0
FFE0
ENDCHAR
STARTCHAR Edieresis
ENCODING 203
SWIDTH 547 0
DWIDTH 14 0
BBX 14 22 3 0
BITMAP
0E30
0C70
0000
0FFC
1FFC
1C00
1C00
1800
1800
3800
3800
3FE0
3FE0
3000
7000
7000
7000
6000
6000
E000
FFE0
FFE0
ENDCHAR
STARTCHAR Igrave
ENCODING 204
SWIDTH 289 0
DWIDTH 8 0
BBX 7 24 3 0
BITMAP
38
1C
0C
06
00
1C
1C
1C
18
18
38
38
38
38
30
70
70
70
70
60
60
E0
E0
E0
ENDCHAR
STARTCHAR Iacute
ENCODING 205
SWIDTH 289 0
DWIDTH 8 0
BBX 9 24 3 0
BITMAP
0380
0600
0C00
1800
0000
1C00
1C00
1C00
1800
1800
3800
3800
3800
3800
3000
7000
7000
7000
7000
6000
6000
E000
E000
E000
ENDCHAR
STARTCHAR Icircumflex
ENCODING 206
SWIDTH 289 0
DWIDTH 8 0
BBX 9 24 3 0
BITMAP
0F00
1F00
3B00
7180
0000
1C00
1C00
1C00
1800
1800
3800
3800
3800
3800
3000
7000
7000
7000
7000
6000
6000
E000
E000
E000
ENDCHAR
STARTCHAR Idieresis
ENCODING 207
SWIDTH 289 0
DWIDTH 8 0
BBX 9 22 3 0
BITMAP
7180
6380
0000
1C00
1C00
1C00
1800
1800
3800
3800
3800
3800
3000
7000
7000
7000
7000
6000
6000
E000
E000
E000
ENDCHAR
STARTCHAR Eth
ENCODING 208
SWIDTH 743 0
DWIDTH 19 0
BBX 19 19 1 0
BITMAP
07FE00
0FFF80
0E07C0
0E01E0
0E00E0
0C00E0
1C00E0
1C00E0
FFC0E0
FFC0E0
1800C0
1801C0
3801C0
380380
380700
300700
301E00
7FF800
7FE000
ENDCHAR
STARTCHAR Ntilde
ENCODING 209
SWIDTH 741 0
DWIDTH 19 0
BBX 18 22 3 0
BITMAP
00F600
01BC00
000000
0C00C0
1E01C0
1E01C0
1F0180
1F0180
1B8180
3B8380
39C380
31C300
30C300
30E300
70E700
707700
607600
603E00
603E00
E01E00
E01E00
C01C00
ENDCHAR
STARTCHAR Ograve
ENCODING 210
SWIDTH 777 0
DWIDTH 20 0
BBX 18 24 3 0
BITMAP
00E000
007000
003000
001800
000000
00FC00
03FF00
078780
0E03C0
1C01C0
3801C0
7001C0
7001C0
6001C0
E001C0
E001C0
E00180
E00380
E00700
E00700
701E00
783C00
3FF000
0FC000
ENDCHAR
STARTCHAR Oacute
ENCODING 211
SWIDTH 777 0
DWIDTH 20 0
BBX 18 24 3 0
BITMAP
000E00
001800
003000
006000
000000
00FC00
03FF00
078780
0E03C0
1C01C0
3801C0
7001C0
7001C0
6001C0
E001C0
E001C0
E00180
E00380
E00700
E00700
701E00
783C00
3FF000
0FC000
ENDCHAR
STARTCHAR Ocircumflex
ENCODING 212
SWIDTH 777 0
DWIDTH 20 0
BBX 18 24 3 0
BITMAP
003C00
007C00
00EC00
01C600
000000
00FC00
03FF00
078780
0E03C0
1C01C0
3801C0
7001C0
7001C0
6001C0
E001C0
E001C0
E00180
E00380
E00700
E00700
701E00
783C00
3FF000
0FC000
ENDCHAR
STARTCHAR Otilde
ENCODING 213
SWIDTH 777 0
DWIDTH 20 0
BBX 18 22 3 0
BITMAP
00F600
01BC00
000000
00FC00
03FF00
078780
0E03C0
1C01C0
3801C0
7001C0
7001C0
6001C0
E001C0
E001C0
E00180
E00380
E00700
E00700
701E00
783C00
3FF000
0FC000
ENDCHAR
STARTCHAR Odieresis
ENCODING 214
SWIDTH 777 0
DWIDTH 20 0
BBX 18 22 3 0
BITMAP
01C600
018E00
000000
00FC00
03FF00
078780
0E03C0
1C01C0
3801C0
7001C0
7001C0
6001C0
E001C0
E001C0
E00180
E00380
E00700
E00700
701E00
783C00
3FF000
0FC000
ENDCHAR
STARTCHAR multiply
ENCODING 215
SWIDTH 633 0
DWIDTH 16 0
BBX 17 16 1 0
BITMAP
300100
180380
1C0700
0C0E00
061C00
033800
03F000
01C000
01C000
07E000
0E7000
1C3000
381800
701C00
E00E00
400400
ENDCHAR
STARTCHAR Oslash
ENCODING 216
SWIDTH 777 0
DWIDTH 20 0
BBX 22 19 5 0
BITMAP
003F1C
00FFF0
01E1E0
0380F0
0701F0
0E0370
1C0670
1C0C70
181870
383070
386070
38C060
3980E0
3B01C0
3E01C0
1C0780
1E0F00
3FFC00
E3F000
ENDCHAR
STARTCHAR Ugrave
ENCODING 217
SWIDTH 693 0
DWIDTH 18 0
BBX 16 24 3 0
BITMAP
01C0
00E0
0060
0030
0000
3803
3807
3807
3806
3006
7006
700E
700E
700C
600C
E00C
E01C
E018
E018
E038
E030
7070
7FE0
1F80
ENDCHAR
STARTCHAR Uacute
ENCODING 218
SWIDTH 693 0
DWIDTH 18 0
BBX 16 24 3 0
BITMAP
001C
0030
0060
00C0
0000
3803
3807
3807
3806
3006
7006
700E
700E
700C
600C
E00C
E01C
E018
E018
E038
E030
7070
7FE0
1F80
ENDCHAR
STARTCHAR Ucircumflex
ENCODING 219
SWIDTH 693 0
DWIDTH 18 0
BBX 16 24 3 0
BITMAP
00F0
01F0
03B0
0718
0000
3803
3807
3807
3806
3006
7006
700E
700E
700C
600C
E00C
E01C
E018
E018
E038
E030
7070
7FE0
1F80
ENDCHAR
STARTCHAR Udieresis
ENCODING 220
SWIDTH 693 0
DWIDTH 18 0
BBX 16 22 3 0
BITMAP
038C
031C
0000
3803
3807
3807
3806
3006
7006
700E
700E
700C
600C
E00C
E01C
E018
E018
E038
E030
7070
7FE0
1F80
ENDCHAR
STARTCHAR Yacute
ENCODING 221
SWIDTH 608 0
DWIDTH 16 0
BBX 15 24 4 0
BITMAP
0070
00C0
0180
0300
0000
E00E
601C
7038
7030
3860
38E0
1DC0
1D80
0F00
0F00
0E00
0E00
0E00
0C00
0C00
1C00
1C00
1C00
1800
ENDCHAR
STARTCHAR Thorn
ENCODING 222
SWIDTH 575 0
DWIDTH 15 0
BBX 14 19 2 0
BITMAP
0E00
0C00
1C00
1C00
1FF0
1FF8
181C
381C
381C
381C
3038
3038
70F0
7FC0
7F00
6000
6000
E000
E000
ENDCHAR
STARTCHAR germandbls
ENCODING 223
SWIDTH 595 0
DWIDTH 15 0
BBX 14 25 2 -5
BITMAP
01F0
03F8
0718
0E18
0E18
0C30
0C60
0CC0
1D80
1D80
19C0
18E0
1870
3838
381C
300C
300C
321C
73F8
73E0
6000
6000
6000
E000
E000
ENDCHAR
STARTCHAR agrave
ENCODING 224
SWIDTH 608 0
DWIDTH 16 0
BBX 14 19 2 0
BITMAP
01C0
00E0
0060
0030
0000
01FC
07FC
0E1C
1C18
3818
7038
7078
6078
E0F0
E1F0
E3F0
E770
FE70
7860
ENDCHAR
STARTCHAR aacute
ENCODING 225
SWIDTH 608 0
DWIDTH 16 0
BBX 14 19 2 0
BITMAP
001C
0030
0060
00C0
0000
01FC
07FC
0E1C
1C18
3818
7038
7078
6078
E0F0
E1F0
E3F0
E770
FE70
7860
ENDCHAR
STARTCHAR acircumflex
ENCODING 226
SWIDTH 608 0
DWIDTH 16 0
BBX 14 19 2 0
BITMAP
00F0
01F0
03B0
0718
0000
01FC
07FC
0E1C
1C18
3818
7038
7078
6078
E0F0
E1F0
E3F0
E770
FE70
7860
ENDCHAR
STARTCHAR atilde
ENCODING 227
SWIDTH 608 0
DWIDTH 16 0
BBX 14 17 2 0
BITMAP
01EC
0378
0000
01FC
07FC
0E1C
1C18
3818
7038
7078
6078
E0F0
E1F0
E3F0
E770
FE70
7860
ENDCHAR
STARTCHAR adieresis
ENCODING 228
SWIDTH 608 0
DWIDTH 16 0
BBX 14 17 2 0
BITMAP
038C
031C
0000
01FC
07FC
0E1C
1C18
3818
7038
7078
6078
E0F0
E1F0
E3F0
E770
FE70
7860
ENDCHAR
STARTCHAR aring
ENCODING 229
SWIDTH 608 0
DWIDTH 16 0
BBX 14 19 2 0
BITMAP
0060
0090
0090
0060
0000
01FC
07FC
0E1C
1C18
3818
7038
7078
6078
E0F0
E1F0
E3F0
E770
FE70
7860
ENDCHAR
STARTCHAR ae
ENCODING 230
SWIDTH 893 0
DWIDTH 23 0
BBX 21 14 2 0
BITMAP
01FDF0
07FFF8
0E1E38
1C1C38
381830
703870
7079E0
60FF80
E0FC00
E1B000
E3B008
E73838
FE1FF0
780FC0
ENDCHAR
STARTCHAR ccedilla
ENCODING 231
SWIDTH 503 0
DWIDTH 13 0
BBX 12 19 2 -5
BITMAP
03F0
0FF0
1C10
3800
7000
6000
E000
E000
E000
E000
E040
E1C0
7FC0
3E00
1800
0C00
0C00
0C00
3800
ENDCHAR
STARTCHAR egrave
ENCODING 232
SWIDTH 529 0
DWIDTH 14 0
BBX 11 19 2 0
BITMAP
0380
01C0
00C0
0060
0000
03C0
0FE0
1C60
3060
7060
60C0
E780
FF00
F000
E000
E020
E0E0
7FC0
3F00
ENDCHAR
STARTCHAR eacute
ENCODING 233
SWIDTH 529 0
DWIDTH 14 0
BBX 13 19 2 0
BITMAP
0038
0060
00C0
0180
0000
03C0
0FE0
1C60
3060
7060
60C0
E780
FF00
F000
E000
E020
E0E0
7FC0
3F00
ENDCHAR
STARTCHAR ecircumflex
ENCODING 234
SWIDTH 529 0
DWIDTH 14 0
BBX 12 19 2 0
BITMAP
01E0
03E0
0760
0E30
0000
03C0
0FE0
1C60
3060
7060
60C0
E780
FF00
F000
E000
E020
E0E0
7FC0
3F00
ENDCHAR
STARTCHAR edieresis
ENCODING 235
SWIDTH 529 0
DWIDTH 14 0
BBX 12 17 2 0
BITMAP
0E30
0C70
0000
03C0
0FE0
1C60
3060
7060
60C0
E780
FF00
F000
E000
E020
E0E0
7FC0
3F00
ENDCHAR
STARTCHAR igrave
ENCODING 236
SWIDTH 289 0
DWIDTH 8 0
BBX 7 19 3 0
BITMAP
38
1C
0C
06
00
18
38
38
30
30
30
70
70
60
60
60
E0
E0
E0
ENDCHAR
STARTCHAR iacute
ENCODING 237
SWIDTH 289 0
DWIDTH 8 0
BBX 9 19 3 0
BITMAP
0380
0600
0C00
1800
0000
1800
3800
3800
3000
3000
3000
7000
7000
6000
6000
6000
E000
E000
E000
ENDCHAR
STARTCHAR icircumflex
ENCODING 238
SWIDTH 289 0
DWIDTH 8 0
BBX 9 19 3 0
BITMAP
0F00
1F00
3B00
7180
0000
1800
3800
3800
3000
3000
3000
7000
7000
6000
6000
6000
E000
E000
E000
ENDCHAR
STARTCHAR idieresis
ENCODING 239
SWIDTH 289 0
DWIDTH 8 0
BBX 9 17 3 0
BITMAP
7180
6380
0000
1800
3800
3800
3000
3000
3000
7000
7000
6000
6000
6000
E000
E000
E000
ENDCHAR
STARTCHAR eth
ENCODING 240
SWIDTH 556 0
DWIDTH 14 0
BBX 13 19 2 0
BITMAP
1FE0
1FF0
03C0
0FE0
0670
07F0
0FF0
1C78
3838
7038
6038
E030
E030
E030
E060
E0E0
F1C0
7F80
3E00
ENDCHAR
STARTCHAR ntilde
ENCODING 241
SWIDTH 620 0
DWIDTH 16 0
BBX 13 17 3 0
BITMAP
03D8
06F0
0000
1870
39F8
3BB8
3738
3E38
3C38
7830
7830
7070
6070
6070
E060
E060
E0E0
ENDCHAR
STARTCHAR ograve
ENCODING 242
SWIDTH 566 0
DWIDTH 15 0
BBX 13 19 2 0
BITMAP
0380
01C0
00C0
0060
0000
03C0
0FF0
1C30
3838
7038
6038
E038
E030
E070
E070
E0E0
E1C0
7F80
3E00
ENDCHAR
STARTCHAR oacute
ENCODING 243
SWIDTH 566 0
DWIDTH 15 0
BBX 13 19 2 0
BITMAP
0038
0060
00C0
0180
0000
03C0
0FF0
1C30
3838
7038
6038
E038
E030
E070
E070
E0E0
E1C0
7F80
3E00
ENDCHAR
STARTCHAR ocircumflex
ENCODING 244
SWIDTH 566 0
DWIDTH 15 0
BBX 13 19 2 0
BITMAP
00F0
01F0
03B0
0718
0000
03C0
0FF0
1C30
3838
7038
6038
E038
E030
E070
E070
E0E0
E1C0
7F80
3E00
ENDCHAR
STARTCHAR otilde
ENCODING 245
SWIDTH 566 0
DWIDTH 15 0
BBX 13 17 2 0
BITMAP
03D8
06F0
0000
03C0
0FF0
1C30
3838
7038
6038
E038
E030
E070
E070
E0E0
E1C0
7F80
3E00
ENDCHAR
STARTCHAR odieresis
ENCODING 246
SWIDTH 566 0
DWIDTH 15 0
BBX 13 17 2 0
BITMAP
0718
0638
0000
03C0
0FF0
1C30
3838
7038
6038
E038
E030
E070
E070
E0E0
E1C0
7F80
3E00
ENDCHAR
STARTCHAR divide
ENCODING 247
SWIDTH 633 0
DWIDTH 16 0
BBX 15 14 2 0
BITMAP
01C0
01C0
0000
0000
0000
0000
FFFE
FFFE
0000
0000
0000
0000
0700
0700
ENDCHAR
STARTCHAR oslash
ENCODING 248
SWIDTH 566 0
DWIDTH 15 0
BBX 15 14 3 0
BITMAP
01EE
07FC
0E38
1C7C
387C
30DC
719C
7318
7638
7C38
7C70
78E0
7FC0
FF00
ENDCHAR
STARTCHAR ugrave
ENCODING 249
SWIDTH 620 0
DWIDTH 16 0
BBX 13 19 3 0
BITMAP
0380
01C0
00C0
0060
0000
3038
3038
3038
3030
6030
6070
60F0
60F0
61E0
E3E0
E760
EEE0
FCE0
70C0
ENDCHAR
STARTCHAR uacute
ENCODING 250
SWIDTH 620 0
DWIDTH 16 0
BBX 13 19 3 0
BITMAP
0038
0060
00C0
0180
0000
3038
3038
3038
3030
6030
6070
60F0
60F0
61E0
E3E0
E760
EEE0
FCE0
70C0
ENDCHAR
STARTCHAR ucircumflex
ENCODING 251
SWIDTH 620 0
DWIDTH 16 0
BBX 13 19 3 0
BITMAP
01E0
03E0
0760
0E30
0000
3038
3038
3038
3030
6030
6070
60F0
60F0
61E0
E3E0
E760
EEE0
FCE0
70C0
ENDCHAR
STARTCHAR udieresis
ENCODING 252
SWIDTH 620 0
DWIDTH 16 0
BBX 13 17 3 0
BITMAP
0718
0638
0000
3038
3038
3038
3030
6030
6070
60F0
60F0
61E0
E3E0
E760
EEE0
FCE0
70C0
ENDCHAR
STARTCHAR yacute
ENCODING 253
SWIDTH 548 0
DWIDTH 14 0
BBX 14 24 3 -5
BITMAP
0070
00C0
0180
0300
0000
601C
7018
7030
7030
3060
30E0
30C0
3980
3980
3B00
1F00
1E00
1C00
1C00
1800
3800
3000
6000
E000
ENDCHAR
STARTCHAR thorn
ENCODING 254
SWIDTH 608 0
DWIDTH 16 0
BBX 15 23 1 -5
BITMAP
0E00
0E00
0E00
0C00
0C3C
1CFE
1DCE
1F8E
1B0E
1E0E
3C0C
3C1C
381C
3038
3070
70E0
7FC0
7F00
6000
6000
E000
E000
E000
ENDCHAR
STARTCHAR ydieresis
ENCODING 255
SWIDTH 548 0
DWIDTH 14 0
BBX 14 22 3 -5
BITMAP
0E30
0C70
0000
601C
7018
7030
7030
3060
30E0
30C0
3980
3980
3B00
1F00
1E00
1C00
1C00
1800
3800
3000
6000
E000
ENDCHAR
STARTCHAR Amacron
ENCODING 256
SWIDTH 687 0
DWIDTH 18 0
BBX 17 22 1 0
BITMAP
03FC00
03FC00
000000
003800
003C00
007C00
007C00
00EC00
00CC00
01CE00
038E00
030E00
070600
060600
0E0700
0FFF00
1FFF00
180700
380300
700380
600380
E00380
ENDCHAR
STARTCHAR amacron
ENCODING 257
SWIDTH 608 0
DWIDTH 16 0
BBX 14 17 2 0
BITMAP
07F8
07F8
0000
01FC
07FC
0E1C
1C18
3818
7038
7078
6078
E0F0
E1F0
E3F0
E770
FE70
7860
ENDCHAR
STARTCHAR Abreve
ENCODING 258
SWIDTH 687 0
DWIDTH 18 0
BBX 17 24 1 0
BITMAP
018600
018400
00FC00
00F000
000000
003800
003C00
007C00
007C00
00EC00
00CC00
01CE00
038E00
030E00
070600
060600
0E0700
0FFF00
1FFF00
180700
380300
700380
600380
E00380
ENDCHAR
STARTCHAR abreve
ENCODING 259
SWIDTH 608 0
DWIDTH 16 0
BBX 14 19 2 0
BITMAP
0618
0610
03F0
03C0
0000
01FC
07FC
0E1C
1C18
3818
7038
7078
6078
E0F0
E1F0
E3F0
E770
FE70
7860
ENDCHAR
STARTCHAR Aogonek
ENCODING 260
SWIDTH 687 0
DWIDTH 18 0
BBX 17 23 1 -4
BITMAP
003800
003C00
007C00
007C00
00EC00
00CC00
01CE00
038E00
030E00
070600
060600
0E0700
0FFF00
1FFF00
180700
380300
700380
600380
E00380
00C000
018000
018000
00E000
ENDCHAR
STARTCHAR aogonek
ENCODING 261
SWIDTH 608 0
DWIDTH 16 0
BBX 14 18 2 -4
BITMAP
01FC
07FC
0E1C
1C18
3818
7038
7078
6078
E0F0
E1F0
E3F0
E770
FE70
7860
0300
0600
0600
0380
ENDCHAR
STARTCHAR Cacute
ENCODING 262
SWIDTH 679 0
DWIDTH 18 0
BBX 17 24 3 0
BITMAP
003800
006000
00C000
018000
000000
00FF00
03FF80
0F8180
1E0000
3C0000
380000
700000
700000
700000
E00000
E00000
E00000
E00000
E00000
E00000
700400
781C00
3FFC00
0FE000
ENDCHAR
STARTCHAR cacute
ENCODING 263
SWIDTH 503 0
DWIDTH 13 0
BBX 12 19 2 0
BITMAP
00E0
0180
0300
0600
0000
03F0
0FF0
1C10
3800
7000
6000
E000
E000
E000
E000
E040
E1C0
7FC0
3E00
ENDCHAR
STARTCHAR Ccircumflex
ENCODING 264
SWIDTH 679 0
DWIDTH 18 0
BBX 17 24 3 0
BITMAP
00F000
01F000
03B000
071800
000000
00FF00
03FF80
0F8180
1E0000
3C0000
380000
700000
700000
700000
E00000
E00000
E00000
E00000
E00000
E00000
700400
781C00
3FFC00
0FE000
ENDCHAR
STARTCHAR ccircumflex
ENCODING 265
SWIDTH 503 0
DWIDTH 13 0
BBX 12 19 2 0
BITMAP
03C0
07C0
0EC0
1C60
0000
03F0
0FF0
1C10
3800
7000
6000
E000
E000
E000
E000
E040
E1C0
7FC0
3E00
ENDCHAR
STARTCHAR Cdotaccent
ENCODING 266
SWIDTH 679 0
DWIDTH 18 0
BBX 17 22 3 0
BITMAP
00E000
00E000
000000
00FF00
03FF80
0F8180
1E0000
3C0000
380000
700000
700000
700000
E00000
E00000
E00000
E00000
E00000
E00000
700400
781C00
3FFC00
0FE000
ENDCHAR
STARTCHAR cdotaccent
ENCODING 267
SWIDTH 503 0
DWIDTH 13 0
BBX 12 17 2 0
BITMAP
0700
0700
0000
03F0
0FF0
1C10
3800
7000
6000
E000
E000
E000
E000
E040
E1C0
7FC0
3E00
ENDCHAR
STARTCHAR Ccaron
ENCODING 268
SWIDTH 679 0
DWIDTH 18 0
BBX 17 24 3 0
BITMAP
031C00
01B800
01B000
00E000
000000
00FF00
03FF80
0F8180
1E0000
3C0000
380000
700000
700000
700000
E00000
E00000
E00000
E00000
E00000
E00000
700400
781C00
3FFC00
0FE000
ENDCHAR
STARTCHAR ccaron
ENCODING 269
SWIDTH 503 0
DWIDTH 13 0
BBX 12 19 2 0
BITMAP
18E0
0DC0
0D80
0700
0000
03F0
0FF0
1C10
3800
7000
6000
E000
E000
E000
E000
E040
E1C0
7FC0
3E00
ENDCHAR
STARTCHAR Dcaron
ENCODING 270
SWIDTH 743 0
DWIDTH 19 0
BBX 18 24 2 0
BITMAP
031C00
01B800
01B000
00E000
000000
0FFC00
1FFF00
1C0F80
1C03C0
1C01C0
1801C0
3801C0
3801C0
3801C0
3801C0
300180
700380
700380
700700
700E00
601E00
E03C00
FFF000
FFC000
ENDCHAR
STARTCHAR dcaron
ENCODING 271
SWIDTH 795 0
DWIDTH 21 0
BBX 22 19 2 0
BITMAP
000E1C
000E3C
000C38
000C18
001C38
01FC70
07FC40
0E1800
1C1800
383800
703800
707800
60F000
E0F000
E1F000
E3F000
E77000
FE6000
786000
ENDCHAR
STARTCHAR Dcroat
ENCODING 272
SWIDTH 743 0
DWIDTH 19 0
BBX 19 19 1 0
BITMAP
07FE00
0FFF80
0E07C0
0E01E0
0E00E0
0C00E0
1C00E0
1C00E0
FFC0E0
FFC0E0
1800C0
1801C0
3801C0
380380
380700
300700
301E00
7FF800
7FE000
ENDCHAR
STARTCHAR dcroat
ENCODING 273
SWIDTH 608 0
DWIDTH 16 0
BBX 15 19 2 0
BITMAP
000E
000E
000C
00FC
00FC
01FC
07FC
0E18
1C18
3838
7038
7078
60F0
E0F0
E1F0
E3F0
E770
FE60
7860
ENDCHAR
STARTCHAR Emacron
ENCODING 274
SWIDTH 547 0
DWIDTH 14 0
BBX 14 22 3 0
BITMAP
1FE0
1FE0
0000
0FFC
1FFC
1C00
1C00
1800
1800
3800
3800
3FE0
3FE0
3000
7000
7000
7000
6000
6000
E000
FFE0
FFE0
ENDCHAR
STARTCHAR emacron
ENCODING 275
SWIDTH 529 0
DWIDTH 14 0
BBX 11 17 2 0
BITMAP
1FE0
1FE0
0000
03C0
0FE0
1C60
3060
7060
60C0
E780
FF00
F000
E000
E020
E0E0
7FC0
3F00
ENDCHAR
STARTCHAR Ebreve
ENCODING 276
SWIDTH 547 0
DWIDTH 14 0
BBX 14 24 3 0
BITMAP
0C30
0C20
07E0
0780
0000
0FFC
1FFC
1C00
1C00
1800
1800
3800
3800
3FE0
3FE0
3000
7000
7000
7000
6000
6000
E000
FFE0
FFE0
ENDCHAR
STARTCHAR ebreve
ENCODING 277
SWIDTH 529 0
DWIDTH 14 0
BBX 11 19 2 0
BITMAP
1860
1840
0FC0
0F00
0000
03C0
0FE0
1C60
3060
7060
60C0
E780
FF00
F000
E000
E020
E0E0
7FC0
3F00
ENDCHAR
STARTCHAR Edotaccent
ENCODING 278
SWIDTH 547 0
DWIDTH 14 0
BBX 14 22 3 0
BITMAP
0380
0380
0000
0FFC
1FFC
1C00
1C00
1800
1800
3800
3800
3FE0
3FE0
3000
7000
7000
7000
6000
6000
E000
FFE0
FFE0
ENDCHAR
STARTCHAR edotaccent
ENCODING 279
SWIDTH 529 0
DWIDTH 14 0
BBX 11 17 2 0
BITMAP
0700
0700
0000
03C0
0FE0
1C60
3060
7060
60C0
E780
FF00
F000
E000
E020
E0E0
7FC0
3F00
ENDCHAR
STARTCHAR Eogonek
ENCODING 280
SWIDTH 547 0
DWIDTH 14 0
BBX 14 23 3 -4
BITMAP
0FFC
1FFC
1C00
1C00
1800
1800
3800
3800
3FE0
3FE0
3000
7000
7000
7000
6000
6000
E000
FFE0
FFE0
0600
0C00
0C00
0700
ENDCHAR
STARTCHAR eogonek
ENCODING 281
SWIDTH 529 0
DWIDTH 14 0
BBX 11 18 2 -4
BITMAP
03C0
0FE0
1C60
3060
7060
60C0
E780
FF00
F000
E000
E020
E0E0
7FC0
3F00
0600
0C00
0C00
0700
ENDCHAR
STARTCHAR Ecaron
ENCODING 282
SWIDTH 547 0
DWIDTH 14 0
BBX 14 24 3 0
BITMAP
0C70
06E0
06C0
0380
0000
0FFC
1FFC
1C00
1C00
1800
1800
3800
3800
3FE0
3FE0
3000
7000
7000
7000
6000
6000
E000
FFE0
FFE0
ENDCHAR
STARTCHAR ecaron
ENCODING 283
SWIDTH 529 0
DWIDTH 14 0
BBX 11 19 2 0
BITMAP
18E0
0DC0
0D80
0700
0000
03C0
0FE0
1C60
3060
7060
60C0
E780
FF00
F000
E000
E020
E0E0
7FC0
3F00
ENDCHAR
STARTCHAR Gcircumflex
ENCODING 284
SWIDTH 702 0
DWIDTH 18 0
BBX 17 24 3 0
BITMAP
00F000
01F000
03B000
071800
000000
00FF00
03FF80
0F8180
1E0000
3C0000
380000
700000
700000
600000
E00000
E00000
E00600
E00E00
E00E00
E00E00
700C00
781C00
3FFC00
0FE000
ENDCHAR
STARTCHAR gcircumflex
ENCODING 285
SWIDTH 608 0
DWIDTH 16 0
BBX 15 24 1 -5
BITMAP
00F0
01F0
03B0
0718
0000
00FE
03FE
070C
0E0C
1C0C
381C
381C
3038
7078
70D8
71B8
73B8
3F30
3C30
0070
0060
C0E0
FFC0
7F00
ENDCHAR
STARTCHAR Gbreve
ENCODING 286
SWIDTH 702 0
DWIDTH 18 0
BBX 17 24 3 0
BITMAP
061800
061000
03F000
03C000
000000
00FF00
03FF80
0F8180
1E0000
3C0000
380000
700000
700000
600000
E00000
E00000
E00600
E00E00
E00E00
E00E00
700C00
781C00
3FFC00
0FE000
ENDCHAR
STARTCHAR gbreve
ENCODING 287
SWIDTH 608 0
DWIDTH 16 0
BBX 15 24 1 -5
BITMAP
0618
0610
03F0
03C0
0000
00FE
03FE
070C
0E0C
1C0C
381C
381C
3038
7078
70D8
71B8
73B8
3F30
3C30
0070
0060
C0E0
FFC0
7F00
ENDCHAR
STARTCHAR Gdotaccent
ENCODING 288
SWIDTH 702 0
DWIDTH 18 0
BBX 17 22 3 0
BITMAP
00E000
00E000
000000
00FF00
03FF80
0F8180
1E0000
3C0000
380000
700000
700000
600000
E00000
E00000
E00600
E00E00
E00E00
E00E00
700C00
781C00
3FFC00
0FE000
ENDCHAR
STARTCHAR gdotaccent
ENCODING 289
SWIDTH 608 0
DWIDTH 16 0
BBX 15 22 1 -5
BITMAP
00E0
00E0
0000
00FE
03FE
070C
0E0C
1C0C
381C
381C
3038
7078
70D8
71B8
73B8
3F30
3C30
0070
0060
C0E0
FFC0
7F00
ENDCHAR
STARTCHAR Gcommaaccent
ENCODING 290
SWIDTH 702 0
DWIDTH 18 0
BBX 17 29 3 -10
BITMAP
00FF00
03FF80
0F8180
1E0000
3C0000
380000
700000
700000
600000
E00000
E00000
E00600
E00E00
E00E00
E00E00
700C00
781C00
3FFC00
0FE000
000000
03C000
03C000
03C000
038000
018000
018000
018000
030000
060000
ENDCHAR
STARTCHAR gcommaaccent
ENCODING 291
SWIDTH 608 0
DWIDTH 16 0
BBX 15 27 1 -5
BITMAP
0030
0060
00C0
00C0
00E0
01E0
01C0
0000
00FE
03FE
070C
0E0C
1C0C
381C
381C
3038
7078
70D8
71B8
73B8
3F30
3C30
0070
0060
C0E0
FFC0
7F00
ENDCHAR
STARTCHAR Hcircumflex
ENCODING 292
SWIDTH 735 0
DWIDTH 19 0
BBX 18 24 2 0
BITMAP
007800
00F800
01D800
038C00
000000
0C01C0
1C01C0
1C01C0
1C0180
180380
180380
380380
380380
3FFF00
3FFF00
300700
700700
700700
700600
700E00
600E00
E00E00
E00E00
E00C00
ENDCHAR
STARTCHAR hcircumflex
ENCODING 293
SWIDTH 620 0
DWIDTH 16 0
BBX 13 24 3 0
BITMAP
0F00
1F00
3B00
7180
0000
0C00
0C00
1C00
1C00
1800
1870
19F8
3BB8
3F38
3E38
3C38
3C30
7830
7070
6070
6070
6060
E060
E0E0
ENDCHAR
STARTCHAR Hbar
ENCODING 294
SWIDTH 735 0
DWIDTH 19 0
BBX 18 19 2 0
BITMAP
0C01C0
1C01C0
1C01C0
1C0180
FFFFC0
FFFFC0
380380
380380
3FFF00
3FFF00
300700
700700
700700
700600
700E00
600E00
E00E00
E00E00
E00C00
ENDCHAR
STARTCHAR hbar
ENCODING 295
SWIDTH 620 0
DWIDTH 16 0
BBX 13 19 3 0
BITMAP
0C00
0C00
1C00
FC00
FC00
1870
19F8
3BB8
3F38
3E38
3C38
3C30
7830
7070
6070
6070
6060
E060
E0E0
ENDCHAR
STARTCHAR Itilde
ENCODING 296
SWIDTH 289 0
DWIDTH 8 0
BBX 8 22 3 0
BITMAP
7B
DE
00
1C
1C
1C
18
18
38
38
38
38
30
70
70
70
70
60
60
E0
E0
E0
ENDCHAR
STARTCHAR itilde
ENCODING 297
SWIDTH 289 0
DWIDTH 8 0
BBX 8 17 2 0
BITMAP
7B
DE
00
0C
1C
1C
18
18
18
38
38
30
30
30
70
70
70
ENDCHAR
STARTCHAR Imacron
ENCODING 298
SWIDTH 289 0
DWIDTH 8 0
BBX 8 22 3 0
BITMAP
FF
FF
00
1C
1C
1C
18
18
38
38
38
38
30
70
70
70
70
60
60
E0
E0
E0
ENDCHAR
STARTCHAR imacron
ENCODING 299
SWIDTH 289 0
DWIDTH 8 0
BBX 8 17 2 0
BITMAP
FF
FF
00
0C
1C
1C
18
18
18
38
38
30
30
30
70
70
70
ENDCHAR
STARTCHAR Ibreve
ENCODING 300
SWIDTH 289 0
DWIDTH 8 0
BBX 8 24 3 0
BITMAP
C3
C2
7E
78
00
1C
1C
1C
18
18
38
38
38
38
30
70
70
70
70
60
60
E0
E0
E0
ENDCHAR
STARTCHAR ibreve
ENCODING 301
SWIDTH 289 0
DWIDTH 8 0
BBX 8 19 2 0
BITMAP
C3
C2
7E
78
00
0C
1C
1C
18
18
18
38
38
30
30
30
70
70
70
ENDCHAR
STARTCHAR Iogonek
ENCODING 302
SWIDTH 289 0
DWIDTH 8 0
BBX 6 23 3 -4
BITMAP
1C
1C
1C
18
18
38
38
38
38
30
70
70
70
70
60
60
E0
E0
E0
60
C0
C0
70
ENDCHAR
STARTCHAR iogonek
ENCODING 303
SWIDTH 289 0
DWIDTH 8 0
BBX 6 23 3 -4
BITMAP
1C
1C
00
00
00
18
38
38
30
30
30
70
70
60
60
60
E0
E0
E0
60
C0
C0
70
ENDCHAR
STARTCHAR Idotaccent
ENCODING 304
SWIDTH 289 0
DWIDTH 8 0
BBX 6 22 3 0
BITMAP
38
38
00
1C
1C
1C
18
18
38
38
38
38
30
70
70
70
70
60
60
E0
E0
E0
ENDCHAR
STARTCHAR dotlessi
ENCODING 305
SWIDTH 289 0
DWIDTH 8 0
BBX 5 14 3 0
BITMAP
18
38
38
30
30
30
70
70
60
60
60
E0
E0
E0
ENDCHAR
STARTCHAR IJ
ENCODING 306
SWIDTH 683 0
DWIDTH 19 0
BBX 18 23 3 -4
BITMAP
1C01C0
1C01C0
1C0180
180180
180380
380380
380380
380300
380300
300700
700700
700700
700600
700600
600E00
600E00
E00E00
E00C00
E01C00
001C00
043800
07F000
07E000
ENDCHAR
STARTCHAR ij
ENCODING 307
SWIDTH 600 0
DWIDTH 16 0
BBX 16 24 3 -5
BITMAP
1C07
1C07
0000
0000
0000
180E
380E
380C
300C
301C
301C
701C
7018
6018
6038
6038
E038
E030
E030
0070
0060
10C0
1FC0
1F00
ENDCHAR
STARTCHAR Jcircumflex
ENCODING 308
SWIDTH 408 0
DWIDTH 11 0
BBX 14 28 0 -4
BITMAP
0078
00F8
01D8
038C
0000
0038
0038
0030
0030
0070
0070
0070
0060
0060
00E0
00E0
00E0
00C0
00C0
01C0
01C0
01C0
0180
0380
0380
8700
FE00
FC00
ENDCHAR
STARTCHAR jcircumflex
ENCODING 309
SWIDTH 325 0
DWIDTH 8 0
BBX 13 24 -2 -5
BITMAP
00F0
01F0
03B0
0718
0000
0070
0070
0060
0060
00E0
00E0
00E0
00C0
00C0
01C0
01C0
01C0
0180
0180
0380
0300
8600
FE00
F800
ENDCHAR
STARTCHAR Kcommaaccent
ENCODING 310
SWIDTH 635 0
DWIDTH 17 0
BBX 16 29 3 -10
BITMAP
0C07
1C0E
1C1C
1C38
1870
18E0
39C0
3B80
3F00
3600
3300
7300
7180
71C0
70C0
6060
E070
E030
E018
0000
0780
0780
0780
0700
0300
0300
0300
0600
0C00
ENDCHAR
STARTCHAR kcommaaccent
ENCODING 311
SWIDTH 572 0
DWIDTH 15 0
BBX 14 29 2 -10
BITMAP
0E00
0C00
0C00
1C00
1C00
183C
1870
18E0
39C0
3B80
3700
3E00
7700
7380
6380
61C0
60E0
E060
E070
0000
0F00
0F00
0F00
0E00
0600
0600
0600
0C00
1800
ENDCHAR
STARTCHAR kgreenlandic
ENCODING 312
SWIDTH 572 0
DWIDTH 15 0
BBX 14 14 2 0
BITMAP
183C
1870
18E0
39C0
3B80
3700
3E00
7700
7380
6380
61C0
60E0
E060
E070
ENDCHAR
STARTCHAR Lacute
ENCODING 313
SWIDTH 545 0
DWIDTH 14 0
BBX 12 24 2 0
BITMAP
0380
0600
0C00
1800
0000
0C00
0C00
1C00
1C00
1C00
1800
1800
3800
3800
3800
3000
3000
7000
7000
7000
6000
6000
FFF0
FFF0
ENDCHAR
STARTCHAR lacute
ENCODING 314
SWIDTH 289 0
DWIDTH 8 0
BBX 9 24 2 0
BITMAP
0380
0600
0C00
1800
0000
0E00
0E00
0C00
0C00
1C00
1C00
1800
1800
3800
3800
3800
3000
3000
7000
7000
6000
6000
E000
E000
ENDCHAR
STARTCHAR Lcommaaccent
ENCODING 315
SWIDTH 545 0
DWIDTH 14 0
BBX 12 29 2 -10
BITMAP
0C00
0C00
1C00
1C00
1C00
1800
1800
3800
3800
3800
3000
3000
7000
7000
7000
6000
6000
FFF0
FFF0
0000
0F00
0F00
0F00
0E00
0600
0600
0600
0C00
1800
ENDCHAR
STARTCHAR lcommaaccent
ENCODING 316
SWIDTH 289 0
DWIDTH 8 0
BBX 7 29 2 -10
BITMAP
0E
0E
0C
0C
1C
1C
18
18
38
38
38
30
30
70
70
60
60
E0
E0
00
78
78
78
70
30
30
30
60
C0
ENDCHAR
STARTCHAR Lcaron
ENCODING 317
SWIDTH 735 0
DWIDTH 19 0
BBX 20 19 2 0
BITMAP
0C0070
0C00F0
1C00E0
1C0060
1C00E0
1801C0
180100
380000
380000
380000
300000
300000
700000
700000
700000
600000
600000
FFF000
FFF000
ENDCHAR
STARTCHAR lcaron
ENCODING 318
SWIDTH 492 0
DWIDTH 14 0
BBX 15 19 2 0
BITMAP
0E0E
0E1E
0C1C
0C0C
1C1C
1C38
1820
1800
3800
3800
3800
3000
3000
7000
7000
6000
6000
E000
E000
ENDCHAR
STARTCHAR Ldot
ENCODING 319
SWIDTH 834 0
DWIDTH 29 0
BBX 23 19 2 0
BITMAP
0C0000
0C0000
1C0000
1C0000
1C0000
180000
180000
380000
380000
38000E
30001E
30001C
700000
700000
700000
600000
600000
FFF000
FFF000
ENDCHAR
STARTCHAR ldot
ENCODING 320
SWIDTH 591 0
DWIDTH 24 0
BBX 18 19 2 0
BITMAP
0E0000
0E0000
0C0000
0C0000
1C0000
1C0000
180000
180000
380000
3801C0
3803C0
300380
300000
700000
700000
600000
600000
E00000
E00000
ENDCHAR
STARTCHAR Lslash
ENCODING 321
SWIDTH 545 0
DWIDTH 14 0
BBX 13 19 1 0
BITMAP
0700
0700
0600
0E00
0E00
0E80
0D80
0F80
1F00
3C00
FC00
DC00
9800
1800
3800
3800
3800
3FF8
3FF8
ENDCHAR
STARTCHAR lslash
ENCODING 322
SWIDTH 289 0
DWIDTH 8 0
BBX 10 19 1 0
BITMAP
0300
0700
0700
0600
0600
0640
0FC0
0F80
0E00
3C00
FC00
DC00
1800
1800
3800
3800
3800
3000
3000
ENDCHAR
STARTCHAR Nacute
ENCODING 323
SWIDTH 741 0
DWIDTH 19 0
BBX 18 24 3 0
BITMAP
003800
006000
00C000
018000
000000
0C00C0
1E01C0
1E01C0
1F0180
1F0180
1B8180
3B8380
39C380
31C300
30C300
30E300
70E700
707700
607600
603E00
603E00
E01E00
E01E00
C01C00
ENDCHAR
STARTCHAR nacute
ENCODING 324
SWIDTH 620 0
DWIDTH 16 0
BBX 13 19 3 0
BITMAP
00E0
0180
0300
0600
0000
1870
39F8
3BB8
3738
3E38
3C38
7830
7830
7070
6070
6070
E060
E060
E0E0
ENDCHAR
STARTCHAR Ncommaaccent
ENCODING 325
SWIDTH 741 0
DWIDTH 19 0
BBX 18 29 3 -10
BITMAP
0C00C0
1E01C0
1E01C0
1F0180
1F0180
1B8180
3B8380
39C380
31C300
30C300
30E300
70E700
707700
607600
603E00
603E00
E01E00
E01E00
C01C00
000000
01E000
01E000
01E000
01C000
00C000
00C000
00C000
018000
030000
ENDCHAR
STARTCHAR ncommaaccent
ENCODING 326
SWIDTH 620 0
DWIDTH 16 0
BBX 13 24 3 -10
BITMAP
1870
39F8
3BB8
3738
3E38
3C38
7830
7830
7070
6070
6070
E060
E060
E0E0
0000
0F00
0F00
0F00
0E00
0600
0600
0600
0C00
1800
ENDCHAR
STARTCHAR Ncaron
ENCODING 327
SWIDTH 741 0
DWIDTH 19 0
BBX 18 24 3 0
BITMAP
031C00
01B800
01B000
00E000
000000
0C00C0
1E01C0
1E01C0
1F0180
1F0180
1B8180
3B8380
39C380
31C300
30C300
30E300
70E700
707700
607600
603E00
603E00
E01E00
E01E00
C01C00
ENDCHAR
STARTCHAR ncaron
ENCODING 328
SWIDTH 620 0
DWIDTH 16 0
BBX 13 19 3 0
BITMAP
0C70
06E0
06C0
0380
0000
1870
39F8
3BB8
3738
3E38
3C38
7830
7830
7070
6070
6070
E060
E060
E0E0
ENDCHAR
STARTCHAR napostrophe
ENCODING 329
SWIDTH 826 0
DWIDTH 22 0
BBX 18 19 4 0
BITMAP
380000
780000
700000
300000
700000
E0C380
81CFC0
01DDC0
01B9C0
01F1C0
01E1C0
03C180
03C180
038380
030380
030380
070300
070300
070700
ENDCHAR
STARTCHAR Eng
ENCODING 330
SWIDTH 741 0
DWIDTH 19 0
BBX 18 24 3 -5
BITMAP
0C00C0
1E01C0
1E01C0
1F0180
1F0180
1B8180
3B8380
39C380
31C300
30C300
30E300
70E700
707700
607600
603E00
603E00
E01E00
E01E00
C01C00
001C00
001800
043000
07F000
07C000
ENDCHAR
STARTCHAR eng
ENCODING 331
SWIDTH 620 0
DWIDTH 16 0
BBX 13 19 3 -5
BITMAP
1870
39F8
3BB8
3738
3E38
3C38
7830
7830
7070
6070
6070
E070
E060
E060
00E0
00C0
2180
3F80
3E00
ENDCHAR
STARTCHAR Omacron
ENCODING 332
SWIDTH 777 0
DWIDTH 20 0
BBX 18 22 3 0
BITMAP
03FC00
03FC00
000000
00FC00
03FF00
078780
0E03C0
1C01C0
3801C0
7001C0
7001C0
6001C0
E001C0
E001C0
E00180
E00380
E00700
E00700
701E00
783C00
3FF000
0FC000
ENDCHAR
STARTCHAR omacron
ENCODING 333
SWIDTH 566 0
DWIDTH 15 0
BBX 13 17 2 0
BITMAP
1FE0
1FE0
0000
03C0
0FF0
1C30
3838
7038
6038
E038
E030
E070
E070
E0E0
E1C0
7F80
3E00
ENDCHAR
STARTCHAR Obreve
ENCODING 334
SWIDTH 777 0
DWIDTH 20 0
BBX 18 24 3 0
BITMAP
018600
018400
00FC00
00F000
000000
00FC00
03FF00
078780
0E03C0
1C01C0
3801C0
7001C0
7001C0
6001C0
E001C0
E001C0
E00180
E00380
E00700
E00700
701E00
783C00
3FF000
0FC000
ENDCHAR
STARTCHAR obreve
ENCODING 335
SWIDTH 566 0
DWIDTH 15 0
BBX 13 19 2 0
BITMAP
0C30
0C20
07E0
0780
0000
03C0
0FF0
1C30
3838
7038
6038
E038
E030
E070
E070
E0E0
E1C0
7F80
3E00
ENDCHAR
STARTCHAR Ohungarumlaut
ENCODING 336
SWIDTH 777 0
DWIDTH 20 0
BBX 18 24 3 0
BITMAP
003F00
006C00
00D800
01B000
000000
00FC00
03FF00
078780
0E03C0
1C01C0
3801C0
7001C0
7001C0
6001C0
E001C0
E001C0
E00180
E00380
E00700
E00700
701E00
783C00
3FF000
0FC000
ENDCHAR
STARTCHAR ohungarumlaut
ENCODING 337
SWIDTH 566 0
DWIDTH 15 0
BBX 13 19 2 0
BITMAP
01F8
0360
06C0
0D80
0000
03C0
0FF0
1C30
3838
7038
6038
E038
E030
E070
E070
E0E0
E1C0
7F80
3E00
ENDCHAR
STARTCHAR OE
ENCODING 338
SWIDTH 1005 0
DWIDTH 26 0
BBX 26 19 3 0
BITMAP
00FDFFC0
03FFFFC0
0787C000
0E038000
1C038000
38038000
70038000
70038000
6003FE00
E003FE00
E0070000
E0070000
E0070000
E0060000
E00E0000
701E0000
783E0000
3FFFFE00
0FCFFE00
ENDCHAR
STARTCHAR oe
ENCODING 339
SWIDTH 899 0
DWIDTH 23 0
BBX 20 14 3 0
BITMAP
07C1E0
0FE7F0
1C7E70
303C30
703870
6030E0
E033C0
E07F80
E07C00
E07000
E0F010
E1F870
7FBFE0
3E1F80
ENDCHAR
STARTCHAR Racute
ENCODING 340
SWIDTH 632 0
DWIDTH 16 0
BBX 14 24 3 0
BITMAP
0070
00C0
0180
0300
0000
0FF0
1FFC
1C1C
1C1C
181C
181C
3818
3838
3860
3FC0
3F80
71C0
71C0
70E0
70E0
6070
E070
E038
E038
ENDCHAR
STARTCHAR racute
ENCODING 341
SWIDTH 478 0
DWIDTH 12 0
BBX 12 19 2 0
BITMAP
00E0
0180
0300
0600
0000
1870
18F0
3BA0
3B00
3600
3C00
3C00
7800
7000
6000
6000
6000
E000
E000
ENDCHAR
STARTCHAR Rcommaaccent
ENCODING 342
SWIDTH 632 0
DWIDTH 16 0
BBX 14 29 3 -10
BITMAP
0FF0
1FFC
1C1C
1C1C
181C
181C
3818
3838
3860
3FC0
3F80
71C0
71C0
70E0
70E0
6070
E070
E038
E038
0000
0780
0780
0780
0700
0300
0300
0300
0600
0C00
ENDCHAR
STARTCHAR rcommaaccent
ENCODING 343
SWIDTH 478 0
DWIDTH 12 0
BBX 12 24 2 -10
BITMAP
1870
18F0
3BA0
3B00
3600
3C00
3C00
7800
7000
6000
6000
6000
E000
E000
0000
7800
7800
7800
7000
3000
3000
3000
6000
C000
ENDCHAR
STARTCHAR Rcaron
ENCODING 344
SWIDTH 632 0
DWIDTH 16 0
BBX 14 24 3 0
BITMAP
0C70
06E0
06C0
0380
0000
0FF0
1FFC
1C1C
1C1C
181C
181C
3818
3838
3860
3FC0
3F80
71C0
71C0
70E0
70E0
6070
E070
E038
E038
ENDCHAR
STARTCHAR rcaron
ENCODING 345
SWIDTH 478 0
DWIDTH 12 0
BBX 12 19 2 0
BITMAP
18E0
0DC0
0D80
0700
0000
1870
18F0
3BA0
3B00
3600
3C00
3C00
7800
7000
6000
6000
6000
E000
E000
ENDCHAR
STARTCHAR Sacute
ENCODING 346
SWIDTH 553 0
DWIDTH 14 0
BBX 15 24 2 0
BITMAP
0070
00C0
0180
0300
0000
01F8
07FE
0E04
1C00
1C00
1C00
1C00
0F00
0780
03C0
01E0
00F0
0070
0030
0030
0070
C0E0
FFC0
7F00
ENDCHAR
STARTCHAR sacute
ENCODING 347
SWIDTH 489 0
DWIDTH 13 0
BBX 11 19 2 0
BITMAP
01C0
0300
0600
0C00
0000
07C0
1FE0
1C60
3800
1800
1C00
0E00
0700
0380
0180
0180
C380
FF80
7E00
ENDCHAR
STARTCHAR Scircumflex
ENCODING 348
SWIDTH 553 0
DWIDTH 14 0
BBX 15 24 2 0
BITMAP
01E0
03E0
0760
0E30
0000
01F8
07FE
0E04
1C00
1C00
1C00
1C00
0F00
0780
03C0
01E0
00F0
0070
0030
0030
0070
C0E0
FFC0
7F00
ENDCHAR
STARTCHAR scircumflex
ENCODING 349
SWIDTH 489 0
DWIDTH 13 0
BBX 11 19 2 0
BITMAP
0780
0F80
1D80
38C0
0000
07C0
1FE0
1C60
3800
1800
1C00
0E00
0700
0380
0180
0180
C380
FF80
7E00
ENDCHAR
STARTCHAR Scedilla
ENCODING 350
SWIDTH 553 0
DWIDTH 14 0
BBX 15 24 2 -5
BITMAP
01F8
07FE
0E04
1C00
1C00
1C00
1C00
0F00
0780
03C0
01E0
00F0
0070
0030
0030
0070
C0E0
FFC0
7F00
0600
0300
0300
0300
0E00
ENDCHAR
STARTCHAR scedilla
ENCODING 351
SWIDTH 489 0
DWIDTH 13 0
BBX 11 19 2 -5
BITMAP
07C0
1FE0
1C60
3800
1800
1C00
0E00
0700
0380
0180
0180
C380
FF80
7E00
0C00
0600
0600
0600
1C00
ENDCHAR
STARTCHAR Scaron
ENCODING 352
SWIDTH 553 0
DWIDTH 14 0
BBX 15 24 2 0
BITMAP
031C
01B8
01B0
00E0
0000
01F8
07FE
0E04
1C00
1C00
1C00
1C00
0F00
0780
03C0
01E0
00F0
0070
0030
0030
0070
C0E0
FFC0
7F00
ENDCHAR
STARTCHAR scaron
ENCODING 353
SWIDTH 489 0
DWIDTH 13 0
BBX 13 19 2 0
BITMAP
0638
0370
0360
01C0
0000
07C0
1FE0
1C60
3800
1800
1C00
0E00
0700
0380
0180
0180
C380
FF80
7E00
ENDCHAR
STARTCHAR Tcommaaccent
ENCODING 354
SWIDTH 623 0
DWIDTH 16 0
BBX 16 24 4 -5
BITMAP
FFFF
FFFF
0380
0380
0380
0300
0300
0700
0700
0700
0700
0600
0E00
0E00
0E00
0E00
0C00
0C00
1E00
0600
0300
0300
0300
0E00
ENDCHAR
STARTCHAR tcommaaccent
ENCODING 355
SWIDTH 383 0
DWIDTH 10 0
BBX 8 22 3 -5
BITMAP
18
18
18
FF
FF
38
30
30
70
70
70
60
60
E0
60
7C
38
30
18
18
18
70
ENDCHAR
STARTCHAR Tcaron
ENCODING 356
SWIDTH 623 0
DWIDTH 16 0
BBX 16 24 4 0
BITMAP
0C70
06E0
06C0
0380
0000
FFFF
FFFF
0380
0380
0380
0300
0300
0700
0700
0700
0700
0600
0E00
0E00
0E00
0E00
0C00
0C00
1C00
ENDCHAR
STARTCHAR tcaron
ENCODING 357
SWIDTH 581 0
DWIDTH 16 0
BBX 16 19 3 0
BITMAP
0007
000F
180E
1806
180E
FF1C
FF10
3800
3000
3000
7000
7000
7000
6000
6000
E000
6000
7C00
3800
ENDCHAR
STARTCHAR Tbar
ENCODING 358
SWIDTH 623 0
DWIDTH 16 0
BBX 16 19 4 0
BITMAP
FFFF
FFFF
0380
0380
0380
0300
0300
0700
07E0
07E0
0700
0600
0E00
0E00
0E00
0E00
0C00
0C00
1C00
ENDCHAR
STARTCHAR tbar
ENCODING 359
SWIDTH 383 0
DWIDTH 10 0
BBX 8 17 3 0
BITMAP
18
18
18
FF
FF
38
30
30
70
7E
7E
60
60
E0
60
7C
38
ENDCHAR
STARTCHAR Utilde
ENCODING 360
SWIDTH 693 0
DWIDTH 18 0
BBX 16 22 3 0
BITMAP
03D8
06F0
0000
3803
3807
3807
3806
3006
7006
700E
700E
700C
600C
E00C
E01C
E018
E018
E038
E030
7070
7FE0
1F80
ENDCHAR
STARTCHAR utilde
ENCODING 361
SWIDTH 620 0
DWIDTH 16 0
BBX 13 17 3 0
BITMAP
07B0
0DE0
0000
3038
3038
3038
3030
6030
6070
60F0
60F0
61E0
E3E0
E760
EEE0
FCE0
70C0
ENDCHAR
STARTCHAR Umacron
ENCODING 362
SWIDTH 693 0
DWIDTH 18 0
BBX 16 22 3 0
BITMAP
0FF0
0FF0
0000
3803
3807
3807
3806
3006
7006
700E
700E
700C
600C
E00C
E01C
E018
E018
E038
E030
7070
7FE0
1F80
ENDCHAR
STARTCHAR umacron
ENCODING 363
SWIDTH 620 0
DWIDTH 16 0
BBX 13 17 3 0
BITMAP
1FE0
1FE0
0000
3038
3038
3038
3030
6030
6070
60F0
60F0
61E0
E3E0
E760
EEE0
FCE0
70C0
ENDCHAR
STARTCHAR Ubreve
ENCODING 364
SWIDTH 693 0
DWIDTH 18 0
BBX 16 24 3 0
BITMAP
0618
0610
03F0
03C0
0000
3803
3807
3807
3806
3006
7006
700E
700E
700C
600C
E00C
E01C
E018
E018
E038
E030
7070
7FE0
1F80
ENDCHAR
STARTCHAR ubreve
ENCODING 365
SWIDTH 620 0
DWIDTH 16 0
BBX 13 19 3 0
BITMAP
0C30
0C20
07E0
0780
0000
3038
3038
3038
3030
6030
6070
60F0
60F0
61E0
E3E0
E760
EEE0
FCE0
70C0
ENDCHAR
STARTCHAR Uring
ENCODING 366
SWIDTH 693 0
DWIDTH 18 0
BBX 16 24 3 0
BITMAP
0180
0240
0240
0180
0000
3803
3807
3807
3806
3006
7006
700E
700E
700C
600C
E00C
E01C
E018
E018
E038
E030
7070
7FE0
1F80
ENDCHAR
STARTCHAR uring
ENCODING 367
SWIDTH 620 0
DWIDTH 16 0
BBX 13 19 3 0
BITMAP
0300
0480
0480
0300
0000
3038
3038
3038
3030
6030
6070
60F0
60F0
61E0
E3E0
E760
EEE0
FCE0
70C0
ENDCHAR
STARTCHAR Uhungarumlaut
ENCODING 368
SWIDTH 693 0
DWIDTH 18 0
BBX 16 24 3 0
BITMAP
00FC
01B0
0360
06C0
0000
3803
3807
3807
3806
3006
7006
700E
700E
700C
600C
E00C
E01C
E018
E018
E038
E030
7070
7FE0
1F80
ENDCHAR
STARTCHAR uhungarumlaut
ENCODING 369
SWIDTH 620 0
DWIDTH 16 0
BBX 13 19 3 0
BITMAP
01F8
0360
06C0
0D80
0000
3038
3038
3038
3030
6030
6070
60F0
60F0
61E0
E3E0
E760
EEE0
FCE0
70C0
ENDCHAR
STARTCHAR Uogonek
ENCODING 370
SWIDTH 693 0
DWIDTH 18 0
BBX 16 23 3 -4
BITMAP
3803
3807
3807
3806
3006
7006
700E
700E
700C
600C
E00C
E01C
E018
E018
E038
E030
7070
7FE0
1F80
0300
0600
0600
0380
ENDCHAR
STARTCHAR uogonek
ENCODING 371
SWIDTH 620 0
DWIDTH 16 0
BBX 13 18 3 -4
BITMAP
3038
3038
3038
3030
6030
6070
60F0
60F0
61E0
E3E0
E760
EEE0
FCE0
70C0
0600
0C00
0C00
0700
ENDCHAR
STARTCHAR Wcircumflex
ENCODING 372
SWIDTH 886 0
DWIDTH 23 0
BBX 22 24 4 0
BITMAP
007800
00F800
01D800
038C00
000000
E0301C
E07018
E07038
E0F030
E0F030
E1F860
E1B860
E1B8C0
E338C0
E339C0
663980
663B80
6E3B00
6C3F00
7C3E00
783E00
783C00
703C00
703800
ENDCHAR
STARTCHAR wcircumflex
ENCODING 373
SWIDTH 795 0
DWIDTH 20 0
BBX 19 19 3 0
BITMAP
00F000
01F000
03B000
071800
000000
C0E0E0
E0E0C0
E1E1C0
E1E180
E36380
E36300
666700
666600
6C6E00
6C6C00
7C7C00
787800
787800
707000
ENDCHAR
STARTCHAR Ycircumflex
ENCODING 374
SWIDTH 608 0
DWIDTH 16 0
BBX 15 24 4 0
BITMAP
03C0
07C0
0EC0
1C60
0000
E00E
601C
7038
7030
3860
38E0
1DC0
1D80
0F00
0F00
0E00
0E00
0E00
0C00
0C00
1C00
1C00
1C00
1800
ENDCHAR
STARTCHAR ycircumflex
ENCODING 375
SWIDTH 548 0
DWIDTH 14 0
BBX 14 24 3 -5
BITMAP
03C0
07C0
0EC0
1C60
0000
601C
7018
7030
7030
3060
30E0
30C0
3980
3980
3B00
1F00
1E00
1C00
1C00
1800
3800
3000
6000
E000
ENDCHAR
STARTCHAR Ydieresis
ENCODING 376
SWIDTH 608 0
DWIDTH 16 0
BBX 15 22 4 0
BITMAP
0E30
0C70
0000
E00E
601C
7038
7030
3860
38E0
1DC0
1D80
0F00
0F00
0E00
0E00
0E00
0C00
0C00
1C00
1C00
1C00
1800
ENDCHAR
STARTCHAR Zacute
ENCODING 377
SWIDTH 578 0
DWIDTH 15 0
BBX 17 24 1 0
BITMAP
001C00
003000
006000
00C000
000000
0FFF80
0FFF80
000700
000E00
001C00
003C00
007800
007000
00E000
01C000
038000
070000
0F0000
1E0000
3C0000
380000
700000
FFFC00
FFFC00
ENDCHAR
STARTCHAR zacute
ENCODING 378
SWIDTH 536 0
DWIDTH 14 0
BBX 13 19 2 0
BITMAP
0070
00C0
0180
0300
0000
1FF8
1FF8
0070
00E0
01C0
0380
0780
0F00
0E00
1C00
3800
7000
FFE0
FFE0
ENDCHAR
STARTCHAR Zdotaccent
ENCODING 379
SWIDTH 578 0
DWIDTH 15 0
BBX 17 22 1 0
BITMAP
007000
007000
000000
0FFF80
0FFF80
000700
000E00
001C00
003C00
007800
007000
00E000
01C000
038000
070000
0F0000
1E0000
3C0000
380000
700000
FFFC00
FFFC00
ENDCHAR
STARTCHAR zdotaccent
ENCODING 380
SWIDTH 536 0
DWIDTH 14 0
BBX 13 17 2 0
BITMAP
0380
0380
0000
1FF8
1FF8
0070
00E0
01C0
0380
0780
0F00
0E00
1C00
3800
7000
FFE0
FFE0
ENDCHAR
STARTCHAR Zcaron
ENCODING 381
SWIDTH 578 0
DWIDTH 15 0
BBX 17 24 1 0
BITMAP
018E00
00DC00
00D800
007000
000000
0FFF80
0FFF80
000700
000E00
001C00
003C00
007800
007000
00E000
01C000
038000
070000
0F0000
1E0000
3C0000
380000
700000
FFFC00
FFFC00
ENDCHAR
STARTCHAR zcaron
ENCODING 382
SWIDTH 536 0
DWIDTH 14 0
BBX 14 19 2 0
BITMAP
031C
01B8
01B0
00E0
0000
1FF8
1FF8
0070
00E0
01C0
0380
0780
0F00
0E00
1C00
3800
7000
FFE0
FFE0
ENDCHAR
STARTCHAR uni0186
ENCODING 390
SWIDTH 679 0
DWIDTH 18 0
BBX 17 19 3 0
BITMAP
03F800
1FFE00
1C0F00
100700
000380
000380
000380
000380
000380
000380
000700
000700
000700
000E00
001E00
003C00
C0F800
FFE000
7F8000
ENDCHAR
STARTCHAR uni0189
ENCODING 393
SWIDTH 743 0
DWIDTH 19 0
BBX 19 19 1 0
BITMAP
07FE00
0FFF80
0E07C0
0E01E0
0E00E0
0C00E0
1C00E0
1C00E0
FFC0E0
FFC0E0
1800C0
1801C0
3801C0
380380
380700
300700
301E00
7FF800
7FE000
ENDCHAR
STARTCHAR uni018E
ENCODING 398
SWIDTH 547 0
DWIDTH 14 0
BBX 14 19 3 0
BITMAP
1FFC
1FFC
001C
0018
0018
0038
0038
0038
0030
1FF0
1FF0
0070
0070
0060
0060
00E0
00E0
FFE0
FFC0
ENDCHAR
STARTCHAR florin
ENCODING 402
SWIDTH 633 0
DWIDTH 16 0
BBX 12 23 6 -4
BITMAP
01F0
07F0
0600
0C00
0C00
1C00
1C00
1800
FF00
FE00
3800
3800
3800
3000
3000
7000
7000
7000
6000
6000
E000
E000
E000
ENDCHAR
STARTCHAR uni0197
ENCODING 407
SWIDTH 289 0
DWIDTH 8 0
BBX 6 19 3 0
BITMAP
1C
1C
1C
18
18
38
38
38
FC
FC
70
70
70
70
60
60
E0
E0
E0
ENDCHAR
STARTCHAR uni019A
ENCODING 410
SWIDTH 289 0
DWIDTH 8 0
BBX 7 19 2 0
BITMAP
0E
0E
0C
0C
1C
1C
18
18
7E
7E
38
30
30
70
70
60
60
E0
E0
ENDCHAR
STARTCHAR uni019D
ENCODING 413
SWIDTH 741 0
DWIDTH 19 0
BBX 25 24 -4 -5
BITMAP
00180180
003C0380
003C0380
003E0300
003E0300
00370300
00770700
00738700
00638600
00618600
0061C600
00E1CE00
00E0EE00
00C0EC00
01C07C00
01C07C00
01C03C00
01803C00
01803800
03800000
03000000
86000000
FE000000
F8000000
ENDCHAR
STARTCHAR uni019F
ENCODING 415
SWIDTH 777 0
DWIDTH 20 0
BBX 18 19 3 0
BITMAP
00FC00
03FF00
078780
0E03C0
1C01C0
3801C0
7001C0
7001C0
FFFFC0
FFFFC0
E001C0
E00180
E00380
E00700
E00700
701E00
783C00
3FF000
0FC000
ENDCHAR
STARTCHAR Ohorn
ENCODING 416
SWIDTH 777 0
DWIDTH 20 0
BBX 21 19 3 0
BITMAP
00FC38
03FF78
0787F0
0E03F0
1C01F0
3801E0
7001C0
7001C0
6001C0
E001C0
E001C0
E00180
E00380
E00700
E00700
701E00
783C00
3FF000
0FC000
ENDCHAR
STARTCHAR ohorn
ENCODING 417
SWIDTH 566 0
DWIDTH 15 0
BBX 17 14 2 0
BITMAP
03C380
0FF780
1C3700
383B00
703F00
603E00
E03800
E03000
E07000
E07000
E0E000
E1C000
7F8000
3E0000
ENDCHAR
STARTCHAR Uhorn
ENCODING 431
SWIDTH 693 0
DWIDTH 18 0
BBX 20 19 3 0
BITMAP
380370
3807F0
3807E0
380660
3006E0
7007C0
700F00
700E00
700C00
600C00
E00C00
E01C00
E01800
E01800
E03800
E03000
707000
7FE000
1F8000
ENDCHAR
STARTCHAR uhorn
ENCODING 432
SWIDTH 620 0
DWIDTH 16 0
BBX 17 14 3 0
BITMAP
303B80
303F80
303F00
303300
603700
607E00
60F800
60F000
61E000
E3E000
E76000
EEE000
FCE000
70C000
ENDCHAR
STARTCHAR uni01B5
ENCODING 437
SWIDTH 578 0
DWIDTH 15 0
BBX 17 19 1 0
BITMAP
0FFF80
0FFF80
000700
000E00
001C00
003C00
007800
007000
03F000
03F000
038000
070000
0F0000
1E0000
3C0000
380000
700000
FFFC00
FFFC00
ENDCHAR
STARTCHAR uni01B6
ENCODING 438
SWIDTH 536 0
DWIDTH 14 0
BBX 13 14 2 0
BITMAP
1FF8
1FF8
0070
00E0
01C0
0380
0FC0
0FC0
0E00
1C00
3800
7000
FFE0
FFE0
ENDCHAR
STARTCHAR uni01BB
ENCODING 443
SWIDTH 633 0
DWIDTH 16 0
BBX 14 19 3 0
BITMAP
03E0
0FF8
0C3C
101C
001C
001C
001C
0038
FFFC
FFFC
01C0
0380
0E00
1C00
3800
7000
7000
FFE0
FFE0
ENDCHAR
STARTCHAR uni01BC
ENCODING 444
SWIDTH 633 0
DWIDTH 16 0
BBX 14 19 3 0
BITMAP
0FFC
0FFC
0800
1800
1800
1800
1800
1F00
3FC0
01E0
0070
0070
0070
0070
0060
00E0
C1C0
FF80
FE00
ENDCHAR
STARTCHAR uni01C0
ENCODING 448
SWIDTH 233 0
DWIDTH 6 0
BBX 7 23 1 -4
BITMAP
06
06
04
0C
0C
0C
0C
18
18
18
18
10
30
30
30
30
60
60
60
60
40
C0
C0
ENDCHAR
STARTCHAR uni01C2
ENCODING 450
SWIDTH 633 0
DWIDTH 16 0
BBX 16 23 2 -4
BITMAP
0030
0030
0020
0060
0060
0060
0060
00C0
7FFF
7FFF
00C0
0080
0180
FFFE
FFFE
0180
0300
0300
0300
0300
0200
0600
0600
ENDCHAR
STARTCHAR uni01C3
ENCODING 451
SWIDTH 193 0
DWIDTH 8 0
BBX 6 19 3 0
BITMAP
1C
1C
1C
18
18
18
38
30
30
30
30
30
60
60
00
00
00
E0
E0
ENDCHAR
STARTCHAR uni01CD
ENCODING 461
SWIDTH 687 0
DWIDTH 18 0
BBX 17 24 1 0
BITMAP
018E00
00DC00
00D800
007000
000000
003800
003C00
007C00
007C00
00EC00
00CC00
01CE00
038E00
030E00
070600
060600
0E0700
0FFF00
1FFF00
180700
380300
700380
600380
E00380
ENDCHAR
STARTCHAR uni01CE
ENCODING 462
SWIDTH 608 0
DWIDTH 16 0
BBX 14 19 2 0
BITMAP
0638
0370
0360
01C0
0000
01FC
07FC
0E1C
1C18
3818
7038
7078
6078
E0F0
E1F0
E3F0
E770
FE70
7860
ENDCHAR
STARTCHAR uni01CF
ENCODING 463
SWIDTH 289 0
DWIDTH 8 0
BBX 8 24 3 0
BITMAP
C7
6E
6C
38
00
1C
1C
1C
18
18
38
38
38
38
30
70
70
70
70
60
60
E0
E0
E0
ENDCHAR
STARTCHAR uni01D0
ENCODING 464
SWIDTH 289 0
DWIDTH 8 0
BBX 8 19 3 0
BITMAP
C7
6E
6C
38
00
18
38
38
30
30
30
70
70
60
60
60
E0
E0
E0
ENDCHAR
STARTCHAR uni01D1
ENCODING 465
SWIDTH 777 0
DWIDTH 20 0
BBX 18 24 3 0
BITMAP
018E00
00DC00
00D800
007000
000000
00FC00
03FF00
078780
0E03C0
1C01C0
3801C0
7001C0
7001C0
6001C0
E001C0
E001C0
E00180
E00380
E00700
E00700
701E00
783C00
3FF000
0FC000
ENDCHAR
STARTCHAR uni01D2
ENCODING 466
SWIDTH 566 0
DWIDTH 15 0
BBX 13 19 2 0
BITMAP
0C70
06E0
06C0
0380
0000
03C0
0FF0
1C30
3838
7038
6038
E038
E030
E070
E070
E0E0
E1C0
7F80
3E00
ENDCHAR
STARTCHAR uni01D3
ENCODING 467
SWIDTH 693 0
DWIDTH 18 0
BBX 16 24 3 0
BITMAP
0638
0370
0360
01C0
0000
3803
3807
3807
3806
3006
7006
700E
700E
700C
600C
E00C
E01C
E018
E018
E038
E030
7070
7FE0
1F80
ENDCHAR
STARTCHAR uni01D4
ENCODING 468
SWIDTH 620 0
DWIDTH 16 0
BBX 13 19 3 0
BITMAP
0C70
06E0
06C0
0380
0000
3038
3038
3038
3030
6030
6070
60F0
60F0
61E0
E3E0
E760
EEE0
FCE0
70C0
ENDCHAR
STARTCHAR uni01D5
ENCODING 469
SWIDTH 693 0
DWIDTH 18 0
BBX 16 25 3 0
BITMAP
07F8
07F8
0000
038C
031C
0000
3803
3807
3807
3806
3006
7006
700E
700E
700C
600C
E00C
E01C
E018
E018
E038
E030
7070
7FE0
1F80
ENDCHAR
STARTCHAR uni01D6
ENCODING 470
SWIDTH 620 0
DWIDTH 16 0
BBX 13 20 3 0
BITMAP
0FF0
0FF0
0000
0718
0638
0000
3038
3038
3038
3030
6030
6070
60F0
60F0
61E0
E3E0
E760
EEE0
FCE0
70C0
ENDCHAR
STARTCHAR uni01D7
ENCODING 471
SWIDTH 693 0
DWIDTH 18 0
BBX 16 27 3 0
BITMAP
0038
0060
00C0
0180
0000
038C
031C
0000
3803
3807
3807
3806
3006
7006
700E
700E
700C
600C
E00C
E01C
E018
E018
E038
E030
7070
7FE0
1F80
ENDCHAR
STARTCHAR uni01D8
ENCODING 472
SWIDTH 620 0
DWIDTH 16 0
BBX 13 22 3 0
BITMAP
0070
00C0
0180
0300
0000
0718
0638
0000
3038
3038
3038
3030
6030
6070
60F0
60F0
61E0
E3E0
E760
EEE0
FCE0
70C0
ENDCHAR
STARTCHAR uni01D9
ENCODING 473
SWIDTH 693 0
DWIDTH 18 0
BBX 16 27 3 0
BITMAP
0638
0370
0360
01C0
0000
038C
031C
0000
3803
3807
3807
3806
3006
7006
700E
700E
700C
600C
E00C
E01C
E018
E018
E038
E030
7070
7FE0
1F80
ENDCHAR
STARTCHAR uni01DA
ENCODING 474
SWIDTH 620 0
DWIDTH 16 0
BBX 13 22 3 0
BITMAP
0C70
06E0
06C0
0380
0000
0718
0638
0000
3038
3038
3038
3030
6030
6070
60F0
60F0
61E0
E3E0
E760
EEE0
FCE0
70C0
ENDCHAR
STARTCHAR uni01DB
ENCODING 475
SWIDTH 693 0
DWIDTH 18 0
BBX 16 27 3 0
BITMAP
0380
01C0
00C0
0060
0000
038C
031C
0000
3803
3807
3807
3806
3006
7006
700E
700E
700C
600C
E00C
E01C
E018
E018
E038
E030
7070
7FE0
1F80
ENDCHAR
STARTCHAR uni01DC
ENCODING 476
SWIDTH 620 0
DWIDTH 16 0
BBX 13 22 3 0
BITMAP
0700
0380
0180
00C0
0000
0718
0638
0000
3038
3038
3038
3030
6030
6070
60F0
60F0
61E0
E3E0
E760
EEE0
FCE0
70C0
ENDCHAR
STARTCHAR uni01DD
ENCODING 477
SWIDTH 529 0
DWIDTH 14 0
BBX 11 14 2 0
BITMAP
1F80
7FC0
E0E0
80E0
00E0
01E0
1FE0
3CE0
60C0
C1C0
C180
C700
FE00
7800
ENDCHAR
STARTCHAR uni01DE
ENCODING 478
SWIDTH 687 0
DWIDTH 18 0
BBX 17 25 1 0
BITMAP
01FE00
01FE00
000000
00E300
00C700
000000
003800
003C00
007C00
007C00
00EC00
00CC00
01CE00
038E00
030E00
070600
060600
0E0700
0FFF00
1FFF00
180700
380300
700380
600380
E00380
ENDCHAR
STARTCHAR uni01DF
ENCODING 479
SWIDTH 608 0
DWIDTH 16 0
BBX 14 20 2 0
BITMAP
07F8
07F8
0000
038C
031C
0000
01FC
07FC
0E1C
1C18
3818
7038
7078
6078
E0F0
E1F0
E3F0
E770
FE70
7860
ENDCHAR
STARTCHAR uni01E0
ENCODING 480
SWIDTH 687 0
DWIDTH 18 0
BBX 17 25 1 0
BITMAP
03FC00
03FC00
000000
007000
007000
000000
003800
003C00
007C00
007C00
00EC00
00CC00
01CE00
038E00
030E00
070600
060600
0E0700
0FFF00
1FFF00
180700
380300
700380
600380
E00380
ENDCHAR
STARTCHAR uni01E1
ENCODING 481
SWIDTH 608 0
DWIDTH 16 0
BBX 14 20 2 0
BITMAP
07F8
07F8
0000
01C0
01C0
0000
01FC
07FC
0E1C
1C18
3818
7038
7078
6078
E0F0
E1F0
E3F0
E770
FE70
7860
ENDCHAR
STARTCHAR uni01E2
ENCODING 482
SWIDTH 893 0
DWIDTH 23 0
BBX 26 22 0 0
BITMAP
000FF000
000FF000
00000000
0003FFC0
0007FFC0
0007C000
000F8000
001F8000
003B8000
00338000
00738000
00E3FE00
01C7FE00
01870000
03070000
07FF0000
0FFE0000
1C0E0000
180E0000
380E0000
700FFE00
E00FFE00
ENDCHAR
STARTCHAR uni01E3
ENCODING 483
SWIDTH 893 0
DWIDTH 23 0
BBX 21 17 2 0
BITMAP
00FF00
00FF00
000000
01FDF0
07FFF8
0E1E38
1C1C38
381830
703870
7079E0
60FF80
E0FC00
E1B000
E3B008
E73838
FE1FF0
780FC0
ENDCHAR
STARTCHAR uni01E4
ENCODING 484
SWIDTH 702 0
DWIDTH 18 0
BBX 17 19 3 0
BITMAP
00FF00
03FF80
0F8180
1E0000
3C0000
380000
700000
700000
600000
E00000
E00000
E00600
E00E00
E01F80
E01F80
700C00
781C00
3FFC00
0FE000
ENDCHAR
STARTCHAR uni01E5
ENCODING 485
SWIDTH 608 0
DWIDTH 16 0
BBX 15 19 1 -5
BITMAP
00FE
03FE
070C
0E0C
1C0C
381C
381C
3038
7078
70D8
71B8
73B8
3F30
FFFE
FFFE
0060
C0E0
FFC0
7F00
ENDCHAR
STARTCHAR Gcaron
ENCODING 486
SWIDTH 702 0
DWIDTH 18 0
BBX 17 24 3 0
BITMAP
031C00
01B800
01B000
00E000
000000
00FF00
03FF80
0F8180
1E0000
3C0000
380000
700000
700000
600000
E00000
E00000
E00600
E00E00
E00E00
E00E00
700C00
781C00
3FFC00
0FE000
ENDCHAR
STARTCHAR gcaron
ENCODING 487
SWIDTH 608 0
DWIDTH 16 0
BBX 15 24 1 -5
BITMAP
0638
0370
0360
01C0
0000
00FE
03FE
070C
0E0C
1C0C
381C
381C
3038
7078
70D8
71B8
73B8
3F30
3C30
0070
0060
C0E0
FFC0
7F00
ENDCHAR
STARTCHAR uni01E8
ENCODING 488
SWIDTH 635 0
DWIDTH 17 0
BBX 16 24 3 0
BITMAP
0638
0370
0360
01C0
0000
0C07
1C0E
1C1C
1C38
1870
18E0
39C0
3B80
3F00
3600
3300
7300
7180
71C0
70C0
6060
E070
E030
E018
ENDCHAR
STARTCHAR uni01E9
ENCODING 489
SWIDTH 572 0
DWIDTH 15 0
BBX 14 24 2 0
BITMAP
31C0
1B80
1B00
0E00
0000
0E00
0C00
0C00
1C00
1C00
183C
1870
18E0
39C0
3B80
3700
3E00
7700
7380
6380
61C0
60E0
E060
E070
ENDCHAR
STARTCHAR uni01EA
ENCODING 490
SWIDTH 777 0
DWIDTH 20 0
BBX 18 23 3 -4
BITMAP
00FC00
03FF00
078780
0E03C0
1C01C0
3801C0
7001C0
7001C0
6001C0
E001C0
E001C0
E00180
E00380
E00700
E00700
701E00
783C00
3FF000
0FC000
018000
030000
030000
01C000
ENDCHAR
STARTCHAR uni01EB
ENCODING 491
SWIDTH 566 0
DWIDTH 15 0
BBX 13 18 2 -4
BITMAP
03C0
0FF0
1C30
3838
7038
6038
E038
E030
E070
E070
E0E0
E1C0
7F80
3E00
0600
0C00
0C00
0700
ENDCHAR
STARTCHAR uni01EC
ENCODING 492
SWIDTH 777 0
DWIDTH 20 0
BBX 18 26 3 -4
BITMAP
03FC00
03FC00
000000
00FC00
03FF00
078780
0E03C0
1C01C0
3801C0
7001C0
7001C0
6001C0
E001C0
E001C0
E00180
E00380
E00700
E00700
701E00
783C00
3FF000
0FC000
018000
030000
030000
01C000
ENDCHAR
STARTCHAR uni01ED
ENCODING 493
SWIDTH 566 0
DWIDTH 15 0
BBX 13 21 2 -4
BITMAP
1FE0
1FE0
0000
03C0
0FF0
1C30
3838
7038
6038
E038
E030
E070
E070
E0E0
E1C0
7F80
3E00
0600
0C00
0C00
0700
ENDCHAR
STARTCHAR uni01F0
ENCODING 496
SWIDTH 325 0
DWIDTH 8 0
BBX 13 24 -2 -5
BITMAP
0638
0370
0360
01C0
0000
0070
0070
0060
0060
00E0
00E0
00E0
00C0
00C0
01C0
01C0
01C0
0180
0180
0380
0300
8600
FE00
F800
ENDCHAR
STARTCHAR uni01F4
ENCODING 500
SWIDTH 702 0
DWIDTH 18 0
BBX 17 24 3 0
BITMAP
003800
006000
00C000
018000
000000
00FF00
03FF80
0F8180
1E0000
3C0000
380000
700000
700000
600000
E00000
E00000
E00600
E00E00
E00E00
E00E00
700C00
781C00
3FFC00
0FE000
ENDCHAR
STARTCHAR uni01F5
ENCODING 501
SWIDTH 608 0
DWIDTH 16 0
BBX 15 24 1 -5
BITMAP
0038
0060
00C0
0180
0000
00FE
03FE
070C
0E0C
1C0C
381C
381C
3038
7078
70D8
71B8
73B8
3F30
3C30
0070
0060
C0E0
FFC0
7F00
ENDCHAR
STARTCHAR uni01F8
ENCODING 504
SWIDTH 741 0
DWIDTH 19 0
BBX 18 24 3 0
BITMAP
038000
01C000
00C000
006000
000000
0C00C0
1E01C0
1E01C0
1F0180
1F0180
1B8180
3B8380
39C380
31C300
30C300
30E300
70E700
707700
607600
603E00
603E00
E01E00
E01E00
C01C00
ENDCHAR
STARTCHAR uni01F9
ENCODING 505
SWIDTH 620 0
DWIDTH 16 0
BBX 13 19 3 0
BITMAP
0E00
0700
0300
0180
0000
1870
39F8
3BB8
3738
3E38
3C38
7830
7830
7070
6070
6070
E060
E060
E0E0
ENDCHAR
STARTCHAR Aringacute
ENCODING 506
SWIDTH 687 0
DWIDTH 18 0
BBX 17 29 1 0
BITMAP
000E00
001800
003000
006000
000000
001800
002400
002400
001800
000000
003800
003C00
007C00
007C00
00EC00
00CC00
01CE00
038E00
030E00
070600
060600
0E0700
0FFF00
1FFF00
180700
380300
700380
600380
E00380
ENDCHAR
STARTCHAR aringacute
ENCODING 507
SWIDTH 608 0
DWIDTH 16 0
BBX 14 24 2 0
BITMAP
0038
0060
00C0
0180
0000
0060
0090
0090
0060
0000
01FC
07FC
0E1C
1C18
3818
7038
7078
6078
E0F0
E1F0
E3F0
E770
FE70
7860
ENDCHAR
STARTCHAR AEacute
ENCODING 508
SWIDTH 893 0
DWIDTH 23 0
BBX 26 24 0 0
BITMAP
00007000
0000C000
00018000
00030000
00000000
0003FFC0
0007FFC0
0007C000
000F8000
001F8000
003B8000
00338000
00738000
00E3FE00
01C7FE00
01870000
03070000
07FF0000
0FFE0000
1C0E0000
180E0000
380E0000
700FFE00
E00FFE00
ENDCHAR
STARTCHAR aeacute
ENCODING 509
SWIDTH 893 0
DWIDTH 23 0
BBX 21 19 2 0
BITMAP
000700
000C00
001800
003000
000000
01FDF0
07FFF8
0E1E38
1C1C38
381830
703870
7079E0
60FF80
E0FC00
E1B000
E3B008
E73838
FE1FF0
780FC0
ENDCHAR
STARTCHAR Oslashacute
ENCODING 510
SWIDTH 777 0
DWIDTH 20 0
BBX 22 24 5 0
BITMAP
000380
000600
000C00
001800
000000
003F1C
00FFF0
01E1E0
0380F0
0701F0
0E0370
1C0670
1C0C70
181870
383070
386070
38C060
3980E0
3B01C0
3E01C0
1C0780
1E0F00
3FFC00
E3F000
ENDCHAR
STARTCHAR oslashacute
ENCODING 511
SWIDTH 566 0
DWIDTH 15 0
BBX 15 19 3 0
BITMAP
0038
0060
00C0
0180
0000
01EE
07FC
0E38
1C7C
387C
30DC
719C
7318
7638
7C38
7C70
78E0
7FC0
FF00
ENDCHAR
STARTCHAR Scommaaccent
ENCODING 536
SWIDTH 553 0
DWIDTH 14 0
BBX 15 29 2 -10
BITMAP
01F8
07FE
0E04
1C00
1C00
1C00
1C00
0F00
0780
03C0
01E0
00F0
0070
0030
0030
0070
C0E0
FFC0
7F00
0000
0780
0780
0780
0700
0300
0300
0300
0600
0C00
ENDCHAR
STARTCHAR scommaaccent
ENCODING 537
SWIDTH 489 0
DWIDTH 13 0
BBX 11 24 2 -10
BITMAP
07C0
1FE0
1C60
3800
1800
1C00
0E00
0700
0380
0180
0180
C380
FF80
7E00
0000
1E00
1E00
1E00
1C00
0C00
0C00
0C00
1800
3000
ENDCHAR
STARTCHAR Tcommaaccent
ENCODING 538
SWIDTH 623 0
DWIDTH 16 0
BBX 16 29 4 -10
BITMAP
FFFF
FFFF
0380
0380
0380
0300
0300
0700
0700
0700
0700
0600
0E00
0E00
0E00
0E00
0C00
0C00
1C00
0000
0F00
0F00
0F00
0E00
0600
0600
0600
0C00
1800
ENDCHAR
STARTCHAR tcommaaccent
ENCODING 539
SWIDTH 383 0
DWIDTH 10 0
BBX 8 27 3 -10
BITMAP
18
18
18
FF
FF
38
30
30
70
70
70
60
60
E0
60
7C
38
00
78
78
78
70
30
30
30
60
C0
ENDCHAR
STARTCHAR uni021E
ENCODING 542
SWIDTH 735 0
DWIDTH 19 0
BBX 18 24 2 0
BITMAP
031C00
01B800
01B000
00E000
000000
0C01C0
1C01C0
1C01C0
1C0180
180380
180380
380380
380380
3FFF00
3FFF00
300700
700700
700700
700600
700E00
600E00
E00E00
E00E00
E00C00
ENDCHAR
STARTCHAR uni021F
ENCODING 543
SWIDTH 620 0
DWIDTH 16 0
BBX 13 24 3 0
BITMAP
31C0
1B80
1B00
0E00
0000
0C00
0C00
1C00
1C00
1800
1870
19F8
3BB8
3F38
3E38
3C38
3C30
7830
7070
6070
6070
6060
E060
E0E0
ENDCHAR
STARTCHAR uni0226
ENCODING 550
SWIDTH 687 0
DWIDTH 18 0
BBX 17 22 1 0
BITMAP
007000
007000
000000
003800
003C00
007C00
007C00
00EC00
00CC00
01CE00
038E00
030E00
070600
060600
0E0700
0FFF00
1FFF00
180700
380300
700380
600380
E00380
ENDCHAR
STARTCHAR uni0227
ENCODING 551
SWIDTH 608 0
DWIDTH 16 0
BBX 14 17 2 0
BITMAP
01C0
01C0
0000
01FC
07FC
0E1C
1C18
3818
7038
7078
6078
E0F0
E1F0
E3F0
E770
FE70
7860
ENDCHAR
STARTCHAR uni0228
ENCODING 552
SWIDTH 547 0
DWIDTH 14 0
BBX 14 24 3 -5
BITMAP
0FFC
1FFC
1C00
1C00
1800
1800
3800
3800
3FE0
3FE0
3000
7000
7000
7000
6000
6000
E000
FFE0
FFE0
0C00
0600
0600
0600
1C00
ENDCHAR
STARTCHAR uni0229
ENCODING 553
SWIDTH 529 0
DWIDTH 14 0
BBX 11 19 2 -5
BITMAP
03C0
0FE0
1C60
3060
7060
60C0
E780
FF00
F000
E000
E020
E0E0
7FC0
3F00
0C00
0600
0600
0600
1C00
ENDCHAR
STARTCHAR uni022A
ENCODING 554
SWIDTH 777 0
DWIDTH 20 0
BBX 18 25 3 0
BITMAP
03FC00
03FC00
000000
01C600
018E00
000000
00FC00
03FF00
078780
0E03C0
1C01C0
3801C0
7001C0
7001C0
6001C0
E001C0
E001C0
E00180
E00380
E00700
E00700
701E00
783C00
3FF000
0FC000
ENDCHAR
STARTCHAR uni022B
ENCODING 555
SWIDTH 566 0
DWIDTH 15 0
BBX 13 20 2 0
BITMAP
0FF0
0FF0
0000
0718
0638
0000
03C0
0FF0
1C30
3838
7038
6038
E038
E030
E070
E070
E0E0
E1C0
7F80
3E00
ENDCHAR
STARTCHAR uni022C
ENCODING 556
SWIDTH 777 0
DWIDTH 20 0
BBX 18 25 3 0
BITMAP
03FC00
03FC00
000000
00F600
01BC00
000000
00FC00
03FF00
078780
0E03C0
1C01C0
3801C0
7001C0
7001C0
6001C0
E001C0
E001C0
E00180
E00380
E00700
E00700
701E00
783C00
3FF000
0FC000
ENDCHAR
STARTCHAR uni022D
ENCODING 557
SWIDTH 566 0
DWIDTH 15 0
BBX 13 20 2 0
BITMAP
0FF0
0FF0
0000
03D8
06F0
0000
03C0
0FF0
1C30
3838
7038
6038
E038
E030
E070
E070
E0E0
E1C0
7F80
3E00
ENDCHAR
STARTCHAR uni022E
ENCODING 558
SWIDTH 777 0
DWIDTH 20 0
BBX 18 22 3 0
BITMAP
007000
007000
000000
00FC00
03FF00
078780
0E03C0
1C01C0
3801C0
7001C0
7001C0
6001C0
E001C0
E001C0
E00180
E00380
E00700
E00700
701E00
783C00
3FF000
0FC000
ENDCHAR
STARTCHAR uni022F
ENCODING 559
SWIDTH 566 0
DWIDTH 15 0
BBX 13 17 2 0
BITMAP
0380
0380
0000
03C0
0FF0
1C30
3838
7038
6038
E038
E030
E070
E070
E0E0
E1C0
7F80
3E00
ENDCHAR
STARTCHAR uni0230
ENCODING 560
SWIDTH 777 0
DWIDTH 20 0
BBX 18 25 3 0
BITMAP
03FC00
03FC00
000000
007000
007000
000000
00FC00
03FF00
078780
0E03C0
1C01C0
3801C0
7001C0
7001C0
6001C0
E001C0
E001C0
E00180
E00380
E00700
E00700
701E00
783C00
3FF000
0FC000
ENDCHAR
STARTCHAR uni0231
ENCODING 561
SWIDTH 566 0
DWIDTH 15 0
BBX 13 20 2 0
BITMAP
1FE0
1FE0
0000
0380
0380
0000
03C0
0FF0
1C30
3838
7038
6038
E038
E030
E070
E070
E0E0
E1C0
7F80
3E00
ENDCHAR
STARTCHAR uni0232
ENCODING 562
SWIDTH 608 0
DWIDTH 16 0
BBX 15 22 4 0
BITMAP
1FE0
1FE0
0000
E00E
601C
7038
7030
3860
38E0
1DC0
1D80
0F00
0F00
0E00
0E00
0E00
0C00
0C00
1C00
1C00
1C00
1800
ENDCHAR
STARTCHAR uni0233
ENCODING 563
SWIDTH 548 0
DWIDTH 14 0
BBX 14 22 3 -5
BITMAP
1FE0
1FE0
0000
601C
7018
7030
7030
3060
30E0
30C0
3980
3980
3B00
1F00
1E00
1C00
1C00
1800
3800
3000
6000
E000
ENDCHAR
STARTCHAR uni0250
ENCODING 592
SWIDTH 608 0
DWIDTH 16 0
BBX 14 14 2 0
BITMAP
1878
39FC
3B9C
3F1C
3E1C
3C1C
7818
7838
7038
6070
60E0
E1C0
FF80
FE00
ENDCHAR
STARTCHAR uni0259
ENCODING 601
SWIDTH 529 0
DWIDTH 14 0
BBX 11 14 2 0
BITMAP
1F80
7FC0
E0E0
80E0
00E0
01E0
1FE0
3CE0
60C0
C1C0
C180
C700
FE00
7800
ENDCHAR
STARTCHAR uni025F
ENCODING 607
SWIDTH 383 0
DWIDTH 10 0
BBX 13 25 2 -11
BITMAP
0038
0038
0030
0030
0030
0070
0070
0060
0060
0060
00E0
00E0
00C0
00C0
00C0
01C0
01C0
1FF0
1FF0
0180
0380
0300
8F00
FE00
F800
ENDCHAR
STARTCHAR uni0265
ENCODING 613
SWIDTH 620 0
DWIDTH 16 0
BBX 13 19 3 -5
BITMAP
3838
3038
3030
7030
7030
7070
60F0
61E0
E1E0
E3E0
E7E0
EEE0
FCC0
70C0
00C0
01C0
01C0
0180
0180
ENDCHAR
STARTCHAR uni0275
ENCODING 629
SWIDTH 566 0
DWIDTH 15 0
BBX 13 14 2 0
BITMAP
03C0
0FF0
1C30
3838
7038
6038
FFF8
FFF8
E070
E070
E0E0
E1C0
7F80
3E00
ENDCHAR
STARTCHAR uni0279
ENCODING 633
SWIDTH 478 0
DWIDTH 12 0
BBX 12 14 2 0
BITMAP
0070
0070
0060
0060
0060
00E0
01E0
03C0
03C0
06C0
0DC0
5DC0
F180
E180
ENDCHAR
STARTCHAR uni0287
ENCODING 647
SWIDTH 383 0
DWIDTH 10 0
BBX 8 17 3 0
BITMAP
1C
3E
06
07
06
06
0E
0E
0E
0C
0C
1C
FF
FF
18
18
18
ENDCHAR
STARTCHAR uni0289
ENCODING 649
SWIDTH 620 0
DWIDTH 16 0
BBX 13 14 3 0
BITMAP
3038
3038
3038
3030
6030
6070
FFF8
FFF8
61E0
E3E0
E760
EEE0
FCE0
70C0
ENDCHAR
STARTCHAR uni028C
ENCODING 652
SWIDTH 545 0
DWIDTH 14 0
BBX 13 14 3 0
BITMAP
00E0
00E0
01F0
01F0
0370
0730
0630
0C30
1C30
1830
3838
3038
6038
E018
ENDCHAR
STARTCHAR uni028D
ENCODING 653
SWIDTH 795 0
DWIDTH 20 0
BBX 19 14 3 0
BITMAP
01C1C0
03C3C0
03C3C0
07C7C0
06C6C0
0EC6C0
0CCCC0
1CCCC0
18D8E0
38D8E0
30F0E0
70F0E0
60E0E0
E0E060
ENDCHAR
STARTCHAR uni028E
ENCODING 654
SWIDTH 548 0
DWIDTH 14 0
BBX 14 19 3 0
BITMAP
001C
0018
0030
0070
0060
00E0
00E0
01E0
03E0
0370
0670
0670
0C30
1C30
1830
3038
3038
6038
E018
ENDCHAR
STARTCHAR uni029E
ENCODING 670
SWIDTH 572 0
DWIDTH 15 0
BBX 14 19 2 -5
BITMAP
381C
181C
1C18
0E18
0718
0738
03B8
01F0
03B0
0770
0E70
1C60
3860
F060
00E0
00E0
00C0
00C0
01C0
ENDCHAR
STARTCHAR uni02BB
ENCODING 699
SWIDTH 217 0
DWIDTH 6 0
BBX 5 7 4 12
BITMAP
18
30
60
60
70
F0
E0
ENDCHAR
STARTCHAR afii57929
ENCODING 700
SWIDTH 217 0
DWIDTH 6 0
BBX 5 7 4 12
BITMAP
38
78
70
30
70
E0
80
ENDCHAR
STARTCHAR afii64937
ENCODING 701
SWIDTH 217 0
DWIDTH 6 0
BBX 5 7 4 12
BITMAP
E0
F0
70
60
70
38
08
ENDCHAR
STARTCHAR circumflex
ENCODING 710
SWIDTH 566 0
DWIDTH 15 0
BBX 8 4 7 15
BITMAP
1E
3E
76
E3
ENDCHAR
STARTCHAR caron
ENCODING 711
SWIDTH 568 0
DWIDTH 15 0
BBX 8 4 8 15
BITMAP
C7
6E
6C
38
ENDCHAR
STARTCHAR uni02C8
ENCODING 712
SWIDTH 217 0
DWIDTH 6 0
BBX 3 6 5 13
BITMAP
E0
E0
E0
E0
E0
60
ENDCHAR
STARTCHAR macron
ENCODING 713
SWIDTH 566 0
DWIDTH 15 0
BBX 8 2 7 17
BITMAP
FF
FF
ENDCHAR
STARTCHAR uni02CA
ENCODING 714
SWIDTH 566 0
DWIDTH 15 0
BBX 6 4 9 15
BITMAP
1C
30
60
C0
ENDCHAR
STARTCHAR uni02CB
ENCODING 715
SWIDTH 572 0
DWIDTH 15 0
BBX 5 4 8 15
BITMAP
E0
70
30
18
ENDCHAR
STARTCHAR uni02CD
ENCODING 717
SWIDTH 566 0
DWIDTH 15 0
BBX 8 2 7 -3
BITMAP
FF
FF
ENDCHAR
STARTCHAR uni02CE
ENCODING 718
SWIDTH 572 0
DWIDTH 15 0
BBX 5 4 8 -5
BITMAP
E0
70
30
18
ENDCHAR
STARTCHAR uni02CF
ENCODING 719
SWIDTH 566 0
DWIDTH 15 0
BBX 6 4 9 -5
BITMAP
1C
30
60
C0
ENDCHAR
STARTCHAR breve
ENCODING 728
SWIDTH 566 0
DWIDTH 15 0
BBX 8 4 8 15
BITMAP
C3
C2
7E
78
ENDCHAR
STARTCHAR dotaccent
ENCODING 729
SWIDTH 566 0
DWIDTH 15 0
BBX 3 2 10 17
BITMAP
E0
E0
ENDCHAR
STARTCHAR ring
ENCODING 730
SWIDTH 567 0
DWIDTH 15 0
BBX 4 4 9 16
BITMAP
60
90
90
60
ENDCHAR
STARTCHAR ogonek
ENCODING 731
SWIDTH 566 0
DWIDTH 15 0
BBX 4 4 5 -4
BITMAP
60
C0
C0
70
ENDCHAR
STARTCHAR tilde
ENCODING 732
SWIDTH 566 0
DWIDTH 15 0
BBX 8 2 7 17
BITMAP
7B
DE
ENDCHAR
STARTCHAR hungarumlaut
ENCODING 733
SWIDTH 566 0
DWIDTH 15 0
BBX 9 4 7 15
BITMAP
1F80
3600
6C00
D800
ENDCHAR
STARTCHAR uni02EE
ENCODING 750
SWIDTH 361 0
DWIDTH 9 0
BBX 8 6 4 13
BITMAP
73
67
23
62
46
8C
ENDCHAR
STARTCHAR uni037E
ENCODING 894
SWIDTH 316 0
DWIDTH 8 0
BBX 6 19 2 -5
BITMAP
1C
1C
00
00
00
00
00
00
00
00
00
70
70
60
20
60
60
C0
80
ENDCHAR
STARTCHAR tonos
ENCODING 900
SWIDTH 566 0
DWIDTH 15 0
BBX 6 4 9 15
BITMAP
1C
30
60
C0
ENDCHAR
STARTCHAR dieresistonos
ENCODING 901
SWIDTH 566 0
DWIDTH 15 0
BBX 8 7 7 17
BITMAP
07
0C
18
30
00
E3
C7
ENDCHAR
STARTCHAR anoteleia
ENCODING 903
SWIDTH 316 0
DWIDTH 16 0
BBX 4 3 8 7
BITMAP
70
F0
E0
ENDCHAR
STARTCHAR mu
ENCODING 956
SWIDTH 627 0
DWIDTH 16 0
BBX 15 18 2 -4
BITMAP
1C0E
1C0E
1C0C
180C
180C
381C
381C
3838
3078
30D8
70F8
73B8
7F30
7E30
6000
E000
E000
E000
ENDCHAR
STARTCHAR uni1E00
ENCODING 7680
SWIDTH 687 0
DWIDTH 18 0
BBX 17 24 1 -5
BITMAP
003800
003C00
007C00
007C00
00EC00
00CC00
01CE00
038E00
030E00
070600
060600
0E0700
0FFF00
1FFF00
180700
380300
700380
600380
E00380
000000
00C000
012000
012000
00C000
ENDCHAR
STARTCHAR uni1E01
ENCODING 7681
SWIDTH 608 0
DWIDTH 16 0
BBX 14 19 2 -5
BITMAP
01FC
07FC
0E1C
1C18
3818
7038
7078
6078
E0F0
E1F0
E3F0
E770
FE70
7860
0000
0600
0900
0900
0600
ENDCHAR
STARTCHAR uni1E02
ENCODING 7682
SWIDTH 593 0
DWIDTH 15 0
BBX 14 22 2 0
BITMAP
0380
0380
0000
0FF0
1FF8
1C3C
1C1C
181C
1838
3838
38F0
3FC0
3FC0
30F0
7070
7038
7038
7038
6070
E0F0
FFE0
FF80
ENDCHAR
STARTCHAR uni1E03
ENCODING 7683
SWIDTH 608 0
DWIDTH 16 0
BBX 14 22 2 0
BITMAP
0E00
0E00
0000
0E00
0C00
0C00
1C00
1C00
1878
19FC
3B9C
3F1C
361C
3C1C
3818
7838
7038
6070
60E0
61C0
FF80
FE00
ENDCHAR
STARTCHAR uni1E04
ENCODING 7684
SWIDTH 593 0
DWIDTH 15 0
BBX 14 22 2 -3
BITMAP
0FF0
1FF8
1C3C
1C1C
181C
1838
3838
38F0
3FC0
3FC0
30F0
7070
7038
7038
7038
6070
E0F0
FFE0
FF80
0000
0700
0700
ENDCHAR
STARTCHAR uni1E05
ENCODING 7685
SWIDTH 608 0
DWIDTH 16 0
BBX 14 22 2 -3
BITMAP
0E00
0C00
0C00
1C00
1C00
1878
19FC
3B9C
3F1C
361C
3C1C
3818
7838
7038
6070
60E0
61C0
FF80
FE00
0000
0E00
0E00
ENDCHAR
STARTCHAR uni1E06
ENCODING 7686
SWIDTH 593 0
DWIDTH 15 0
BBX 14 22 2 -3
BITMAP
0FF0
1FF8
1C3C
1C1C
181C
1838
3838
38F0
3FC0
3FC0
30F0
7070
7038
7038
7038
6070
E0F0
FFE0
FF80
0000
3FC0
3FC0
ENDCHAR
STARTCHAR uni1E07
ENCODING 7687
SWIDTH 608 0
DWIDTH 16 0
BBX 14 22 2 -3
BITMAP
0E00
0C00
0C00
1C00
1C00
1878
19FC
3B9C
3F1C
361C
3C1C
3818
7838
7038
6070
60E0
61C0
FF80
FE00
0000
3FC0
3FC0
ENDCHAR
STARTCHAR uni1E08
ENCODING 7688
SWIDTH 679 0
DWIDTH 18 0
BBX 17 29 3 -5
BITMAP
003800
006000
00C000
018000
000000
00FF00
03FF80
0F8180
1E0000
3C0000
380000
700000
700000
700000
E00000
E00000
E00000
E00000
E00000
E00000
700400
781C00
3FFC00
0FE000
060000
030000
030000
030000
0E0000
ENDCHAR
STARTCHAR uni1E09
ENCODING 7689
SWIDTH 503 0
DWIDTH 13 0
BBX 12 24 2 -5
BITMAP
01C0
0300
0600
0C00
0000
03F0
0FF0
1C10
3800
7000
6000
E000
E000
E000
E000
E040
E1C0
7FC0
3E00
1800
0C00
0C00
0C00
3800
ENDCHAR
STARTCHAR uni1E0A
ENCODING 7690
SWIDTH 743 0
DWIDTH 19 0
BBX 18 22 2 0
BITMAP
00E000
00E000
000000
0FFC00
1FFF00
1C0F80
1C03C0
1C01C0
1801C0
3801C0
3801C0
3801C0
3801C0
300180
700380
700380
700700
700E00
601E00
E03C00
FFF000
FFC000
ENDCHAR
STARTCHAR uni1E0B
ENCODING 7691
SWIDTH 608 0
DWIDTH 16 0
BBX 15 22 2 0
BITMAP
0038
0038
0000
000E
000E
000C
000C
001C
01FC
07FC
0E18
1C18
3838
7038
7078
60F0
E0F0
E1F0
E3F0
E770
FE60
7860
ENDCHAR
STARTCHAR uni1E0C
ENCODING 7692
SWIDTH 743 0
DWIDTH 19 0
BBX 18 22 2 -3
BITMAP
0FFC00
1FFF00
1C0F80
1C03C0
1C01C0
1801C0
3801C0
3801C0
3801C0
3801C0
300180
700380
700380
700700
700E00
601E00
E03C00
FFF000
FFC000
000000
038000
038000
ENDCHAR
STARTCHAR uni1E0D
ENCODING 7693
SWIDTH 608 0
DWIDTH 16 0
BBX 15 22 2 -3
BITMAP
000E
000E
000C
000C
001C
01FC
07FC
0E18
1C18
3838
7038
7078
60F0
E0F0
E1F0
E3F0
E770
FE60
7860
0000
0700
0700
ENDCHAR
STARTCHAR uni1E0E
ENCODING 7694
SWIDTH 743 0
DWIDTH 19 0
BBX 18 22 2 -3
BITMAP
0FFC00
1FFF00
1C0F80
1C03C0
1C01C0
1801C0
3801C0
3801C0
3801C0
3801C0
300180
700380
700380
700700
700E00
601E00
E03C00
FFF000
FFC000
000000
0FF000
0FF000
ENDCHAR
STARTCHAR uni1E0F
ENCODING 7695
SWIDTH 608 0
DWIDTH 16 0
BBX 15 22 2 -3
BITMAP
000E
000E
000C
000C
001C
01FC
07FC
0E18
1C18
3838
7038
7078
60F0
E0F0
E1F0
E3F0
E770
FE60
7860
0000
3FC0
3FC0
ENDCHAR
STARTCHAR uni1E10
ENCODING 7696
SWIDTH 743 0
DWIDTH 19 0
BBX 18 24 2 -5
BITMAP
0FFC00
1FFF00
1C0F80
1C03C0
1C01C0
1801C0
3801C0
3801C0
3801C0
3801C0
300180
700380
700380
700700
700E00
601E00
E03C00
FFF000
FFC000
030000
018000
018000
018000
070000
ENDCHAR
STARTCHAR uni1E11
ENCODING 7697
SWIDTH 608 0
DWIDTH 16 0
BBX 15 24 2 -5
BITMAP
000E
000E
000C
000C
001C
01FC
07FC
0E18
1C18
3838
7038
7078
60F0
E0F0
E1F0
E3F0
E770
FE60
7A60
0600
0300
0300
0300
0E00
ENDCHAR
STARTCHAR uni1E12
ENCODING 7698
SWIDTH 743 0
DWIDTH 19 0
BBX 18 24 2 -5
BITMAP
0FFC00
1FFF00
1C0F80
1C03C0
1C01C0
1801C0
3801C0
3801C0
3801C0
3801C0
300180
700380
700380
700700
700E00
601E00
E03C00
FFF000
FFC000
000000
03C000
07C000
0EC000
1C6000
ENDCHAR
STARTCHAR uni1E13
ENCODING 7699
SWIDTH 608 0
DWIDTH 16 0
BBX 15 24 2 -5
BITMAP
000E
000E
000C
000C
001C
01FC
07FC
0E18
1C18
3838
7038
7078
60F0
E0F0
E1F0
E3F0
E770
FE60
7860
0000
0780
0F80
1D80
38C0
ENDCHAR
STARTCHAR uni1E14
ENCODING 7700
SWIDTH 547 0
DWIDTH 14 0
BBX 14 27 3 0
BITMAP
0E00
0700
0300
0180
0000
1FE0
1FE0
0000
0FFC
1FFC
1C00
1C00
1800
1800
3800
3800
3FE0
3FE0
3000
7000
7000
7000
6000
6000
E000
FFE0
FFE0
ENDCHAR
STARTCHAR uni1E15
ENCODING 7701
SWIDTH 529 0
DWIDTH 14 0
BBX 11 22 2 0
BITMAP
0E00
0700
0300
0180
0000
1FE0
1FE0
0000
03C0
0FE0
1C60
3060
7060
60C0
E780
FF00
F000
E000
E020
E0E0
7FC0
3F00
ENDCHAR
STARTCHAR uni1E16
ENCODING 7702
SWIDTH 547 0
DWIDTH 14 0
BBX 14 27 3 0
BITMAP
00E0
0180
0300
0600
0000
1FE0
1FE0
0000
0FFC
1FFC
1C00
1C00
1800
1800
3800
3800
3FE0
3FE0
3000
7000
7000
7000
6000
6000
E000
FFE0
FFE0
ENDCHAR
STARTCHAR uni1E17
ENCODING 7703
SWIDTH 529 0
DWIDTH 14 0
BBX 11 22 2 0
BITMAP
00E0
0180
0300
0600
0000
1FE0
1FE0
0000
03C0
0FE0
1C60
3060
7060
60C0
E780
FF00
F000
E000
E020
E0E0
7FC0
3F00
ENDCHAR
STARTCHAR uni1E18
ENCODING 7704
SWIDTH 547 0
DWIDTH 14 0
BBX 14 24 3 -5
BITMAP
0FFC
1FFC
1C00
1C00
1800
1800
3800
3800
3FE0
3FE0
3000
7000
7000
7000
6000
6000
E000
FFE0
FFE0
0000
0F00
1F00
3B00
7180
ENDCHAR
STARTCHAR uni1E19
ENCODING 7705
SWIDTH 529 0
DWIDTH 14 0
BBX 11 19 2 -5
BITMAP
03C0
0FE0
1C60
3060
7060
60C0
E780
FF00
F000
E000
E020
E0E0
7FC0
3F00
0000
0F00
1F00
3B00
7180
ENDCHAR
STARTCHAR uni1E1A
ENCODING 7706
SWIDTH 547 0
DWIDTH 14 0
BBX 14 22 3 -3
BITMAP
0FFC
1FFC
1C00
1C00
1800
1800
3800
3800
3FE0
3FE0
3000
7000
7000
7000
6000
6000
E000
FFE0
FFE0
0000
3D80
6F00
ENDCHAR
STARTCHAR uni1E1B
ENCODING 7707
SWIDTH 529 0
DWIDTH 14 0
BBX 11 17 2 -3
BITMAP
03C0
0FE0
1C60
3060
7060
60C0
E780
FF00
F000
E000
E020
E0E0
7FC0
3F00
0000
3D80
6F00
ENDCHAR
STARTCHAR uni1E1C
ENCODING 7708
SWIDTH 547 0
DWIDTH 14 0
BBX 14 29 3 -5
BITMAP
1860
1840
0FC0
0F00
0000
0FFC
1FFC
1C00
1C00
1800
1800
3800
3800
3FE0
3FE0
3000
7000
7000
7000
6000
6000
E000
FFE0
FFE0
0C00
0600
0600
0600
1C00
ENDCHAR
STARTCHAR uni1E1D
ENCODING 7709
SWIDTH 529 0
DWIDTH 14 0
BBX 11 24 2 -5
BITMAP
1860
1840
0FC0
0F00
0000
03C0
0FE0
1C60
3060
7060
60C0
E780
FF00
F000
E000
E020
E0E0
7FC0
3F00
0C00
0600
0600
0600
1C00
ENDCHAR
STARTCHAR uni1E1E
ENCODING 7710
SWIDTH 536 0
DWIDTH 14 0
BBX 14 22 3 0
BITMAP
0380
0380
0000
0FFC
1FFC
1C00
1C00
1800
1800
3800
3800
3FE0
3FE0
3000
7000
7000
7000
7000
6000
E000
E000
E000
ENDCHAR
STARTCHAR uni1E1F
ENCODING 7711
SWIDTH 383 0
DWIDTH 10 0
BBX 13 28 2 -5
BITMAP
0380
0380
0000
00F8
03F8
0788
0600
0E00
0C00
7FC0
7FC0
1C00
1C00
1800
1800
1800
3800
3800
3000
3000
3000
7000
7000
6000
6000
6000
E000
E000
ENDCHAR
STARTCHAR uni1E20
ENCODING 7712
SWIDTH 702 0
DWIDTH 18 0
BBX 17 22 3 0
BITMAP
07F800
07F800
000000
00FF00
03FF80
0F8180
1E0000
3C0000
380000
700000
700000
600000
E00000
E00000
E00600
E00E00
E00E00
E00E00
700C00
781C00
3FFC00
0FE000
ENDCHAR
STARTCHAR uni1E21
ENCODING 7713
SWIDTH 608 0
DWIDTH 16 0
BBX 15 22 1 -5
BITMAP
07F8
07F8
0000
00FE
03FE
070C
0E0C
1C0C
381C
381C
3038
7078
70D8
71B8
73B8
3F30
3C30
0070
0060
C0E0
FFC0
7F00
ENDCHAR
STARTCHAR uni1E22
ENCODING 7714
SWIDTH 735 0
DWIDTH 19 0
BBX 18 22 2 0
BITMAP
007000
007000
000000
0C01C0
1C01C0
1C01C0
1C0180
180380
180380
380380
380380
3FFF00
3FFF00
300700
700700
700700
700600
700E00
600E00
E00E00
E00E00
E00C00
ENDCHAR
STARTCHAR uni1E23
ENCODING 7715
SWIDTH 620 0
DWIDTH 16 0
BBX 13 22 3 0
BITMAP
0E00
0E00
0000
0C00
0C00
1C00
1C00
1800
1870
19F8
3BB8
3F38
3E38
3C38
3C30
7830
7070
6070
6070
6060
E060
E0E0
ENDCHAR
STARTCHAR uni1E24
ENCODING 7716
SWIDTH 735 0
DWIDTH 19 0
BBX 18 22 2 -3
BITMAP
0C01C0
1C01C0
1C01C0
1C0180
180380
180380
380380
380380
3FFF00
3FFF00
300700
700700
700700
700600
700E00
600E00
E00E00
E00E00
E00C00
000000
01C000
01C000
ENDCHAR
STARTCHAR uni1E25
ENCODING 7717
SWIDTH 620 0
DWIDTH 16 0
BBX 13 22 3 -3
BITMAP
0C00
0C00
1C00
1C00
1800
1870
19F8
3BB8
3F38
3E38
3C38
3C30
7830
7070
6070
6070
6060
E060
E0E0
0000
0700
0700
ENDCHAR
STARTCHAR uni1E26
ENCODING 7718
SWIDTH 735 0
DWIDTH 19 0
BBX 18 22 2 0
BITMAP
038C00
031C00
000000
0C01C0
1C01C0
1C01C0
1C0180
180380
180380
380380
380380
3FFF00
3FFF00
300700
700700
700700
700600
700E00
600E00
E00E00
E00E00
E00C00
ENDCHAR
STARTCHAR uni1E27
ENCODING 7719
SWIDTH 620 0
DWIDTH 16 0
BBX 13 22 3 0
BITMAP
7180
6380
0000
0C00
0C00
1C00
1C00
1800
1870
19F8
3BB8
3F38
3E38
3C38
3C30
7830
7070
6070
6070
6060
E060
E0E0
ENDCHAR
STARTCHAR uni1E28
ENCODING 7720
SWIDTH 735 0
DWIDTH 19 0
BBX 18 24 2 -5
BITMAP
0C01C0
1C01C0
1C01C0
1C0180
180380
180380
380380
380380
3FFF00
3FFF00
300700
700700
700700
700600
700E00
600E00
E00E00
E00E00
E08C00
018000
00C000
00C000
00C000
038000
ENDCHAR
STARTCHAR uni1E29
ENCODING 7721
SWIDTH 620 0
DWIDTH 16 0
BBX 13 24 3 -5
BITMAP
0C00
0C00
1C00
1C00
1800
1870
19F8
3BB8
3F38
3E38
3C38
3C30
7830
7070
6070
6070
6060
E060
E2E0
0600
0300
0300
0300
0E00
ENDCHAR
STARTCHAR uni1E2A
ENCODING 7722
SWIDTH 735 0
DWIDTH 19 0
BBX 18 24 2 -5
BITMAP
0C01C0
1C01C0
1C01C0
1C0180
180380
180380
380380
380380
3FFF00
3FFF00
300700
700700
700700
700600
700E00
600E00
E00E00
E00E00
E00C00
000000
0C3000
0C2000
07E000
078000
ENDCHAR
STARTCHAR uni1E2B
ENCODING 7723
SWIDTH 620 0
DWIDTH 16 0
BBX 13 24 3 -5
BITMAP
0C00
0C00
1C00
1C00
1800
1870
19F8
3BB8
3F38
3E38
3C38
3C30
7830
7070
6070
6070
6060
E060
E0E0
0000
1860
1840
0FC0
0F00
ENDCHAR
STARTCHAR uni1E2C
ENCODING 7724
SWIDTH 289 0
DWIDTH 8 0
BBX 8 22 1 -3
BITMAP
07
07
07
06
06
0E
0E
0E
0E
0C
1C
1C
1C
1C
18
18
38
38
38
00
7B
DE
ENDCHAR
STARTCHAR uni1E2D
ENCODING 7725
SWIDTH 289 0
DWIDTH 8 0
BBX 8 22 1 -3
BITMAP
07
07
00
00
00
06
0E
0E
0C
0C
0C
1C
1C
18
18
18
38
38
38
00
7B
DE
ENDCHAR
STARTCHAR uni1E2E
ENCODING 7726
SWIDTH 289 0
DWIDTH 8 0
BBX 9 27 3 0
BITMAP
0380
0600
0C00
1800
0000
7180
6380
0000
1C00
1C00
1C00
1800
1800
3800
3800
3800
3800
3000
7000
7000
7000
7000
6000
6000
E000
E000
E000
ENDCHAR
STARTCHAR uni1E2F
ENCODING 7727
SWIDTH 289 0
DWIDTH 8 0
BBX 9 22 3 0
BITMAP
0380
0600
0C00
1800
0000
7180
6380
0000
1800
3800
3800
3000
3000
3000
7000
7000
6000
6000
6000
E000
E000
E000
ENDCHAR
STARTCHAR uni1E30
ENCODING 7728
SWIDTH 635 0
DWIDTH 17 0
BBX 16 24 3 0
BITMAP
0038
0060
00C0
0180
0000
0C07
1C0E
1C1C
1C38
1870
18E0
39C0
3B80
3F00
3600
3300
7300
7180
71C0
70C0
6060
E070
E030
E018
ENDCHAR
STARTCHAR uni1E31
ENCODING 7729
SWIDTH 572 0
DWIDTH 15 0
BBX 14 24 2 0
BITMAP
01C0
0300
0600
0C00
0000
0E00
0C00
0C00
1C00
1C00
183C
1870
18E0
39C0
3B80
3700
3E00
7700
7380
6380
61C0
60E0
E060
E070
ENDCHAR
STARTCHAR uni1E32
ENCODING 7730
SWIDTH 635 0
DWIDTH 17 0
BBX 16 22 3 -3
BITMAP
0C07
1C0E
1C1C
1C38
1870
18E0
39C0
3B80
3F00
3600
3300
7300
7180
71C0
70C0
6060
E070
E030
E018
0000
0700
0700
ENDCHAR
STARTCHAR uni1E33
ENCODING 7731
SWIDTH 572 0
DWIDTH 15 0
BBX 14 22 2 -3
BITMAP
0E00
0C00
0C00
1C00
1C00
183C
1870
18E0
39C0
3B80
3700
3E00
7700
7380
6380
61C0
60E0
E060
E070
0000
0700
0700
ENDCHAR
STARTCHAR uni1E34
ENCODING 7732
SWIDTH 635 0
DWIDTH 17 0
BBX 16 22 3 -3
BITMAP
0C07
1C0E
1C1C
1C38
1870
18E0
39C0
3B80
3F00
3600
3300
7300
7180
71C0
70C0
6060
E070
E030
E018
0000
3FC0
3FC0
ENDCHAR
STARTCHAR uni1E35
ENCODING 7733
SWIDTH 572 0
DWIDTH 15 0
BBX 14 22 2 -3
BITMAP
0E00
0C00
0C00
1C00
1C00
183C
1870
18E0
39C0
3B80
3700
3E00
7700
7380
6380
61C0
60E0
E060
E070
0000
3FC0
3FC0
ENDCHAR
STARTCHAR uni1E36
ENCODING 7734
SWIDTH 545 0
DWIDTH 14 0
BBX 12 22 2 -3
BITMAP
0C00
0C00
1C00
1C00
1C00
1800
1800
3800
3800
3800
3000
3000
7000
7000
7000
6000
6000
FFF0
FFF0
0000
0E00
0E00
ENDCHAR
STARTCHAR uni1E37
ENCODING 7735
SWIDTH 289 0
DWIDTH 8 0
BBX 7 22 2 -3
BITMAP
0E
0E
0C
0C
1C
1C
18
18
38
38
38
30
30
70
70
60
60
E0
E0
00
70
70
ENDCHAR
STARTCHAR uni1E38
ENCODING 7736
SWIDTH 545 0
DWIDTH 14 0
BBX 12 25 2 -3
BITMAP
7F80
7F80
0000
0C00
0C00
1C00
1C00
1C00
1800
1800
3800
3800
3800
3000
3000
7000
7000
7000
6000
6000
FFF0
FFF0
0000
0E00
0E00
ENDCHAR
STARTCHAR uni1E39
ENCODING 7737
SWIDTH 289 0
DWIDTH 8 0
BBX 9 25 2 -3
BITMAP
7F80
7F80
0000
0E00
0E00
0C00
0C00
1C00
1C00
1800
1800
3800
3800
3800
3000
3000
7000
7000
6000
6000
E000
E000
0000
7000
7000
ENDCHAR
STARTCHAR uni1E3A
ENCODING 7738
SWIDTH 545 0
DWIDTH 14 0
BBX 12 22 2 -3
BITMAP
0C00
0C00
1C00
1C00
1C00
1800
1800
3800
3800
3800
3000
3000
7000
7000
7000
6000
6000
FFF0
FFF0
0000
7F80
7F80
ENDCHAR
STARTCHAR uni1E3B
ENCODING 7739
SWIDTH 289 0
DWIDTH 8 0
BBX 9 22 0 -3
BITMAP
0380
0380
0300
0300
0700
0700
0600
0600
0E00
0E00
0E00
0C00
0C00
1C00
1C00
1800
1800
3800
3800
0000
FF00
FF00
ENDCHAR
STARTCHAR uni1E3C
ENCODING 7740
SWIDTH 545 0
DWIDTH 14 0
BBX 12 24 2 -5
BITMAP
0C00
0C00
1C00
1C00
1C00
1800
1800
3800
3800
3800
3000
3000
7000
7000
7000
6000
6000
FFF0
FFF0
0000
0F00
1F00
3B00
7180
ENDCHAR
STARTCHAR uni1E3D
ENCODING 7741
SWIDTH 289 0
DWIDTH 8 0
BBX 9 24 0 -5
BITMAP
0380
0380
0300
0300
0700
0700
0600
0600
0E00
0E00
0E00
0C00
0C00
1C00
1C00
1800
1800
3800
3800
0000
1E00
3E00
7600
E300
ENDCHAR
STARTCHAR uni1E3E
ENCODING 7742
SWIDTH 828 0
DWIDTH 22 0
BBX 20 24 3 0
BITMAP
000E00
001800
003000
006000
000000
0E00F0
1E00F0
1F01F0
1F01E0
1F0360
1B03E0
3B06E0
3306E0
338CC0
339CC0
3398C0
73B9C0
71B1C0
61E180
61E180
61C180
E1C380
E00380
C00300
ENDCHAR
STARTCHAR uni1E3F
ENCODING 7743
SWIDTH 934 0
DWIDTH 24 0
BBX 22 19 2 0
BITMAP
000700
000C00
001800
003000
000000
187838
19F8FC
1B99DC
3F1B9C
361F1C
3C3E1C
3C3C18
383818
703838
603038
607030
607030
606030
C06070
ENDCHAR
STARTCHAR uni1E40
ENCODING 7744
SWIDTH 828 0
DWIDTH 22 0
BBX 20 22 3 0
BITMAP
007000
007000
000000
0E00F0
1E00F0
1F01F0
1F01E0
1F0360
1B03E0
3B06E0
3306E0
338CC0
339CC0
3398C0
73B9C0
71B1C0
61E180
61E180
61C180
E1C380
E00380
C00300
ENDCHAR
STARTCHAR uni1E41
ENCODING 7745
SWIDTH 934 0
DWIDTH 24 0
BBX 22 17 2 0
BITMAP
003800
003800
000000
187838
19F8FC
1B99DC
3F1B9C
361F1C
3C3E1C
3C3C18
383818
703838
603038
607030
607030
606030
C06070
ENDCHAR
STARTCHAR uni1E42
ENCODING 7746
SWIDTH 828 0
DWIDTH 22 0
BBX 20 22 3 -3
BITMAP
0E00F0
1E00F0
1F01F0
1F01E0
1F0360
1B03E0
3B06E0
3306E0
338CC0
339CC0
3398C0
73B9C0
71B1C0
61E180
61E180
61C180
E1C380
E00380
C00300
000000
00E000
00E000
ENDCHAR
STARTCHAR uni1E43
ENCODING 7747
SWIDTH 934 0
DWIDTH 24 0
BBX 22 17 2 -3
BITMAP
187838
19F8FC
1B99DC
3F1B9C
361F1C
3C3E1C
3C3C18
383818
703838
603038
607030
607030
606030
C06070
000000
007000
007000
ENDCHAR
STARTCHAR uni1E44
ENCODING 7748
SWIDTH 741 0
DWIDTH 19 0
BBX 18 22 3 0
BITMAP
00E000
00E000
000000
0C00C0
1E01C0
1E01C0
1F0180
1F0180
1B8180
3B8380
39C380
31C300
30C300
30E300
70E700
707700
607600
603E00
603E00
E01E00
E01E00
C01C00
ENDCHAR
STARTCHAR uni1E45
ENCODING 7749
SWIDTH 620 0
DWIDTH 16 0
BBX 13 17 3 0
BITMAP
0380
0380
0000
1870
39F8
3BB8
3738
3E38
3C38
7830
7830
7070
6070
6070
E060
E060
E0E0
ENDCHAR
STARTCHAR uni1E46
ENCODING 7750
SWIDTH 741 0
DWIDTH 19 0
BBX 18 22 3 -3
BITMAP
0C00C0
1E01C0
1E01C0
1F0180
1F0180
1B8180
3B8380
39C380
31C300
30C300
30E300
70E700
707700
607600
603E00
603E00
E01E00
E01E00
C01C00
000000
01C000
01C000
ENDCHAR
STARTCHAR uni1E47
ENCODING 7751
SWIDTH 620 0
DWIDTH 16 0
BBX 13 17 3 -3
BITMAP
1870
39F8
3BB8
3738
3E38
3C38
7830
7830
7070
6070
6070
E060
E060
E0E0
0000
0E00
0E00
ENDCHAR
STARTCHAR uni1E48
ENCODING 7752
SWIDTH 741 0
DWIDTH 19 0
BBX 18 22 3 -3
BITMAP
0C00C0
1E01C0
1E01C0
1F0180
1F0180
1B8180
3B8380
39C380
31C300
30C300
30E300
70E700
707700
607600
603E00
603E00
E01E00
E01E00
C01C00
000000
07F800
07F800
ENDCHAR
STARTCHAR uni1E49
ENCODING 7753
SWIDTH 620 0
DWIDTH 16 0
BBX 13 17 3 -3
BITMAP
1870
39F8
3BB8
3738
3E38
3C38
7830
7830
7070
6070
6070
E060
E060
E0E0
0000
3FC0
3FC0
ENDCHAR
STARTCHAR uni1E4A
ENCODING 7754
SWIDTH 741 0
DWIDTH 19 0
BBX 18 24 3 -5
BITMAP
0C00C0
1E01C0
1E01C0
1F0180
1F0180
1B8180
3B8380
39C380
31C300
30C300
30E300
70E700
707700
607600
603E00
603E00
E01E00
E01E00
C01C00
000000
01E000
03E000
076000
0E3000
ENDCHAR
STARTCHAR uni1E4B
ENCODING 7755
SWIDTH 620 0
DWIDTH 16 0
BBX 13 19 3 -5
BITMAP
1870
39F8
3BB8
3738
3E38
3C38
7830
7830
7070
6070
6070
E060
E060
E0E0
0000
0F00
1F00
3B00
7180
ENDCHAR
STARTCHAR uni1E4C
ENCODING 7756
SWIDTH 777 0
DWIDTH 20 0
BBX 18 27 3 0
BITMAP
001C00
003000
006000
00C000
000000
00F600
01BC00
000000
00FC00
03FF00
078780
0E03C0
1C01C0
3801C0
7001C0
7001C0
6001C0
E001C0
E001C0
E00180
E00380
E00700
E00700
701E00
783C00
3FF000
0FC000
ENDCHAR
STARTCHAR uni1E4D
ENCODING 7757
SWIDTH 566 0
DWIDTH 15 0
BBX 13 22 2 0
BITMAP
0070
00C0
0180
0300
0000
03D8
06F0
0000
03C0
0FF0
1C30
3838
7038
6038
E038
E030
E070
E070
E0E0
E1C0
7F80
3E00
ENDCHAR
STARTCHAR uni1E4E
ENCODING 7758
SWIDTH 777 0
DWIDTH 20 0
BBX 18 25 3 0
BITMAP
038C00
031C00
000000
00F600
01BC00
000000
00FC00
03FF00
078780
0E03C0
1C01C0
3801C0
7001C0
7001C0
6001C0
E001C0
E001C0
E00180
E00380
E00700
E00700
701E00
783C00
3FF000
0FC000
ENDCHAR
STARTCHAR uni1E4F
ENCODING 7759
SWIDTH 566 0
DWIDTH 15 0
BBX 13 20 2 0
BITMAP
0E30
0C70
0000
03D8
06F0
0000
03C0
0FF0
1C30
3838
7038
6038
E038
E030
E070
E070
E0E0
E1C0
7F80
3E00
ENDCHAR
STARTCHAR uni1E50
ENCODING 7760
SWIDTH 777 0
DWIDTH 20 0
BBX 18 27 3 0
BITMAP
01C000
00E000
006000
003000
000000
03FC00
03FC00
000000
00FC00
03FF00
078780
0E03C0
1C01C0
3801C0
7001C0
7001C0
6001C0
E001C0
E001C0
E00180
E00380
E00700
E00700
701E00
783C00
3FF000
0FC000
ENDCHAR
STARTCHAR uni1E51
ENCODING 7761
SWIDTH 566 0
DWIDTH 15 0
BBX 13 22 2 0
BITMAP
0E00
0700
0300
0180
0000
1FE0
1FE0
0000
03C0
0FF0
1C30
3838
7038
6038
E038
E030
E070
E070
E0E0
E1C0
7F80
3E00
ENDCHAR
STARTCHAR uni1E52
ENCODING 7762
SWIDTH 777 0
DWIDTH 20 0
BBX 18 27 3 0
BITMAP
001C00
003000
006000
00C000
000000
03FC00
03FC00
000000
00FC00
03FF00
078780
0E03C0
1C01C0
3801C0
7001C0
7001C0
6001C0
E001C0
E001C0
E00180
E00380
E00700
E00700
701E00
783C00
3FF000
0FC000
ENDCHAR
STARTCHAR uni1E53
ENCODING 7763
SWIDTH 566 0
DWIDTH 15 0
BBX 13 22 2 0
BITMAP
00E0
0180
0300
0600
0000
1FE0
1FE0
0000
03C0
0FF0
1C30
3838
7038
6038
E038
E030
E070
E070
E0E0
E1C0
7F80
3E00
ENDCHAR
STARTCHAR uni1E54
ENCODING 7764
SWIDTH 575 0
DWIDTH 15 0
BBX 14 24 3 0
BITMAP
0070
00C0
0180
0300
0000
0FF0
1FF8
1C1C
1C1C
181C
181C
3818
3838
38F0
3FE0
3F00
7000
7000
7000
6000
6000
E000
E000
E000
ENDCHAR
STARTCHAR uni1E55
ENCODING 7765
SWIDTH 608 0
DWIDTH 16 0
BBX 15 24 1 -5
BITMAP
0070
00C0
0180
0300
0000
0C3C
1CFE
1DCE
1F8E
1F0E
1E0E
3C0C
3C1C
381C
3038
3070
70E0
7FC0
7F00
6000
6000
E000
E000
E000
ENDCHAR
STARTCHAR uni1E56
ENCODING 7766
SWIDTH 575 0
DWIDTH 15 0
BBX 14 22 3 0
BITMAP
0380
0380
0000
0FF0
1FF8
1C1C
1C1C
181C
181C
3818
3838
38F0
3FE0
3F00
7000
7000
7000
6000
6000
E000
E000
E000
ENDCHAR
STARTCHAR uni1E57
ENCODING 7767
SWIDTH 608 0
DWIDTH 16 0
BBX 15 22 1 -5
BITMAP
01C0
01C0
0000
0C3C
1CFE
1DCE
1F8E
1F0E
1E0E
3C0C
3C1C
381C
3038
3070
70E0
7FC0
7F00
6000
6000
E000
E000
E000
ENDCHAR
STARTCHAR uni1E58
ENCODING 7768
SWIDTH 632 0
DWIDTH 16 0
BBX 14 22 3 0
BITMAP
0380
0380
0000
0FF0
1FFC
1C1C
1C1C
181C
181C
3818
3838
3860
3FC0
3F80
71C0
71C0
70E0
70E0
6070
E070
E038
E038
ENDCHAR
STARTCHAR uni1E59
ENCODING 7769
SWIDTH 478 0
DWIDTH 12 0
BBX 12 17 2 0
BITMAP
0700
0700
0000
1870
18F0
3BA0
3B00
3600
3C00
3C00
7800
7000
6000
6000
6000
E000
E000
ENDCHAR
STARTCHAR uni1E5A
ENCODING 7770
SWIDTH 632 0
DWIDTH 16 0
BBX 14 22 3 -3
BITMAP
0FF0
1FFC
1C1C
1C1C
181C
181C
3818
3838
3860
3FC0
3F80
71C0
71C0
70E0
70E0
6070
E070
E038
E038
0000
0700
0700
ENDCHAR
STARTCHAR uni1E5B
ENCODING 7771
SWIDTH 478 0
DWIDTH 12 0
BBX 12 17 2 -3
BITMAP
1870
18F0
3BA0
3B00
3600
3C00
3C00
7800
7000
6000
6000
6000
E000
E000
0000
3800
3800
ENDCHAR
STARTCHAR uni1E5C
ENCODING 7772
SWIDTH 632 0
DWIDTH 16 0
BBX 14 25 3 -3
BITMAP
0FF0
0FF0
0000
0FF0
1FFC
1C1C
1C1C
181C
181C
3818
3838
3860
3FC0
3F80
71C0
71C0
70E0
70E0
6070
E070
E038
E038
0000
0700
0700
ENDCHAR
STARTCHAR uni1E5D
ENCODING 7773
SWIDTH 478 0
DWIDTH 12 0
BBX 12 20 2 -3
BITMAP
3FC0
3FC0
0000
1870
18F0
3BA0
3B00
3600
3C00
3C00
7800
7000
6000
6000
6000
E000
E000
0000
3800
3800
ENDCHAR
STARTCHAR uni1E5E
ENCODING 7774
SWIDTH 632 0
DWIDTH 16 0
BBX 14 22 3 -3
BITMAP
0FF0
1FFC
1C1C
1C1C
181C
181C
3818
3838
3860
3FC0
3F80
71C0
71C0
70E0
70E0
6070
E070
E038
E038
0000
1FE0
1FE0
ENDCHAR
STARTCHAR uni1E5F
ENCODING 7775
SWIDTH 478 0
DWIDTH 12 0
BBX 13 17 1 -3
BITMAP
0C38
0C78
1DD0
1D80
1B00
1E00
1E00
3C00
3800
3000
3000
3000
7000
7000
0000
FF00
FF00
ENDCHAR
STARTCHAR uni1E60
ENCODING 7776
SWIDTH 553 0
DWIDTH 14 0
BBX 15 22 2 0
BITMAP
01C0
01C0
0000
01F8
07FE
0E04
1C00
1C00
1C00
1C00
0F00
0780
03C0
01E0
00F0
0070
0030
0030
0070
C0E0
FFC0
7F00
ENDCHAR
STARTCHAR uni1E61
ENCODING 7777
SWIDTH 489 0
DWIDTH 13 0
BBX 11 17 2 0
BITMAP
0700
0700
0000
07C0
1FE0
1C60
3800
1800
1C00
0E00
0700
0380
0180
0180
C380
FF80
7E00
ENDCHAR
STARTCHAR uni1E62
ENCODING 7778
SWIDTH 553 0
DWIDTH 14 0
BBX 15 22 2 -3
BITMAP
01F8
07FE
0E04
1C00
1C00
1C00
1C00
0F00
0780
03C0
01E0
00F0
0070
0030
0030
0070
C0E0
FFC0
7F00
0000
0700
0700
ENDCHAR
STARTCHAR uni1E63
ENCODING 7779
SWIDTH 489 0
DWIDTH 13 0
BBX 11 17 2 -3
BITMAP
07C0
1FE0
1C60
3800
1800
1C00
0E00
0700
0380
0180
0180
C380
FF80
7E00
0000
0E00
0E00
ENDCHAR
STARTCHAR uni1E64
ENCODING 7780
SWIDTH 553 0
DWIDTH 14 0
BBX 15 27 2 0
BITMAP
01C0
01C0
0000
0070
00C0
0180
0300
0000
01F8
07FE
0E04
1C00
1C00
1C00
1C00
0F00
0780
03C0
01E0
00F0
0070
0030
0030
0070
C0E0
FFC0
7F00
ENDCHAR
STARTCHAR uni1E65
ENCODING 7781
SWIDTH 489 0
DWIDTH 13 0
BBX 11 22 2 0
BITMAP
0700
0700
0000
01C0
0300
0600
0C00
0000
07C0
1FE0
1C60
3800
1800
1C00
0E00
0700
0380
0180
0180
C380
FF80
7E00
ENDCHAR
STARTCHAR uni1E66
ENCODING 7782
SWIDTH 553 0
DWIDTH 14 0
BBX 15 27 2 0
BITMAP
00E0
00E0
0000
031C
01B8
01B0
00E0
0000
01F8
07FE
0E04
1C00
1C00
1C00
1C00
0F00
0780
03C0
01E0
00F0
0070
0030
0030
0070
C0E0
FFC0
7F00
ENDCHAR
STARTCHAR uni1E67
ENCODING 7783
SWIDTH 489 0
DWIDTH 13 0
BBX 13 22 2 0
BITMAP
01C0
01C0
0000
0638
0370
0360
01C0
0000
07C0
1FE0
1C60
3800
1800
1C00
0E00
0700
0380
0180
0180
C380
FF80
7E00
ENDCHAR
STARTCHAR uni1E68
ENCODING 7784
SWIDTH 553 0
DWIDTH 14 0
BBX 15 25 2 -3
BITMAP
0380
0380
0000
01F8
07FE
0E04
1C00
1C00
1C00
1C00
0F00
0780
03C0
01E0
00F0
0070
0030
0030
0070
C0E0
FFC0
7F00
0000
0700
0700
ENDCHAR
STARTCHAR uni1E69
ENCODING 7785
SWIDTH 489 0
DWIDTH 13 0
BBX 11 20 2 -3
BITMAP
0700
0700
0000
07C0
1FE0
1C60
3800
1800
1C00
0E00
0700
0380
0180
0180
C380
FF80
7E00
0000
0E00
0E00
ENDCHAR
STARTCHAR uni1E6A
ENCODING 7786
SWIDTH 623 0
DWIDTH 16 0
BBX 16 22 4 0
BITMAP
0380
0380
0000
FFFF
FFFF
0380
0380
0380
0300
0300
0700
0700
0700
0700
0600
0E00
0E00
0E00
0E00
0C00
0C00
1C00
ENDCHAR
STARTCHAR uni1E6B
ENCODING 7787
SWIDTH 383 0
DWIDTH 10 0
BBX 8 20 3 0
BITMAP
1C
1C
00
18
18
18
FF
FF
38
30
30
70
70
70
60
60
E0
60
7C
38
ENDCHAR
STARTCHAR uni1E6C
ENCODING 7788
SWIDTH 623 0
DWIDTH 16 0
BBX 16 22 4 -3
BITMAP
FFFF
FFFF
0380
0380
0380
0300
0300
0700
0700
0700
0700
0600
0E00
0E00
0E00
0E00
0C00
0C00
1C00
0000
0700
0700
ENDCHAR
STARTCHAR uni1E6D
ENCODING 7789
SWIDTH 383 0
DWIDTH 10 0
BBX 8 20 3 -3
BITMAP
18
18
18
FF
FF
38
30
30
70
70
70
60
60
E0
60
7C
38
00
38
38
ENDCHAR
STARTCHAR uni1E6E
ENCODING 7790
SWIDTH 623 0
DWIDTH 16 0
BBX 16 22 4 -3
BITMAP
FFFF
FFFF
0380
0380
0380
0300
0300
0700
0700
0700
0700
0600
0E00
0E00
0E00
0E00
0C00
0C00
1C00
0000
3FC0
3FC0
ENDCHAR
STARTCHAR uni1E6F
ENCODING 7791
SWIDTH 383 0
DWIDTH 10 0
BBX 9 20 2 -3
BITMAP
0C00
0C00
0C00
7F80
7F80
1C00
1800
1800
3800
3800
3800
3000
3000
7000
3000
3E00
1C00
0000
FF00
FF00
ENDCHAR
STARTCHAR uni1E70
ENCODING 7792
SWIDTH 623 0
DWIDTH 16 0
BBX 16 24 4 -5
BITMAP
FFFF
FFFF
0380
0380
0380
0300
0300
0700
0700
0700
0700
0600
0E00
0E00
0E00
0E00
0C00
0C00
1C00
0000
0780
0F80
1D80
38C0
ENDCHAR
STARTCHAR uni1E71
ENCODING 7793
SWIDTH 383 0
DWIDTH 10 0
BBX 9 22 2 -5
BITMAP
0C00
0C00
0C00
7F80
7F80
1C00
1800
1800
3800
3800
3800
3000
3000
7000
3000
3E00
1C00
0000
1E00
3E00
7600
E300
ENDCHAR
STARTCHAR uni1E72
ENCODING 7794
SWIDTH 693 0
DWIDTH 18 0
BBX 16 22 3 -3
BITMAP
3803
3807
3807
3806
3006
7006
700E
700E
700C
600C
E00C
E01C
E018
E018
E038
E030
7070
7FE0
1F80
0000
1C60
18E0
ENDCHAR
STARTCHAR uni1E73
ENCODING 7795
SWIDTH 620 0
DWIDTH 16 0
BBX 13 17 3 -3
BITMAP
3038
3038
3038
3030
6030
6070
60F0
60F0
61E0
E3E0
E760
EEE0
FCE0
70C0
0000
38C0
31C0
ENDCHAR
STARTCHAR uni1E74
ENCODING 7796
SWIDTH 693 0
DWIDTH 18 0
BBX 16 22 3 -3
BITMAP
3803
3807
3807
3806
3006
7006
700E
700E
700C
600C
E00C
E01C
E018
E018
E038
E030
7070
7FE0
1F80
0000
1EC0
3780
ENDCHAR
STARTCHAR uni1E75
ENCODING 7797
SWIDTH 620 0
DWIDTH 16 0
BBX 13 17 3 -3
BITMAP
3038
3038
3038
3030
6030
6070
60F0
60F0
61E0
E3E0
E760
EEE0
FCE0
70C0
0000
1EC0
3780
ENDCHAR
STARTCHAR uni1E76
ENCODING 7798
SWIDTH 693 0
DWIDTH 18 0
BBX 16 24 3 -5
BITMAP
3803
3807
3807
3806
3006
7006
700E
700E
700C
600C
E00C
E01C
E018
E018
E038
E030
7070
7FE0
1F80
0000
0780
0F80
1D80
38C0
ENDCHAR
STARTCHAR uni1E77
ENCODING 7799
SWIDTH 620 0
DWIDTH 16 0
BBX 13 19 3 -5
BITMAP
3038
3038
3038
3030
6030
6070
60F0
60F0
61E0
E3E0
E760
EEE0
FCE0
70C0
0000
0F00
1F00
3B00
7180
ENDCHAR
STARTCHAR uni1E78
ENCODING 7800
SWIDTH 693 0
DWIDTH 18 0
BBX 16 27 3 0
BITMAP
0038
0060
00C0
0180
0000
03D8
06F0
0000
3803
3807
3807
3806
3006
7006
700E
700E
700C
600C
E00C
E01C
E018
E018
E038
E030
7070
7FE0
1F80
ENDCHAR
STARTCHAR uni1E79
ENCODING 7801
SWIDTH 620 0
DWIDTH 16 0
BBX 13 22 3 0
BITMAP
0070
00C0
0180
0300
0000
07B0
0DE0
0000
3038
3038
3038
3030
6030
6070
60F0
60F0
61E0
E3E0
E760
EEE0
FCE0
70C0
ENDCHAR
STARTCHAR uni1E7A
ENCODING 7802
SWIDTH 693 0
DWIDTH 18 0
BBX 16 25 3 0
BITMAP
0E30
0C70
0000
0FF0
0FF0
0000
3803
3807
3807
3806
3006
7006
700E
700E
700C
600C
E00C
E01C
E018
E018
E038
E030
7070
7FE0
1F80
ENDCHAR
STARTCHAR uni1E7B
ENCODING 7803
SWIDTH 620 0
DWIDTH 16 0
BBX 13 20 3 0
BITMAP
1C60
18E0
0000
1FE0
1FE0
0000
3038
3038
3038
3030
6030
6070
60F0
60F0
61E0
E3E0
E760
EEE0
FCE0
70C0
ENDCHAR
STARTCHAR uni1E7C
ENCODING 7804
SWIDTH 687 0
DWIDTH 18 0
BBX 17 22 4 0
BITMAP
07B000
0DE000
000000
E00380
E00300
E00700
600E00
700C00
701C00
701800
703800
303000
387000
38E000
38C000
39C000
198000
1F8000
1F0000
1F0000
1E0000
1E0000
ENDCHAR
STARTCHAR uni1E7D
ENCODING 7805
SWIDTH 545 0
DWIDTH 14 0
BBX 13 17 3 0
BITMAP
1EC0
3780
0000
C038
E030
E060
E0E0
60C0
61C0
6180
6300
6700
7600
7C00
7C00
3800
3800
ENDCHAR
STARTCHAR uni1E7E
ENCODING 7806
SWIDTH 687 0
DWIDTH 18 0
BBX 17 22 4 -3
BITMAP
E00380
E00300
E00700
600E00
700C00
701C00
701800
703800
303000
387000
38E000
38C000
39C000
198000
1F8000
1F0000
1F0000
1E0000
1E0000
000000
070000
070000
ENDCHAR
STARTCHAR uni1E7F
ENCODING 7807
SWIDTH 545 0
DWIDTH 14 0
BBX 13 17 3 -3
BITMAP
C038
E030
E060
E0E0
60C0
61C0
6180
6300
6700
7600
7C00
7C00
3800
3800
0000
1C00
1C00
ENDCHAR
STARTCHAR Wgrave
ENCODING 7808
SWIDTH 886 0
DWIDTH 23 0
BBX 22 24 4 0
BITMAP
01C000
00E000
006000
003000
000000
E0301C
E07018
E07038
E0F030
E0F030
E1F860
E1B860
E1B8C0
E338C0
E339C0
663980
663B80
6E3B00
6C3F00
7C3E00
783E00
783C00
703C00
703800
ENDCHAR
STARTCHAR wgrave
ENCODING 7809
SWIDTH 795 0
DWIDTH 20 0
BBX 19 19 3 0
BITMAP
038000
01C000
00C000
006000
000000
C0E0E0
E0E0C0
E1E1C0
E1E180
E36380
E36300
666700
666600
6C6E00
6C6C00
7C7C00
787800
787800
707000
ENDCHAR
STARTCHAR Wacute
ENCODING 7810
SWIDTH 886 0
DWIDTH 23 0
BBX 22 24 4 0
BITMAP
001C00
003000
006000
00C000
000000
E0301C
E07018
E07038
E0F030
E0F030
E1F860
E1B860
E1B8C0
E338C0
E339C0
663980
663B80
6E3B00
6C3F00
7C3E00
783E00
783C00
703C00
703800
ENDCHAR
STARTCHAR wacute
ENCODING 7811
SWIDTH 795 0
DWIDTH 20 0
BBX 19 19 3 0
BITMAP
003800
006000
00C000
018000
000000
C0E0E0
E0E0C0
E1E1C0
E1E180
E36380
E36300
666700
666600
6C6E00
6C6C00
7C7C00
787800
787800
707000
ENDCHAR
STARTCHAR Wdieresis
ENCODING 7812
SWIDTH 886 0
DWIDTH 23 0
BBX 22 22 4 0
BITMAP
038C00
031C00
000000
E0301C
E07018
E07038
E0F030
E0F030
E1F860
E1B860
E1B8C0
E338C0
E339C0
663980
663B80
6E3B00
6C3F00
7C3E00
783E00
783C00
703C00
703800
ENDCHAR
STARTCHAR wdieresis
ENCODING 7813
SWIDTH 795 0
DWIDTH 20 0
BBX 19 17 3 0
BITMAP
071800
063800
000000
C0E0E0
E0E0C0
E1E1C0
E1E180
E36380
E36300
666700
666600
6C6E00
6C6C00
7C7C00
787800
787800
707000
ENDCHAR
STARTCHAR uni1E86
ENCODING 7814
SWIDTH 886 0
DWIDTH 23 0
BBX 22 22 4 0
BITMAP
007000
007000
000000
E0301C
E07018
E07038
E0F030
E0F030
E1F860
E1B860
E1B8C0
E338C0
E339C0
663980
663B80
6E3B00
6C3F00
7C3E00
783E00
783C00
703C00
703800
ENDCHAR
STARTCHAR uni1E87
ENCODING 7815
SWIDTH 795 0
DWIDTH 20 0
BBX 19 17 3 0
BITMAP
00E000
00E000
000000
C0E0E0
E0E0C0
E1E1C0
E1E180
E36380
E36300
666700
666600
6C6E00
6C6C00
7C7C00
787800
787800
707000
ENDCHAR
STARTCHAR uni1E88
ENCODING 7816
SWIDTH 886 0
DWIDTH 23 0
BBX 22 22 4 -3
BITMAP
E0301C
E07018
E07038
E0F030
E0F030
E1F860
E1B860
E1B8C0
E338C0
E339C0
663980
663B80
6E3B00
6C3F00
7C3E00
783E00
783C00
703C00
703800
000000
01C000
01C000
ENDCHAR
STARTCHAR uni1E89
ENCODING 7817
SWIDTH 795 0
DWIDTH 20 0
BBX 19 17 3 -3
BITMAP
C0E0E0
E0E0C0
E1E1C0
E1E180
E36380
E36300
666700
666600
6C6E00
6C6C00
7C7C00
787800
787800
707000
000000
038000
038000
ENDCHAR
STARTCHAR uni1E8A
ENCODING 7818
SWIDTH 620 0
DWIDTH 16 0
BBX 19 22 0 0
BITMAP
007000
007000
000000
0E00E0
0701C0
070380
038700
038E00
01DC00
01D800
00F800
00F000
00F000
01F000
03F000
033800
063800
0E1C00
1C1C00
380E00
700E00
E00700
ENDCHAR
STARTCHAR uni1E8B
ENCODING 7819
SWIDTH 541 0
DWIDTH 14 0
BBX 15 17 1 0
BITMAP
01C0
01C0
0000
1C0E
0E1C
0E38
0670
0760
03C0
0380
0380
07C0
0EC0
1CE0
3860
7070
E038
ENDCHAR
STARTCHAR uni1E8C
ENCODING 7820
SWIDTH 620 0
DWIDTH 16 0
BBX 19 22 0 0
BITMAP
038C00
031C00
000000
0E00E0
0701C0
070380
038700
038E00
01DC00
01D800
00F800
00F000
00F000
01F000
03F000
033800
063800
0E1C00
1C1C00
380E00
700E00
E00700
ENDCHAR
STARTCHAR uni1E8D
ENCODING 7821
SWIDTH 541 0
DWIDTH 14 0
BBX 15 17 1 0
BITMAP
0E30
0C70
0000
1C0E
0E1C
0E38
0670
0760
03C0
0380
0380
07C0
0EC0
1CE0
3860
7070
E038
ENDCHAR
STARTCHAR uni1E8E
ENCODING 7822
SWIDTH 608 0
DWIDTH 16 0
BBX 15 22 4 0
BITMAP
0380
0380
0000
E00E
601C
7038
7030
3860
38E0
1DC0
1D80
0F00
0F00
0E00
0E00
0E00
0C00
0C00
1C00
1C00
1C00
1800
ENDCHAR
STARTCHAR uni1E8F
ENCODING 7823
SWIDTH 548 0
DWIDTH 14 0
BBX 14 22 3 -5
BITMAP
0700
0700
0000
601C
7018
7030
7030
3060
30E0
30C0
3980
3980
3B00
1F00
1E00
1C00
1C00
1800
3800
3000
6000
E000
ENDCHAR
STARTCHAR uni1E90
ENCODING 7824
SWIDTH 578 0
DWIDTH 15 0
BBX 17 24 1 0
BITMAP
007800
00F800
01D800
038C00
000000
0FFF80
0FFF80
000700
000E00
001C00
003C00
007800
007000
00E000
01C000
038000
070000
0F0000
1E0000
3C0000
380000
700000
FFFC00
FFFC00
ENDCHAR
STARTCHAR uni1E91
ENCODING 7825
SWIDTH 536 0
DWIDTH 14 0
BBX 13 19 2 0
BITMAP
01E0
03E0
0760
0E30
0000
1FF8
1FF8
0070
00E0
01C0
0380
0780
0F00
0E00
1C00
3800
7000
FFE0
FFE0
ENDCHAR
STARTCHAR uni1E92
ENCODING 7826
SWIDTH 578 0
DWIDTH 15 0
BBX 17 22 1 -3
BITMAP
0FFF80
0FFF80
000700
000E00
001C00
003C00
007800
007000
00E000
01C000
038000
070000
0F0000
1E0000
3C0000
380000
700000
FFFC00
FFFC00
000000
070000
070000
ENDCHAR
STARTCHAR uni1E93
ENCODING 7827
SWIDTH 536 0
DWIDTH 14 0
BBX 13 17 2 -3
BITMAP
1FF8
1FF8
0070
00E0
01C0
0380
0780
0F00
0E00
1C00
3800
7000
FFE0
FFE0
0000
0E00
0E00
ENDCHAR
STARTCHAR uni1E94
ENCODING 7828
SWIDTH 578 0
DWIDTH 15 0
BBX 17 22 1 -3
BITMAP
0FFF80
0FFF80
000700
000E00
001C00
003C00
007800
007000
00E000
01C000
038000
070000
0F0000
1E0000
3C0000
380000
700000
FFFC00
FFFC00
000000
1FE000
1FE000
ENDCHAR
STARTCHAR uni1E95
ENCODING 7829
SWIDTH 536 0
DWIDTH 14 0
BBX 13 17 2 -3
BITMAP
1FF8
1FF8
0070
00E0
01C0
0380
0780
0F00
0E00
1C00
3800
7000
FFE0
FFE0
0000
7F80
7F80
ENDCHAR
STARTCHAR uni1E96
ENCODING 7830
SWIDTH 620 0
DWIDTH 16 0
BBX 13 22 3 -3
BITMAP
0C00
0C00
1C00
1C00
1800
1870
19F8
3BB8
3F38
3E38
3C38
3C30
7830
7070
6070
6070
6060
E060
E0E0
0000
3FC0
3FC0
ENDCHAR
STARTCHAR uni1E97
ENCODING 7831
SWIDTH 383 0
DWIDTH 10 0
BBX 8 20 3 0
BITMAP
E3
C7
00
18
18
18
FF
FF
38
30
30
70
70
70
60
60
E0
60
7C
38
ENDCHAR
STARTCHAR uni1E98
ENCODING 7832
SWIDTH 795 0
DWIDTH 20 0
BBX 19 19 3 0
BITMAP
00C000
012000
012000
00C000
000000
C0E0E0
E0E0C0
E1E1C0
E1E180
E36380
E36300
666700
666600
6C6E00
6C6C00
7C7C00
787800
787800
707000
ENDCHAR
STARTCHAR uni1E99
ENCODING 7833
SWIDTH 548 0
DWIDTH 14 0
BBX 14 24 3 -5
BITMAP
0300
0480
0480
0300
0000
601C
7018
7030
7030
3060
30E0
30C0
3980
3980
3B00
1F00
1E00
1C00
1C00
1800
3800
3000
6000
E000
ENDCHAR
STARTCHAR uni1EA0
ENCODING 7840
SWIDTH 687 0
DWIDTH 18 0
BBX 17 22 1 -3
BITMAP
003800
003C00
007C00
007C00
00EC00
00CC00
01CE00
038E00
030E00
070600
060600
0E0700
0FFF00
1FFF00
180700
380300
700380
600380
E00380
000000
01C000
01C000
ENDCHAR
STARTCHAR uni1EA1
ENCODING 7841
SWIDTH 608 0
DWIDTH 16 0
BBX 14 17 2 -3
BITMAP
01FC
07FC
0E1C
1C18
3818
7038
7078
6078
E0F0
E1F0
E3F0
E770
FE70
7860
0000
0700
0700
ENDCHAR
STARTCHAR uni1EA4
ENCODING 7844
SWIDTH 687 0
DWIDTH 18 0
BBX 17 29 1 0
BITMAP
000E00
001800
003000
006000
000000
001E00
003E00
007600
00E300
000000
003800
003C00
007C00
007C00
00EC00
00CC00
01CE00
038E00
030E00
070600
060600
0E0700
0FFF00
1FFF00
180700
380300
700380
600380
E00380
ENDCHAR
STARTCHAR uni1EA5
ENCODING 7845
SWIDTH 608 0
DWIDTH 16 0
BBX 14 24 2 0
BITMAP
0070
00C0
0180
0300
0000
00F0
01F0
03B0
0718
0000
01FC
07FC
0E1C
1C18
3818
7038
7078
6078
E0F0
E1F0
E3F0
E770
FE70
7860
ENDCHAR
STARTCHAR uni1EA6
ENCODING 7846
SWIDTH 687 0
DWIDTH 18 0
BBX 17 29 1 0
BITMAP
00E000
007000
003000
001800
000000
001E00
003E00
007600
00E300
000000
003800
003C00
007C00
007C00
00EC00
00CC00
01CE00
038E00
030E00
070600
060600
0E0700
0FFF00
1FFF00
180700
380300
700380
600380
E00380
ENDCHAR
STARTCHAR uni1EA7
ENCODING 7847
SWIDTH 608 0
DWIDTH 16 0
BBX 14 24 2 0
BITMAP
0700
0380
0180
00C0
0000
00F0
01F0
03B0
0718
0000
01FC
07FC
0E1C
1C18
3818
7038
7078
6078
E0F0
E1F0
E3F0
E770
FE70
7860
ENDCHAR
STARTCHAR uni1EAA
ENCODING 7850
SWIDTH 687 0
DWIDTH 18 0
BBX 17 27 1 0
BITMAP
00F600
01BC00
000000
001E00
003E00
007600
00E300
000000
003800
003C00
007C00
007C00
00EC00
00CC00
01CE00
038E00
030E00
070600
060600
0E0700
0FFF00
1FFF00
180700
380300
700380
600380
E00380
ENDCHAR
STARTCHAR uni1EAB
ENCODING 7851
SWIDTH 608 0
DWIDTH 16 0
BBX 14 22 2 0
BITMAP
03D8
06F0
0000
00F0
01F0
03B0
0718
0000
01FC
07FC
0E1C
1C18
3818
7038
7078
6078
E0F0
E1F0
E3F0
E770
FE70
7860
ENDCHAR
STARTCHAR uni1EAC
ENCODING 7852
SWIDTH 687 0
DWIDTH 18 0
BBX 17 27 1 -3
BITMAP
003C00
007C00
00EC00
01C600
000000
003800
003C00
007C00
007C00
00EC00
00CC00
01CE00
038E00
030E00
070600
060600
0E0700
0FFF00
1FFF00
180700
380300
700380
600380
E00380
000000
01C000
01C000
ENDCHAR
STARTCHAR uni1EAD
ENCODING 7853
SWIDTH 608 0
DWIDTH 16 0
BBX 14 22 2 -3
BITMAP
01E0
03E0
0760
0E30
0000
01FC
07FC
0E1C
1C18
3818
7038
7078
6078
E0F0
E1F0
E3F0
E770
FE70
7860
0000
0700
0700
ENDCHAR
STARTCHAR uni1EAE
ENCODING 7854
SWIDTH 687 0
DWIDTH 18 0
BBX 17 29 1 0
BITMAP
001C00
003000
006000
00C000
000000
018600
018400
00FC00
00F000
000000
003800
003C00
007C00
007C00
00EC00
00CC00
01CE00
038E00
030E00
070600
060600
0E0700
0FFF00
1FFF00
180700
380300
700380
600380
E00380
ENDCHAR
STARTCHAR uni1EAF
ENCODING 7855
SWIDTH 608 0
DWIDTH 16 0
BBX 14 24 2 0
BITMAP
0070
00C0
0180
0300
0000
0618
0610
03F0
03C0
0000
01FC
07FC
0E1C
1C18
3818
7038
7078
6078
E0F0
E1F0
E3F0
E770
FE70
7860
ENDCHAR
STARTCHAR uni1EB0
ENCODING 7856
SWIDTH 687 0
DWIDTH 18 0
BBX 17 29 1 0
BITMAP
01C000
00E000
006000
003000
000000
018600
018400
00FC00
00F000
000000
003800
003C00
007C00
007C00
00EC00
00CC00
01CE00
038E00
030E00
070600
060600
0E0700
0FFF00
1FFF00
180700
380300
700380
600380
E00380
ENDCHAR
STARTCHAR uni1EB1
ENCODING 7857
SWIDTH 608 0
DWIDTH 16 0
BBX 14 24 2 0
BITMAP
0700
0380
0180
00C0
0000
0618
0610
03F0
03C0
0000
01FC
07FC
0E1C
1C18
3818
7038
7078
6078
E0F0
E1F0
E3F0
E770
FE70
7860
ENDCHAR
STARTCHAR uni1EB4
ENCODING 7860
SWIDTH 687 0
DWIDTH 18 0
BBX 17 27 1 0
BITMAP
01EC00
037800
000000
018600
018400
00FC00
00F000
000000
003800
003C00
007C00
007C00
00EC00
00CC00
01CE00
038E00
030E00
070600
060600
0E0700
0FFF00
1FFF00
180700
380300
700380
600380
E00380
ENDCHAR
STARTCHAR uni1EB5
ENCODING 7861
SWIDTH 608 0
DWIDTH 16 0
BBX 14 22 2 0
BITMAP
07B0
0DE0
0000
0618
0610
03F0
03C0
0000
01FC
07FC
0E1C
1C18
3818
7038
7078
6078
E0F0
E1F0
E3F0
E770
FE70
7860
ENDCHAR
STARTCHAR uni1EB6
ENCODING 7862
SWIDTH 687 0
DWIDTH 18 0
BBX 17 27 1 -3
BITMAP
018600
018400
00FC00
00F000
000000
003800
003C00
007C00
007C00
00EC00
00CC00
01CE00
038E00
030E00
070600
060600
0E0700
0FFF00
1FFF00
180700
380300
700380
600380
E00380
000000
01C000
01C000
ENDCHAR
STARTCHAR uni1EB7
ENCODING 7863
SWIDTH 608 0
DWIDTH 16 0
BBX 14 22 2 -3
BITMAP
0618
0610
03F0
03C0
0000
01FC
07FC
0E1C
1C18
3818
7038
7078
6078
E0F0
E1F0
E3F0
E770
FE70
7860
0000
0700
0700
ENDCHAR
STARTCHAR uni1EB8
ENCODING 7864
SWIDTH 547 0
DWIDTH 14 0
BBX 14 22 3 -3
BITMAP
0FFC
1FFC
1C00
1C00
1800
1800
3800
3800
3FE0
3FE0
3000
7000
7000
7000
6000
6000
E000
FFE0
FFE0
0000
0E00
0E00
ENDCHAR
STARTCHAR uni1EB9
ENCODING 7865
SWIDTH 529 0
DWIDTH 14 0
BBX 11 17 2 -3
BITMAP
03C0
0FE0
1C60
3060
7060
60C0
E780
FF00
F000
E000
E020
E0E0
7FC0
3F00
0000
0E00
0E00
ENDCHAR
STARTCHAR uni1EBC
ENCODING 7868
SWIDTH 547 0
DWIDTH 14 0
BBX 14 22 3 0
BITMAP
07B0
0DE0
0000
0FFC
1FFC
1C00
1C00
1800
1800
3800
3800
3FE0
3FE0
3000
7000
7000
7000
6000
6000
E000
FFE0
FFE0
ENDCHAR
STARTCHAR uni1EBD
ENCODING 7869
SWIDTH 529 0
DWIDTH 14 0
BBX 11 17 2 0
BITMAP
0F60
1BC0
0000
03C0
0FE0
1C60
3060
7060
60C0
E780
FF00
F000
E000
E020
E0E0
7FC0
3F00
ENDCHAR
STARTCHAR uni1EBE
ENCODING 7870
SWIDTH 547 0
DWIDTH 14 0
BBX 14 29 3 0
BITMAP
0070
00C0
0180
0300
0000
01E0
03E0
0760
0E30
0000
0FFC
1FFC
1C00
1C00
1800
1800
3800
3800
3FE0
3FE0
3000
7000
7000
7000
6000
6000
E000
FFE0
FFE0
ENDCHAR
STARTCHAR uni1EBF
ENCODING 7871
SWIDTH 529 0
DWIDTH 14 0
BBX 12 24 2 0
BITMAP
00E0
0180
0300
0600
0000
01E0
03E0
0760
0E30
0000
03C0
0FE0
1C60
3060
7060
60C0
E780
FF00
F000
E000
E020
E0E0
7FC0
3F00
ENDCHAR
STARTCHAR uni1EC0
ENCODING 7872
SWIDTH 547 0
DWIDTH 14 0
BBX 14 29 3 0
BITMAP
0700
0380
0180
00C0
0000
01E0
03E0
0760
0E30
0000
0FFC
1FFC
1C00
1C00
1800
1800
3800
3800
3FE0
3FE0
3000
7000
7000
7000
6000
6000
E000
FFE0
FFE0
ENDCHAR
STARTCHAR uni1EC1
ENCODING 7873
SWIDTH 529 0
DWIDTH 14 0
BBX 12 24 2 0
BITMAP
0E00
0700
0300
0180
0000
01E0
03E0
0760
0E30
0000
03C0
0FE0
1C60
3060
7060
60C0
E780
FF00
F000
E000
E020
E0E0
7FC0
3F00
ENDCHAR
STARTCHAR uni1EC4
ENCODING 7876
SWIDTH 547 0
DWIDTH 14 0
BBX 14 27 3 0
BITMAP
07B0
0DE0
0000
01E0
03E0
0760
0E30
0000
0FFC
1FFC
1C00
1C00
1800
1800
3800
3800
3FE0
3FE0
3000
7000
7000
7000
6000
6000
E000
FFE0
FFE0
ENDCHAR
STARTCHAR uni1EC5
ENCODING 7877
SWIDTH 529 0
DWIDTH 14 0
BBX 12 22 2 0
BITMAP
07B0
0DE0
0000
01E0
03E0
0760
0E30
0000
03C0
0FE0
1C60
3060
7060
60C0
E780
FF00
F000
E000
E020
E0E0
7FC0
3F00
ENDCHAR
STARTCHAR uni1EC6
ENCODING 7878
SWIDTH 547 0
DWIDTH 14 0
BBX 14 27 3 -3
BITMAP
03C0
07C0
0EC0
1C60
0000
0FFC
1FFC
1C00
1C00
1800
1800
3800
3800
3FE0
3FE0
3000
7000
7000
7000
6000
6000
E000
FFE0
FFE0
0000
0E00
0E00
ENDCHAR
STARTCHAR uni1EC7
ENCODING 7879
SWIDTH 529 0
DWIDTH 14 0
BBX 11 22 2 -3
BITMAP
03C0
07C0
0EC0
1C60
0000
03C0
0FE0
1C60
3060
7060
60C0
E780
FF00
F000
E000
E020
E0E0
7FC0
3F00
0000
0E00
0E00
ENDCHAR
STARTCHAR uni1ECA
ENCODING 7882
SWIDTH 289 0
DWIDTH 8 0
BBX 6 22 3 -3
BITMAP
1C
1C
1C
18
18
38
38
38
38
30
70
70
70
70
60
60
E0
E0
E0
00
70
70
ENDCHAR
STARTCHAR uni1ECB
ENCODING 7883
SWIDTH 289 0
DWIDTH 8 0
BBX 6 22 3 -3
BITMAP
1C
1C
00
00
00
18
38
38
30
30
30
70
70
60
60
60
E0
E0
E0
00
70
70
ENDCHAR
STARTCHAR uni1ECC
ENCODING 7884
SWIDTH 777 0
DWIDTH 20 0
BBX 18 22 3 -3
BITMAP
00FC00
03FF00
078780
0E03C0
1C01C0
3801C0
7001C0
7001C0
6001C0
E001C0
E001C0
E00180
E00380
E00700
E00700
701E00
783C00
3FF000
0FC000
000000
01C000
01C000
ENDCHAR
STARTCHAR uni1ECD
ENCODING 7885
SWIDTH 566 0
DWIDTH 15 0
BBX 13 17 2 -3
BITMAP
03C0
0FF0
1C30
3838
7038
6038
E038
E030
E070
E070
E0E0
E1C0
7F80
3E00
0000
0E00
0E00
ENDCHAR
STARTCHAR uni1ED0
ENCODING 7888
SWIDTH 777 0
DWIDTH 20 0
BBX 18 29 3 0
BITMAP
001C00
003000
006000
00C000
000000
003C00
007C00
00EC00
01C600
000000
00FC00
03FF00
078780
0E03C0
1C01C0
3801C0
7001C0
7001C0
6001C0
E001C0
E001C0
E00180
E00380
E00700
E00700
701E00
783C00
3FF000
0FC000
ENDCHAR
STARTCHAR uni1ED1
ENCODING 7889
SWIDTH 566 0
DWIDTH 15 0
BBX 13 24 2 0
BITMAP
0070
00C0
0180
0300
0000
00F0
01F0
03B0
0718
0000
03C0
0FF0
1C30
3838
7038
6038
E038
E030
E070
E070
E0E0
E1C0
7F80
3E00
ENDCHAR
STARTCHAR uni1ED2
ENCODING 7890
SWIDTH 777 0
DWIDTH 20 0
BBX 18 29 3 0
BITMAP
01C000
00E000
006000
003000
000000
003C00
007C00
00EC00
01C600
000000
00FC00
03FF00
078780
0E03C0
1C01C0
3801C0
7001C0
7001C0
6001C0
E001C0
E001C0
E00180
E00380
E00700
E00700
701E00
783C00
3FF000
0FC000
ENDCHAR
STARTCHAR uni1ED3
ENCODING 7891
SWIDTH 566 0
DWIDTH 15 0
BBX 13 24 2 0
BITMAP
0700
0380
0180
00C0
0000
00F0
01F0
03B0
0718
0000
03C0
0FF0
1C30
3838
7038
6038
E038
E030
E070
E070
E0E0
E1C0
7F80
3E00
ENDCHAR
STARTCHAR uni1ED6
ENCODING 7894
SWIDTH 777 0
DWIDTH 20 0
BBX 18 27 3 0
BITMAP
00F600
01BC00
000000
003C00
007C00
00EC00
01C600
000000
00FC00
03FF00
078780
0E03C0
1C01C0
3801C0
7001C0
7001C0
6001C0
E001C0
E001C0
E00180
E00380
E00700
E00700
701E00
783C00
3FF000
0FC000
ENDCHAR
STARTCHAR uni1ED7
ENCODING 7895
SWIDTH 566 0
DWIDTH 15 0
BBX 13 22 2 0
BITMAP
03D8
06F0
0000
00F0
01F0
03B0
0718
0000
03C0
0FF0
1C30
3838
7038
6038
E038
E030
E070
E070
E0E0
E1C0
7F80
3E00
ENDCHAR
STARTCHAR uni1ED8
ENCODING 7896
SWIDTH 777 0
DWIDTH 20 0
BBX 18 27 3 -3
BITMAP
007800
00F800
01D800
038C00
000000
00FC00
03FF00
078780
0E03C0
1C01C0
3801C0
7001C0
7001C0
6001C0
E001C0
E001C0
E00180
E00380
E00700
E00700
701E00
783C00
3FF000
0FC000
000000
01C000
01C000
ENDCHAR
STARTCHAR uni1ED9
ENCODING 7897
SWIDTH 566 0
DWIDTH 15 0
BBX 13 22 2 -3
BITMAP
03C0
07C0
0EC0
1C60
0000
03C0
0FF0
1C30
3838
7038
6038
E038
E030
E070
E070
E0E0
E1C0
7F80
3E00
0000
0E00
0E00
ENDCHAR
STARTCHAR uni1EDA
ENCODING 7898
SWIDTH 777 0
DWIDTH 20 0
BBX 21 24 3 0
BITMAP
000700
000C00
001800
003000
000000
00FC38
03FF78
0787F0
0E03F0
1C01F0
3801E0
7001C0
7001C0
6001C0
E001C0
E001C0
E00180
E00380
E00700
E00700
701E00
783C00
3FF000
0FC000
ENDCHAR
STARTCHAR uni1EDB
ENCODING 7899
SWIDTH 566 0
DWIDTH 15 0
BBX 17 19 2 0
BITMAP
001C00
003000
006000
00C000
000000
03C380
0FF780
1C3700
383B00
703F00
603E00
E03800
E03000
E07000
E07000
E0E000
E1C000
7F8000
3E0000
ENDCHAR
STARTCHAR uni1EDC
ENCODING 7900
SWIDTH 777 0
DWIDTH 20 0
BBX 21 24 3 0
BITMAP
007000
003800
001800
000C00
000000
00FC38
03FF78
0787F0
0E03F0
1C01F0
3801E0
7001C0
7001C0
6001C0
E001C0
E001C0
E00180
E00380
E00700
E00700
701E00
783C00
3FF000
0FC000
ENDCHAR
STARTCHAR uni1EDD
ENCODING 7901
SWIDTH 566 0
DWIDTH 15 0
BBX 17 19 2 0
BITMAP
038000
01C000
00C000
006000
000000
03C380
0FF780
1C3700
383B00
703F00
603E00
E03800
E03000
E07000
E07000
E0E000
E1C000
7F8000
3E0000
ENDCHAR
STARTCHAR uni1EE0
ENCODING 7904
SWIDTH 777 0
DWIDTH 20 0
BBX 21 22 3 0
BITMAP
003D80
006F00
000000
00FC38
03FF78
0787F0
0E03F0
1C01F0
3801E0
7001C0
7001C0
6001C0
E001C0
E001C0
E00180
E00380
E00700
E00700
701E00
783C00
3FF000
0FC000
ENDCHAR
STARTCHAR uni1EE1
ENCODING 7905
SWIDTH 566 0
DWIDTH 15 0
BBX 17 17 2 0
BITMAP
01EC00
037800
000000
03C380
0FF780
1C3700
383B00
703F00
603E00
E03800
E03000
E07000
E07000
E0E000
E1C000
7F8000
3E0000
ENDCHAR
STARTCHAR uni1EE2
ENCODING 7906
SWIDTH 777 0
DWIDTH 20 0
BBX 21 22 3 -3
BITMAP
00FC38
03FF78
0787F0
0E03F0
1C01F0
3801E0
7001C0
7001C0
6001C0
E001C0
E001C0
E00180
E00380
E00700
E00700
701E00
783C00
3FF000
0FC000
000000
01C000
01C000
ENDCHAR
STARTCHAR uni1EE3
ENCODING 7907
SWIDTH 566 0
DWIDTH 15 0
BBX 17 17 2 -3
BITMAP
03C380
0FF780
1C3700
383B00
703F00
603E00
E03800
E03000
E07000
E07000
E0E000
E1C000
7F8000
3E0000
000000
070000
070000
ENDCHAR
STARTCHAR uni1EE4
ENCODING 7908
SWIDTH 693 0
DWIDTH 18 0
BBX 16 22 3 -3
BITMAP
3803
3807
3807
3806
3006
7006
700E
700E
700C
600C
E00C
E01C
E018
E018
E038
E030
7070
7FE0
1F80
0000
0700
0700
ENDCHAR
STARTCHAR uni1EE5
ENCODING 7909
SWIDTH 620 0
DWIDTH 16 0
BBX 13 17 3 -3
BITMAP
3038
3038
3038
3030
6030
6070
60F0
60F0
61E0
E3E0
E760
EEE0
FCE0
70C0
0000
0E00
0E00
ENDCHAR
STARTCHAR uni1EE8
ENCODING 7912
SWIDTH 693 0
DWIDTH 18 0
BBX 20 24 3 0
BITMAP
000E00
001800
003000
006000
000000
380370
3807F0
3807E0
380660
3006E0
7007C0
700F00
700E00
700C00
600C00
E00C00
E01C00
E01800
E01800
E03800
E03000
707000
7FE000
1F8000
ENDCHAR
STARTCHAR uni1EE9
ENCODING 7913
SWIDTH 620 0
DWIDTH 16 0
BBX 17 19 3 0
BITMAP
001C00
003000
006000
00C000
000000
303B80
303F80
303F00
303300
603700
607E00
60F800
60F000
61E000
E3E000
E76000
EEE000
FCE000
70C000
ENDCHAR
STARTCHAR uni1EEA
ENCODING 7914
SWIDTH 693 0
DWIDTH 18 0
BBX 20 24 3 0
BITMAP
00E000
007000
003000
001800
000000
380370
3807F0
3807E0
380660
3006E0
7007C0
700F00
700E00
700C00
600C00
E00C00
E01C00
E01800
E01800
E03800
E03000
707000
7FE000
1F8000
ENDCHAR
STARTCHAR uni1EEB
ENCODING 7915
SWIDTH 620 0
DWIDTH 16 0
BBX 17 19 3 0
BITMAP
01C000
00E000
006000
003000
000000
303B80
303F80
303F00
303300
603700
607E00
60F800
60F000
61E000
E3E000
E76000
EEE000
FCE000
70C000
ENDCHAR
STARTCHAR uni1EEE
ENCODING 7918
SWIDTH 693 0
DWIDTH 18 0
BBX 20 22 3 0
BITMAP
007B00
00DE00
000000
380370
3807F0
3807E0
380660
3006E0
7007C0
700F00
700E00
700C00
600C00
E00C00
E01C00
E01800
E01800
E03800
E03000
707000
7FE000
1F8000
ENDCHAR
STARTCHAR uni1EEF
ENCODING 7919
SWIDTH 620 0
DWIDTH 16 0
BBX 17 17 3 0
BITMAP
01EC00
037800
000000
303B80
303F80
303F00
303300
603700
607E00
60F800
60F000
61E000
E3E000
E76000
EEE000
FCE000
70C000
ENDCHAR
STARTCHAR uni1EF0
ENCODING 7920
SWIDTH 693 0
DWIDTH 18 0
BBX 20 22 3 -3
BITMAP
380370
3807F0
3807E0
380660
3006E0
7007C0
700F00
700E00
700C00
600C00
E00C00
E01C00
E01800
E01800
E03800
E03000
707000
7FE000
1F8000
000000
038000
038000
ENDCHAR
STARTCHAR uni1EF1
ENCODING 7921
SWIDTH 620 0
DWIDTH 16 0
BBX 17 17 3 -3
BITMAP
303B80
303F80
303F00
303300
603700
607E00
60F800
60F000
61E000
E3E000
E76000
EEE000
FCE000
70C000
000000
070000
070000
ENDCHAR
STARTCHAR Ygrave
ENCODING 7922
SWIDTH 608 0
DWIDTH 16 0
BBX 15 24 4 0
BITMAP
0E00
0700
0300
0180
0000
E00E
601C
7038
7030
3860
38E0
1DC0
1D80
0F00
0F00
0E00
0E00
0E00
0C00
0C00
1C00
1C00
1C00
1800
ENDCHAR
STARTCHAR ygrave
ENCODING 7923
SWIDTH 548 0
DWIDTH 14 0
BBX 14 24 3 -5
BITMAP
0E00
0700
0300
0180
0000
601C
7018
7030
7030
3060
30E0
30C0
3980
3980
3B00
1F00
1E00
1C00
1C00
1800
3800
3000
6000
E000
ENDCHAR
STARTCHAR uni1EF4
ENCODING 7924
SWIDTH 608 0
DWIDTH 16 0
BBX 15 22 4 -3
BITMAP
E00E
601C
7038
7030
3860
38E0
1DC0
1D80
0F00
0F00
0E00
0E00
0E00
0C00
0C00
1C00
1C00
1C00
1800
0000
0E00
0E00
ENDCHAR
STARTCHAR uni1EF5
ENCODING 7925
SWIDTH 548 0
DWIDTH 14 0
BBX 14 22 3 -8
BITMAP
601C
7018
7030
7030
3060
30E0
30C0
3980
3980
3B00
1F00
1E00
1C00
1C00
1800
3800
3000
6000
E000
0000
1C00
1C00
ENDCHAR
STARTCHAR uni1EF8
ENCODING 7928
SWIDTH 608 0
DWIDTH 16 0
BBX 15 22 4 0
BITMAP
0F60
1BC0
0000
E00E
601C
7038
7030
3860
38E0
1DC0
1D80
0F00
0F00
0E00
0E00
0E00
0C00
0C00
1C00
1C00
1C00
1800
ENDCHAR
STARTCHAR uni1EF9
ENCODING 7929
SWIDTH 548 0
DWIDTH 14 0
BBX 14 22 3 -5
BITMAP
0F60
1BC0
0000
601C
7018
7030
7030
3060
30E0
30C0
3980
3980
3B00
1F00
1E00
1C00
1C00
1800
3800
3000
6000
E000
ENDCHAR
STARTCHAR uni2000
ENCODING 8192
SWIDTH 500 0
DWIDTH 13 0
BBX 1 1 0 0
BITMAP
00
ENDCHAR
STARTCHAR uni2001
ENCODING 8193
SWIDTH 1000 0
DWIDTH 26 0
BBX 1 1 0 0
BITMAP
00
ENDCHAR
STARTCHAR uni2002
ENCODING 8194
SWIDTH 500 0
DWIDTH 13 0
BBX 1 1 0 0
BITMAP
00
ENDCHAR
STARTCHAR uni2003
ENCODING 8195
SWIDTH 1000 0
DWIDTH 26 0
BBX 1 1 0 0
BITMAP
00
ENDCHAR
STARTCHAR uni2004
ENCODING 8196
SWIDTH 333 0
DWIDTH 9 0
BBX 1 1 0 0
BITMAP
00
ENDCHAR
STARTCHAR uni2005
ENCODING 8197
SWIDTH 250 0
DWIDTH 7 0
BBX 1 1 0 0
BITMAP
00
ENDCHAR
STARTCHAR uni2006
ENCODING 8198
SWIDTH 167 0
DWIDTH 4 0
BBX 1 1 0 0
BITMAP
00
ENDCHAR
STARTCHAR uni2007
ENCODING 8199
SWIDTH 633 0
DWIDTH 16 0
BBX 1 1 0 0
BITMAP
00
ENDCHAR
STARTCHAR uni2008
ENCODING 8200
SWIDTH 316 0
DWIDTH 8 0
BBX 1 1 0 0
BITMAP
00
ENDCHAR
STARTCHAR uni2009
ENCODING 8201
SWIDTH 200 0
DWIDTH 5 0
BBX 1 1 0 0
BITMAP
00
ENDCHAR
STARTCHAR uni200A
ENCODING 8202
SWIDTH 100 0
DWIDTH 3 0
BBX 1 1 0 0
BITMAP
00
ENDCHAR
STARTCHAR uni200B
ENCODING 8203
SWIDTH 0 0
DWIDTH 0 0
BBX 1 1 0 0
BITMAP
00
ENDCHAR
STARTCHAR uni2010
ENCODING 8208
SWIDTH 313 0
DWIDTH 8 0
BBX 6 2 3 8
BITMAP
FC
FC
ENDCHAR
STARTCHAR uni2011
ENCODING 8209
SWIDTH 313 0
DWIDTH 8 0
BBX 6 2 3 8
BITMAP
FC
FC
ENDCHAR
STARTCHAR figuredash
ENCODING 8210
SWIDTH 500 0
DWIDTH 13 0
BBX 11 2 3 7
BITMAP
FFE0
FFE0
ENDCHAR
STARTCHAR endash
ENCODING 8211
SWIDTH 500 0
DWIDTH 13 0
BBX 11 2 3 7
BITMAP
FFE0
FFE0
ENDCHAR
STARTCHAR emdash
ENCODING 8212
SWIDTH 1000 0
DWIDTH 26 0
BBX 24 2 2 7
BITMAP
FFFFFF
FFFFFF
ENDCHAR
STARTCHAR afii00208
ENCODING 8213
SWIDTH 1000 0
DWIDTH 26 0
BBX 24 2 2 7
BITMAP
FFFFFF
FFFFFF
ENDCHAR
STARTCHAR quoteleft
ENCODING 8216
SWIDTH 217 0
DWIDTH 6 0
BBX 5 7 4 12
BITMAP
18
30
60
60
70
F0
E0
ENDCHAR
STARTCHAR quoteright
ENCODING 8217
SWIDTH 217 0
DWIDTH 6 0
BBX 5 7 4 12
BITMAP
38
78
70
30
70
E0
80
ENDCHAR
STARTCHAR quotesinglbase
ENCODING 8218
SWIDTH 217 0
DWIDTH 6 0
BBX 4 8 1 -4
BITMAP
70
70
70
F0
20
60
60
C0
ENDCHAR
STARTCHAR quotereversed
ENCODING 8219
SWIDTH 217 0
DWIDTH 6 0
BBX 5 7 4 12
BITMAP
E0
F0
70
60
70
38
08
ENDCHAR
STARTCHAR quotedblleft
ENCODING 8220
SWIDTH 361 0
DWIDTH 9 0
BBX 8 6 4 13
BITMAP
31
62
46
46
EE
EE
ENDCHAR
STARTCHAR quotedblright
ENCODING 8221
SWIDTH 361 0
DWIDTH 9 0
BBX 8 6 4 13
BITMAP
73
67
23
62
46
8C
ENDCHAR
STARTCHAR quotedblbase
ENCODING 8222
SWIDTH 361 0
DWIDTH 9 0
BBX 8 8 0 -5
BITMAP
73
77
67
23
62
62
C4
88
ENDCHAR
STARTCHAR uni201F
ENCODING 8223
SWIDTH 361 0
DWIDTH 9 0
BBX 8 6 4 13
BITMAP
CE
E6
C4
46
62
31
ENDCHAR
STARTCHAR dagger
ENCODING 8224
SWIDTH 633 0
DWIDTH 16 0
BBX 11 23 5 -4
BITMAP
0300
0700
0700
0600
0600
0600
0600
FFE0
FFE0
0C00
0C00
0C00
0C00
1C00
1800
1800
1800
1800
3800
3000
3000
3000
7000
ENDCHAR
STARTCHAR daggerdbl
ENCODING 8225
SWIDTH 633 0
DWIDTH 16 0
BBX 13 23 3 -4
BITMAP
01C0
01C0
0180
0180
0180
0180
0100
3FF8
3FF8
0300
0300
0300
0600
0600
0600
FFE0
FFE0
0C00
0C00
0C00
0C00
1C00
1C00
ENDCHAR
STARTCHAR bullet
ENCODING 8226
SWIDTH 633 0
DWIDTH 16 0
BBX 9 8 5 4
BITMAP
7F80
7F80
7F80
7F00
7F00
FF00
FF00
FF00
ENDCHAR
STARTCHAR ellipsis
ENCODING 8230
SWIDTH 1000 0
DWIDTH 26 0
BBX 20 2 3 0
BITMAP
E06070
E06070
ENDCHAR
STARTCHAR perthousand
ENCODING 8240
SWIDTH 1027 0
DWIDTH 27 0
BBX 28 19 1 0
BITMAP
07807000
1FC0E000
18C1C000
30418000
30C30000
30C60000
31CC0000
3F980000
1E300000
006783C0
00CFC7E0
0198CE70
0330CC30
0630D830
0C30D830
1830D860
38319CE0
703F0FC0
E01E0780
ENDCHAR
STARTCHAR guilsinglleft
ENCODING 8249
SWIDTH 328 0
DWIDTH 9 0
BBX 7 12 3 1
BITMAP
04
0E
1C
38
70
E0
E0
60
30
30
18
10
ENDCHAR
STARTCHAR guilsinglright
ENCODING 8250
SWIDTH 328 0
DWIDTH 9 0
BBX 7 12 2 1
BITMAP
10
30
18
1C
0C
0E
0E
1C
38
70
E0
40
ENDCHAR
STARTCHAR fraction
ENCODING 8260
SWIDTH 117 0
DWIDTH 3 0
BBX 20 19 -6 0
BITMAP
000070
0000E0
0001C0
000380
000700
000E00
001C00
001800
003000
006000
00C000
018000
038000
070000
0E0000
1C0000
380000
700000
E00000
ENDCHAR
STARTCHAR oneinferior
ENCODING 8321
SWIDTH 392 0
DWIDTH 10 0
BBX 4 11 -17 -6
BITMAP
F0
F0
20
20
20
60
60
40
40
C0
C0
ENDCHAR
STARTCHAR twoinferior
ENCODING 8322
SWIDTH 392 0
DWIDTH 10 0
BBX 9 11 -14 -6
BITMAP
1F00
3F80
2180
0180
0300
0600
1C00
3000
6000
FE00
FE00
ENDCHAR
STARTCHAR threeinferior
ENCODING 8323
SWIDTH 392 0
DWIDTH 10 0
BBX 8 11 -14 -6
BITMAP
3E
3F
03
03
3C
3C
06
02
86
FE
F8
ENDCHAR
STARTCHAR uni20A5
ENCODING 8357
SWIDTH 934 0
DWIDTH 24 0
BBX 22 23 2 -4
BITMAP
000070
000060
0000C0
0000C0
000180
187B38
19FBFC
1B9FDC
3F1F9C
361F1C
3C3E1C
3C3C18
383818
707838
60F038
60F030
61F030
61E030
C36070
060000
060000
0C0000
1C0000
ENDCHAR
STARTCHAR uni20A6
ENCODING 8358
SWIDTH 741 0
DWIDTH 19 0
BBX 18 19 3 0
BITMAP
0C00C0
1E01C0
1E01C0
1F0180
1F0180
1B8180
3FFF80
3FFF80
31C300
30C300
30E300
7FFF00
7FFF00
607600
603E00
603E00
E01E00
E01E00
C01C00
ENDCHAR
STARTCHAR uni20A9
ENCODING 8361
SWIDTH 886 0
DWIDTH 23 0
BBX 22 19 4 0
BITMAP
E0301C
E07018
E07038
E0F030
E0F030
E1F860
EFFFE0
EFFFE0
E338C0
E339C0
663980
7FFFC0
7FFFC0
6C3F00
7C3E00
783E00
783C00
703C00
703800
ENDCHAR
STARTCHAR Euro
ENCODING 8364
SWIDTH 679 0
DWIDTH 18 0
BBX 22 19 -2 0
BITMAP
0007F8
001FFC
007C0C
00F000
01E000
01C000
7FFF00
7FFF00
038000
070000
070000
FFFE00
FFFE00
070000
070000
038020
03C0E0
01FFE0
007F00
ENDCHAR
STARTCHAR uni20AD
ENCODING 8365
SWIDTH 635 0
DWIDTH 17 0
BBX 16 19 3 0
BITMAP
0C07
1C0E
1C1C
1C38
1870
18E0
39C0
3B80
FFFF
FFFF
3300
7300
7180
71C0
70C0
6060
E070
E030
E018
ENDCHAR
STARTCHAR uni2103
ENCODING 8451
SWIDTH 935 0
DWIDTH 25 0
BBX 22 19 5 0
BITMAP
7007F8
901FFC
907C0C
90F000
71E000
01C000
038000
038000
038000
070000
070000
070000
070000
070000
070000
038020
03C0E0
01FFE0
007F00
ENDCHAR
STARTCHAR uni2109
ENCODING 8457
SWIDTH 792 0
DWIDTH 21 0
BBX 19 19 5 0
BITMAP
707FE0
90FFE0
90E000
90E000
70C000
00C000
01C000
01C000
01FF00
01FF00
018000
038000
038000
038000
038000
030000
070000
070000
070000
ENDCHAR
STARTCHAR trademark
ENCODING 8482
SWIDTH 801 0
DWIDTH 21 0
BBX 20 10 3 9
BITMAP
FFB870
FFB8F0
183CF0
183DE0
182D60
386F60
306E60
306EE0
306CC0
3040C0
ENDCHAR
STARTCHAR uni212A
ENCODING 8490
SWIDTH 635 0
DWIDTH 17 0
BBX 16 19 3 0
BITMAP
0C07
1C0E
1C1C
1C38
1870
18E0
39C0
3B80
3F00
3600
3300
7300
7180
71C0
70C0
6060
E070
E030
E018
ENDCHAR
STARTCHAR uni212B
ENCODING 8491
SWIDTH 687 0
DWIDTH 18 0
BBX 17 24 1 0
BITMAP
001800
002400
002400
001800
000000
003800
003C00
007C00
007C00
00EC00
00CC00
01CE00
038E00
030E00
070600
060600
0E0700
0FFF00
1FFF00
180700
380300
700380
600380
E00380
ENDCHAR
STARTCHAR uni2132
ENCODING 8498
SWIDTH 536 0
DWIDTH 14 0
BBX 14 19 3 0
BITMAP
001C
001C
001C
0018
0038
0038
0038
0038
0030
1FF0
1FF0
0070
0070
0060
0060
00E0
00E0
FFE0
FFC0
ENDCHAR
STARTCHAR minus
ENCODING 8722
SWIDTH 633 0
DWIDTH 16 0
BBX 15 2 2 7
BITMAP
FFFE
FFFE
ENDCHAR
STARTCHAR fraction
ENCODING 8725
SWIDTH 117 0
DWIDTH 3 0
BBX 20 19 -6 0
BITMAP
000070
0000E0
0001C0
000380
000700
000E00
001C00
001800
003000
006000
00C000
018000
038000
070000
0E0000
1C0000
380000
700000
E00000
ENDCHAR
STARTCHAR periodcentered
ENCODING 8729
SWIDTH 316 0
DWIDTH 16 0
BBX 4 3 8 7
BITMAP
70
F0
E0
ENDCHAR
STARTCHAR uni2236
ENCODING 8758
SWIDTH 316 0
DWIDTH 8 0
BBX 5 14 3 0
BITMAP
38
38
00
00
00
00
00
00
00
00
00
00
E0
E0
ENDCHAR
STARTCHAR uni2259
ENCODING 8793
SWIDTH 633 0
DWIDTH 16 0
BBX 16 12 2 4
BITMAP
01E0
03E0
0760
0E30
0000
7FFF
7FFF
0000
0000
0000
FFFE
FFFE
ENDCHAR
STARTCHAR uni225A
ENCODING 8794
SWIDTH 633 0
DWIDTH 16 0
BBX 16 12 2 4
BITMAP
0C70
06E0
06C0
0380
0000
7FFF
7FFF
0000
0000
0000
FFFE
FFFE
ENDCHAR
STARTCHAR notequal
ENCODING 8800
SWIDTH 633 0
DWIDTH 16 0
BBX 17 23 2 -4
BITMAP
000380
000300
000600
000600
000C00
001800
001800
003000
7FFF00
7FFF00
00C000
01C000
018000
FFFE00
FFFE00
060000
0C0000
0C0000
180000
300000
300000
600000
E00000
ENDCHAR
STARTCHAR equivalence
ENCODING 8801
SWIDTH 633 0
DWIDTH 16 0
BBX 16 8 0 4
BITMAP
FFFF
FFFF
0000
FFFF
FFFF
0000
FFFF
FFFF
ENDCHAR
STARTCHAR uni2262
ENCODING 8802
SWIDTH 633 0
DWIDTH 16 0
BBX 17 23 0 -3
BITMAP
000380
000300
000600
000600
000C00
001800
001800
003000
FFFF00
FFFF00
00C000
FFFF00
FFFF00
030000
FFFF00
FFFF00
0C0000
0C0000
180000
300000
300000
600000
E00000
ENDCHAR
STARTCHAR lessequal
ENCODING 8804
SWIDTH 633 0
DWIDTH 16 0
BBX 17 19 2 -3
BITMAP
000080
000380
000F00
003C00
00F000
07C000
1F0000
FC0000
780000
3E0000
0F0000
03C000
00F000
007800
001C00
000400
000000
FFFF80
FFFF80
ENDCHAR
STARTCHAR greaterequal
ENCODING 8805
SWIDTH 633 0
DWIDTH 16 0
BBX 17 19 0 -3
BITMAP
100000
1C0000
0F0000
078000
01E000
007800
003E00
000F00
001F80
007C00
01F000
078000
1E0000
780000
E00000
800000
000000
FFFF80
FFFF80
ENDCHAR
STARTCHAR uni226E
ENCODING 8814
SWIDTH 633 0
DWIDTH 16 0
BBX 17 23 2 -3
BITMAP
000380
000300
000600
000600
000C80
001B80
001F00
003C00
00F000
07E000
1FC000
FDC000
798000
3F0000
0F0000
07C000
0CF000
0C7800
181C00
300400
300000
600000
E00000
ENDCHAR
STARTCHAR uni226F
ENCODING 8815
SWIDTH 633 0
DWIDTH 16 0
BBX 17 23 0 -3
BITMAP
000380
000300
000600
000600
100C00
1C1800
0F1800
07B000
01F000
007800
00FE00
01CF00
019F80
037C00
07F000
078000
1E0000
7C0000
F80000
B00000
300000
600000
E00000
ENDCHAR
STARTCHAR uni2270
ENCODING 8816
SWIDTH 633 0
DWIDTH 16 0
BBX 17 23 2 -5
BITMAP
000380
000300
000680
000780
000F00
003C00
00F800
07F000
1F7000
FC6000
78C000
3FC000
0F8000
03C000
07F000
067800
0C1C00
0C0400
180000
FFFF80
FFFF80
600000
E00000
ENDCHAR
STARTCHAR uni2271
ENCODING 8817
SWIDTH 633 0
DWIDTH 16 0
BBX 17 23 0 -5
BITMAP
000380
000300
100600
1C0600
0F0C00
079800
01F800
007800
007E00
006F00
00DF80
01FC00
01F000
078000
1F0000
7E0000
EC0000
8C0000
180000
FFFF80
FFFF80
600000
E00000
ENDCHAR
STARTCHAR fi
ENCODING -1
SWIDTH 639 0
DWIDTH 17 0
BBX 16 25 2 -5
BITMAP
00F0
03F7
0717
0600
0E00
0C00
7FFE
7FFE
1C0E
1C0C
180C
181C
381C
381C
3818
3018
3038
7038
7038
7030
6000
6000
E000
E000
E000
ENDCHAR
STARTCHAR fl
ENCODING -1
SWIDTH 639 0
DWIDTH 17 0
BBX 16 25 2 -5
BITMAP
00FF
03FF
0707
0E06
0E06
0C0E
7FCE
7F8E
1C0C
1C0C
181C
181C
381C
3818
3818
3038
3038
7038
7030
7030
6000
6000
E000
E000
E000
ENDCHAR
ENDFONT
